<?xml version="1.0" encoding="UTF-8"?>
<svg id="Layer_1" xmlns="http://www.w3.org/2000/svg" version="1.1" viewBox="0 0 800 770">
  <!-- Generator: Adobe Illustrator 29.5.1, SVG Export Plug-In . SVG Version: 2.1.0 Build 141)  -->
  <defs>
    <style>
      .st0 {
        fill: #004c6d;
      }

      .st1 {
        fill: #fff;
      }
    </style>
  </defs>
  <path class="st1" d="M769.61,232.27c-7.48-18.33-18.17-32.42-31.8-41.9-13.35-9.29-29.17-14-47.01-14-33.24,0-68.36,16.31-102.33,32.07-21.11,9.8-44.63,20.72-61.22,23.71-.64-17,1.22-37.76,3.03-58.04,4.84-54.21,9.85-110.28-22.91-145.93C490.2,9.48,465.61,0,434.28,0c-4.59,0-9.41.21-14.34.61-5.43-.2-12.23-.4-19.48-.4-26.04,0-47.17,2.68-64.6,8.2-36.44,11.53-51.28,33.97-57.31,50.76l-.25.71c-14.15,42.58-10.85,86.44-7.66,128.85.99,13.18,1.95,25.99,2.37,38.36-12.26-4.22-26.04-10.29-40.37-16.6-34.98-15.4-71.15-31.33-107-31.33s-67.1,17.82-86.53,51.52l-1.07,1.86-.81,1.99c-2.39,5.9-5.58,12.85-8.95,20.21-9.5,20.73-20.26,44.23-25.38,68.76-7.12,34.18-1.15,62.46,17.77,84.04l1.62,1.84,1.88,1.57c28.38,23.65,70.25,33.22,110.74,42.48,21.8,4.98,47.34,10.82,64.26,18.49-2.89,3.81-6.02,7.64-9.11,11.41-4,4.89-8.12,9.93-11.77,15.02l-1.99,2.34c-56.77,66.9-91.04,107.27-81.78,153.39,8.6,42.84,52.08,72.35,129.31,111.82l8,4.09,8.96-.76c30.76-2.61,58.05-17.56,83.43-45.69,19.58-21.71,35.28-48.07,50.46-73.56,7.27-12.22,14.33-24.06,21.35-34.6,1.84,2.78,3.56,5.49,4.91,7.62,3.49,5.52,7.09,11.22,11.12,16.59,6.59,9.5,12.89,19.83,19.55,30.75,20.55,33.68,43.83,71.86,83.17,94.75l7.59,4.42,8.79-.16c41.28-.76,82.18-27.1,102.88-42.73,31.46-23.75,58.28-53.81,71.75-80.39l2.89-5.69.41-6.36c2.93-45.28-35.46-88.69-72.59-130.67-11.17-12.63-21.73-24.57-29.65-35.03-.29-.39-.58-.77-.86-1.14,15.03-4.52,30.32-8.45,45.31-12.31,28.67-7.38,55.76-14.35,79.14-24.77,30.45-13.58,50.39-31.57,60.98-55,16.33-36.15,9.4-81.6-21.83-142.98Z"/>
  <path class="st0" d="M238.13,738.14c-156.56-80.02-134.83-103.04-35.03-220.66,10.54-15.08,29.24-32.82,36.77-53.84-33.02-42.33-148.09-37.03-195.59-76.61-33.25-37.94,6.17-101.74,22-140.79,47.52-82.42,147.85,1.07,214.94,15.65,7.47,1.66,21.47,8.92,22.23,2.02,6.02-62.99-15.61-133.41,4.6-194.22,14.3-39.8,76.42-39.22,112.66-37.81,132.65-12.36,59,151.31,78.67,227.86,60.89,31.51,200.42-119.33,241.66-14.57,89.37,174.35-57.01,157.33-176.4,203.2-6.29,38.89,117.05,124.04,113.19,183.8-22.9,45.2-95.24,105.02-147.25,105.98-43.86-25.52-65.15-76.67-93.1-116.81-13.34-17.57-24.85-46.1-46.68-50.36-46.82,50.39-78.07,160.83-152.67,167.16Z"/>
</svg>