<?xml version="1.0" encoding="UTF-8"?>
<svg id="Layer_1" xmlns="http://www.w3.org/2000/svg" version="1.1" viewBox="0 0 800 770">
  <!-- Generator: Adobe Illustrator 29.5.1, SVG Export Plug-In . SVG Version: 2.1.0 Build 141)  -->
  <defs>
    <style>
      .st0 {
        fill: #004c6d;
      }

      .st1 {
        fill: #fff;
      }
    </style>
  </defs>
  <path class="st0" d="M224.4,769.99c-169.88-87.15-146.31-112.23-38.01-240.35,11.43-16.43,31.72-35.75,39.9-58.64-35.83-46.11-160.69-40.34-212.23-83.45-36.08-41.32,6.69-110.82,23.88-153.35,51.56-89.78,160.43,1.16,233.23,17.05,8.11,1.81,23.3,9.72,24.12,2.2,6.53-68.61-16.93-145.31,4.99-211.54C315.8-1.45,383.19-.82,422.52.72c143.94-13.46,64.02,164.81,85.36,248.19,66.07,34.32,217.47-129.98,262.22-15.87,96.97,189.9-61.86,171.37-191.41,221.33-6.83,42.36,127.01,135.1,122.82,200.2-24.85,49.23-103.34,114.38-159.77,115.43-47.59-27.8-70.69-83.51-101.03-127.23-14.48-19.14-26.96-50.21-50.65-54.85-50.8,54.89-84.71,175.18-165.65,182.08Z"/>
  <path class="st1" d="M437.24,10c21.43,0,36.76,5.36,46.85,16.39,22.46,24.54,17.9,75.79,13.49,125.35-3.3,37.11-6.42,72.16.62,99.65l1.11,4.33,3.97,2.06c7.59,3.94,16.44,5.94,26.29,5.94,27.47,0,59.58-14.96,93.57-30.81,32.51-15.15,66.13-30.82,92.45-30.82,10.32,0,18.76,2.39,25.81,7.32,7.95,5.55,14.47,14.73,19.39,27.27l.18.46.22.44c27.56,53.98,35.24,92.93,23.47,119.07-15.59,34.63-65.33,47.47-122.93,62.35-28.51,7.36-58,14.98-86.64,26.03l-5.36,2.07-.91,5.67c-1.87,11.61,3.15,25.42,15.81,43.47,10.18,14.52,24.19,30.42,39.03,47.26,32.06,36.39,68.32,77.54,67.95,108.44-24.63,46.52-96.99,104.94-147.27,107.94-31.67-19.58-52.36-53.63-72.39-86.59-7.36-12.12-14.98-24.65-23.02-36.24l-.12-.17-.12-.16c-3.43-4.53-6.81-9.9-10.39-15.59-11.44-18.16-24.41-38.75-46.31-43.04l-5.47-1.07-3.79,4.09c-17.36,18.76-32.24,43.85-48,70.4-29.84,50.31-60.68,102.29-108.39,108.21-40.3-20.77-66.41-36.41-84.43-50.56-18.05-14.17-27.64-26.68-30.17-39.36-5.88-29.4,26.14-67.28,79.2-130.03l3.12-3.68.3-.36.27-.38c3.23-4.65,7.37-9.71,11.74-15.08,10.82-13.27,23.08-28.31,29.37-45.91l1.85-5.17-3.37-4.33c-20.96-26.97-65.15-37.11-111.94-47.85-38.53-8.84-78.35-17.98-101.16-36.62-24.99-29.61-2.47-78.95,15.64-118.64,3.75-8.22,7.3-15.99,10.21-23.14,13.3-22.82,30.92-33.46,55.41-33.46,29.62,0,64.54,15.44,98.32,30.36,24.33,10.75,47.31,20.91,68.32,25.49,1.57.35,3.98,1.17,6.31,1.97,5.28,1.8,10.73,3.66,15.7,3.66,8.92,0,13.58-6.07,14.24-12.09v-.07s.01-.07.01-.07c2.68-28.1.46-57.59-1.67-86.12-3.14-41.85-6.38-85.12,6.16-123.12,8.49-23.51,38.2-34.94,90.81-34.94,8.1,0,15.79.26,21.58.49l.66.03.66-.06c4.81-.45,9.45-.68,13.79-.68M437.24,0c-4.62,0-9.53.24-14.72.72-6.65-.26-14.1-.49-21.97-.49-38.66,0-87.37,5.66-100.27,41.68-21.92,66.23,1.54,142.94-4.99,211.54-.26,2.34-1.91,3.19-4.3,3.19-5.3,0-14.24-4.14-19.82-5.39-49.39-10.78-115.38-56.1-168.82-56.1-25.32,0-47.83,10.19-64.41,39.05-17.18,42.53-59.96,112.03-23.88,153.35,51.55,43.11,176.4,37.34,212.23,83.45-8.18,22.89-28.47,42.21-39.9,58.64-108.3,128.12-131.87,153.19,38.01,240.35,80.94-6.9,114.85-127.19,165.65-182.08,23.69,4.64,36.17,35.71,50.65,54.85,30.33,43.73,53.44,99.44,101.03,127.23,56.43-1.05,134.92-66.2,159.77-115.43,4.19-65.1-129.64-157.85-122.82-200.2,129.55-49.96,288.38-31.43,191.41-221.33-11.87-30.26-31.23-40.94-54.52-40.94-55.93,0-134.47,61.63-186.02,61.63-7.92,0-15.21-1.46-21.68-4.82C487.31,168.54,560.82,0,437.24,0h0Z"/>
</svg>