<?xml version="1.0" encoding="UTF-8"?>
<svg id="Layer_1" xmlns="http://www.w3.org/2000/svg" version="1.1" viewBox="0 0 800 770">
  <!-- Generator: Adobe Illustrator 29.5.1, SVG Export Plug-In . SVG Version: 2.1.0 Build 141)  -->
  <defs>
    <style>
      .st0 {
        fill: #fff;
      }
    </style>
  </defs>
  <path class="st0" d="M224.4,769.99c-169.88-87.15-146.31-112.23-38.01-240.35,11.43-16.43,31.72-35.75,39.9-58.64-35.83-46.11-160.69-40.34-212.23-83.45-36.08-41.32,6.69-110.82,23.88-153.35,51.56-89.78,160.43,1.16,233.23,17.05,8.11,1.81,23.3,9.72,24.12,2.2,6.53-68.61-16.93-145.31,4.99-211.54C315.8-1.45,383.19-.82,422.52.72c143.94-13.46,64.02,164.81,85.36,248.19,66.07,34.32,217.47-129.98,262.22-15.87,96.97,189.9-61.86,171.37-191.41,221.33-6.83,42.36,127.01,135.1,122.82,200.2-24.85,49.23-103.34,114.38-159.77,115.43-47.59-27.8-70.69-83.51-101.03-127.23-14.48-19.14-26.96-50.21-50.65-54.85-50.8,54.89-84.71,175.18-165.65,182.08Z"/>
</svg>