<?xml version="1.0" encoding="UTF-8"?>
<svg id="Layer_1" xmlns="http://www.w3.org/2000/svg" version="1.1" viewBox="0 0 1000 1000">
  <!-- Generator: Adobe Illustrator 29.5.1, SVG Export Plug-In . SVG Version: 2.1.0 Build 141)  -->
  <defs>
    <style>
      .st0 {
        fill: #fff;
      }
    </style>
  </defs>
  <g>
    <circle class="st0" cx="500" cy="500" r="500"/>
    <path d="M500,9c66.29,0,130.59,12.98,191.12,38.58,58.47,24.73,110.98,60.13,156.07,105.23s80.5,97.61,105.23,156.07c25.6,60.53,38.58,124.83,38.58,191.12s-12.98,130.59-38.58,191.12c-24.73,58.47-60.13,110.98-105.23,156.07-45.1,45.1-97.61,80.5-156.07,105.23-60.53,25.6-124.83,38.58-191.12,38.58s-130.59-12.98-191.12-38.58c-58.47-24.73-110.98-60.13-156.07-105.23-45.1-45.1-80.5-97.61-105.23-156.07-25.6-60.53-38.58-124.83-38.58-191.12s12.98-130.59,38.58-191.12c24.73-58.47,60.13-110.98,105.23-156.07,45.1-45.1,97.61-80.5,156.07-105.23,60.53-25.6,124.83-38.58,191.12-38.58M500,0C223.86,0,0,223.86,0,500s223.86,500,500,500,500-223.86,500-500S776.14,0,500,0h0Z"/>
  </g>
  <g>
    <path d="M837.02,130.67c-8.09-9.48-18.85-10.28-29.39-4.08-27.58,16.26-67.29,93.97-81.87,124.28-42.49,88.36-67.41,182.98-103.47,273.77-4.81,12.09-9.83,24.92-19.69,33.78-2.53-20.51-4.1-41.04-3.46-61.78,1.46-46.49,12.87-106.39,4.59-151.29-3.2-17.35-15.45-25.61-31.14-14.25-21.15,15.35-48.66,85.98-58.05,112.11-28.58,79.22-43.68,161.26-67.81,241.38-2.62,8.72-13.13,43.39-17.75,48.36-1.39,1.49-3.24,2.46-5.34,2.43-4.1-15.48-7.11-31.39-9.13-47.33-6.53-51.63-5.28-103.66-3.01-155.37,5.18-117.76,20.51-234.77,49.83-348.78,2.42-9.4,13.16-37.48,8.38-44.91-1.54-2.39-6.99-3.91-9.67-3.1-8.82,2.68-19.11,34.57-21.86,43.35-35.92,115.4-51.98,270.43-54.03,391.27-.67,39.38,4.01,147.18,24.52,178.77,6.27,9.64,17.99,14.62,27.71,6.14,10.09-8.8,24.86-56.65,29.24-71.39,29.04-97.68,47.55-234.96,102.37-319.61,1.65-2.53,14.04-21.59,17.53-17.97,1.48,10.54,1.46,20.96.96,31.59-2.42,52.6-17.26,128.84-4.58,178.61,3.39,13.27,13.25,32.74,29.37,21.18,28.62-20.49,55.16-123.3,67.6-158.98,27.64-79.27,65.87-181.09,114.59-249.07,7.14-9.96,16.04-20.59,27.44-25.54,3.81,15.13,3.66,32.5,2.97,48.15-3.39,76.46-24,159.8-34.92,236.35-19.47,136.47-26.97,273.5-36.19,411.08,1.9,9.63-.61,21.76,3.46,30.68,2.06,4.53,8.24,9.32,12.87,5.53,2.16-1.77,3.87-8.08,4.16-10.9,1.97-19.28-.06-42.91.97-63.19,3.66-71.81,12.06-149.89,20.56-221.52,13.77-116.04,38.77-232.52,51.41-348.17,2.77-25.34,7.86-81.6-9.21-101.59h.04-.01Z"/>
    <path d="M476.1,170.07c-.97-7.2-1.37-30.72-5.3-35.05-5.05-5.56-13.64-.49-14.33,6.95-.77,8.32,1.14,21.47,2,30.18,3.04,30.82,8.76,61.5,11.67,92.37,11.58,123.57-15.33,266.29-46.97,385.67-10.54,39.74-24.09,91.89-43.33,127.79-4.72,8.8-18.43,32.86-29.77,19.68-15.91-18.52-28.85-99.46-32.53-125.97-14.67-105.6-17.35-212.53-25.44-318.74-2.01-26.54-8.66-98.13-22.18-118.82-6.8-10.4-19.86-12.19-28.39-2.72-10.38,11.52-20.95,55.54-25.21,72.01-28.66,110.47-49.79,229.28-59.4,343.12-5.04,59.74-9.11,123.07-2.91,182.75.58,5.7.65,15.37,6.09,18.2,5.47,2.85,9.9,2.08,11.9-4.08,3.85-11.86-.97-33.15-1.52-46.15-3.24-77.93,7.28-174.15,18.68-251.68,14.06-95.54,34.11-191.99,61.14-284.53,1.35-1.06,4.29,9.4,4.56,10.51,7.11,28.72,6.27,64.35,8.08,93.99,5.78,94.37,11.05,189.18,25.44,282.75,5.85,37.96,22.61,141.52,50.4,166.42,9.76,8.73,25.9,8.99,36.02.96,28.23-22.37,52.12-109.41,61.96-145.14,30.78-111.78,56.41-239.49,54.71-355.51-.73-50.24-8.73-95.64-15.39-145.02l.04.04h0Z"/>
  </g>
</svg>