<?xml version="1.0" encoding="UTF-8"?>
<svg id="Layer_1" xmlns="http://www.w3.org/2000/svg" version="1.1" viewBox="0 0 1000 1000">
  <!-- Generator: Adobe Illustrator 29.5.1, SVG Export Plug-In . SVG Version: 2.1.0 Build 141)  -->
  <defs>
    <style>
      .st0 {
        fill: #fff;
      }
    </style>
  </defs>
  <path class="st0" d="M56.23,156.04c16.89-8.03,33.65-14.06,52.59-15.52h779.34c18.78,1.63,38.07,5.77,53.99,16.23l-2.09,3.51c-142.62,141.42-284.72,283.36-427.51,424.71-8.82,7.98-20.79,5.87-28.85-2.11L56.23,156.04Z"/>
  <path class="st0" d="M361.59,540.74l89.89,88.39c26.68,21.39,64.84,23.05,92.37,2.58,33.24-28.06,61.49-62.46,94.13-90.9l304.16,302.43c-14.57,10.17-32.34,14.37-49.78,16.24H104.61c-15.38-2.35-31.68-5.78-45.16-13.82-.97-.58-3.85-1.62-2.55-3.1l304.7-301.83Z"/>
  <path class="st0" d="M984.24,803.26l-306.1-302.56,304.01-303.94c4.44-.06,15.81,34.55,15.76,40.38,4.19,170.44.54,341.47,1.85,512.13-1.43,19.28-7.35,36.73-15.52,53.99Z"/>
  <path class="st0" d="M15.53,196.74l304.69,303.96L16.21,803.24c-9.9-14.68-14.43-32.29-16.21-49.75V245.12c1.78-17.07,7.72-33.26,15.53-48.38Z"/>
</svg>