<?xml version="1.0" encoding="UTF-8"?>
<svg id="Layer_1" xmlns="http://www.w3.org/2000/svg" version="1.1" viewBox="0 0 800 800">
  <!-- Generator: Adobe Illustrator 29.5.1, SVG Export Plug-In . SVG Version: 2.1.0 Build 141)  -->
  <defs>
    <style>
      .st0 {
        fill: #004c6d;
      }

      .st1 {
        fill: #fff;
      }
    </style>
  </defs>
  <circle class="st0" cx="400" cy="400" r="400"/>
  <path class="st1" d="M691.83,485.83c5.19-43.71,12.54-88.38,19.65-131.57,7.83-47.58,15.93-96.78,21.22-145.14.12-1.14.26-2.36.41-3.65.88-7.79,1.67-15.8,2.15-23.74-13.54-20.76-28.96-40.18-46.01-58.03-.04.02-.07.04-.11.06-5.01,2.95-10.52,8.45-16.18,15.47,5.66-7.02,11.17-12.52,16.18-15.47.04-.02.07-.04.11-.06-3.06-3.2-6.17-6.35-9.33-9.45-10.92,7.6-23.48,23.35-38.31,47.98-12.77,21.22-23.79,43.33-29.22,54.62-21.02,43.7-36.85,89.72-52.16,134.21-7.57,22.01-15.35,44.61-23.72,66.8.37-11.45,1.52-24,2.74-37.27,2.69-29.25,5.47-59.49.69-85.41-2.93-15.86-13.39-26.11-26.65-26.11-6.2,0-12.42,2.23-18.49,6.62-12.24,8.88-23.39,30.7-30.71,46.34-9.51,20.31-17.17,40.93-20.02,48.85-13.81,38.27-23.8,77.71-33.47,115.84-6.39,25.22-13,51.3-20.61,76.57-.2.68-.41,1.34-.6,2-4.81-40.39-3.54-82.2-1.95-118.35,4.3-97.68,17.48-190.01,39.19-274.4.33-1.28,1.04-3.54,1.78-5.92,5.56-17.73,9.04-30.98,3.21-40.03-3.82-5.94-11.41-8.6-17.24-8.6-1.8,0-3.53.25-5.14.73-7.22,2.2-15.35,8.92-26.01,43-5.8,18.62-11.08,38.87-15.83,60.62-1.65-23.06-4.78-45.14-8.05-68.14-.55-3.88-1.12-7.84-1.67-11.82l-1.43-10.59c-.15-1.1-.32-3.52-.49-5.87-1.13-15.71-2.18-23.68-6.98-28.96-3.6-3.95-8.46-6.13-13.68-6.13h0c-10.37,0-19.28,8.43-20.27,19.2-.61,6.54.3,14.69,1.1,21.87.18,1.63.35,3.17.49,4.56,1.21,12.24,2.94,24.5,4.62,36.37,1.72,12.15,3.49,24.72,4.65,36.97,4.12,43.92,2.2,94.86-5.71,151.42-6.4,45.78-16.91,96.39-31.22,150.42l-.72,2.7c-8.22,31.03-18.46,69.64-32.6,96.01-2.06,3.84-3.78,6.52-5.14,8.38-2.47-5.39-6.32-16.13-10.92-37.05-4.94-22.46-8.21-45.03-9.1-51.41-7.95-57.27-11.5-116.25-14.94-173.29-1.56-25.94-3.18-52.75-5.18-79.12-.78-10.22-2.52-30.29-5.49-49.9-5.1-33.69-10.55-45.02-14.21-50.61-5.31-8.12-13.92-12.96-23.04-12.96-7.58,0-14.7,3.27-20.05,9.21-8.09,8.98-14.43,29.25-22.03,59.05-.34,1.33-.65,2.54-.92,3.6-23.63,91.07-40.08,186.08-47.56,274.74-3.09,36.63-6.05,77.95-4.35,118.73,11.88,16.91,25.05,32.86,39.34,47.71.94-1.49,1.72-3.13,2.3-4.94,3.01-9.27,1.61-21,.38-31.36-.44-3.71-.86-7.22-.97-9.86-2.1-50.4,2.85-116.85,14.71-197.51,8.36-56.79,19.05-111.61,31.9-163.7v.15c.24,6.77.47,13.16.85,19.43l.77,12.6c4.27,70.03,8.68,142.44,19.57,213.2,12.22,79.38,26.27,123.84,44.21,139.91,6.26,5.61,14.59,8.7,23.43,8.7,8.1,0,15.89-2.64,21.94-7.43,22.63-17.93,39.8-71.62,53.61-121.78l.07-.26c5.56-20.18,10.59-39.88,15.1-59.11,0,.25-.01.49-.02.74-.29,17.31.68,47.17,3.5,74.87,3.79,37.2,9.7,61.55,18.08,74.45,5.79,8.92,14.88,14.25,24.31,14.25,6.24,0,12.17-2.3,17.16-6.66,3.11-2.71,11.38-9.93,27.14-62.79,6.79-22.86,12.75-47.88,19.06-74.37,13.41-56.35,27.23-114.39,50.58-158.76-.64,7.86-1.49,16.2-2.36,24.84-3.6,35.72-7.69,76.21.06,106.6.94,3.69,3.15,10.79,7.4,17.03,7.34,10.77,16.31,12.38,21,12.38,5.18,0,10.26-1.76,15.11-5.24,20.16-14.43,35.24-58.79,51.47-110.95,2.71-8.72,5.06-16.25,6.93-21.62,42.1-120.72,69.85-167.4,89.32-194.58.29-.4.58-.81.89-1.23,0,3.76-.13,7.49-.29,11.05-1.72,38.83-9.31,80.78-16.65,121.36-3.9,21.55-7.93,43.84-10.97,65.14-13.65,95.66-20.03,193.18-26.21,287.5-.87,13.34-1.75,26.68-2.64,40.03l-.11,1.7.33,1.67c.38,1.91.41,4.64.44,7.53.08,6.09.16,12.98,3.22,19.71.28.61.6,1.22.95,1.83,13.37-9.87,26.1-20.56,38.12-31.99-.02-2.64-.05-5.27-.09-7.88-.1-7.49-.2-14.57.14-21.14,3.01-59.02,10.27-124.58,16.25-175.12h0ZM421.64,137.48c-.02-.59-.08-1.15-.17-1.66.09.51.15,1.06.17,1.66ZM421.56,140.22c-.15,1.82-.49,3.85-.94,5.97.45-2.13.78-4.15.94-5.97ZM414.38,131h-.04.04ZM411.35,132.08c.56-.43,1.11-.74,1.66-.9h0c-.55.17-1.1.47-1.66.9s-1.12.98-1.68,1.64c.56-.65,1.12-1.21,1.68-1.64ZM414.03,169.31c.44-1.71,1.22-4.19,2.13-7.07.2-.64.41-1.3.62-1.98.63-2.03,1.29-4.2,1.92-6.4.42-1.47.82-2.95,1.18-4.41.18-.73.36-1.46.52-2.18-.16.72-.34,1.45-.52,2.18-.36,1.46-.77,2.95-1.18,4.41-.62,2.2-1.29,4.37-1.92,6.4-.21.68-.42,1.34-.62,1.98-.9,2.88-1.69,5.37-2.13,7.07-2.18,8.49-4.27,17-6.26,25.53,1.99-8.53,4.08-17.04,6.26-25.53ZM85,602.99c.02-6.86.15-13.73.37-20.61-.21,6.87-.34,13.75-.37,20.61ZM95.18,459.7c-2.12,17.55-3.92,35.03-5.38,52.37-.31,3.71-.62,7.43-.92,11.17-.6,7.48-1.17,15.02-1.67,22.59.51-7.57,1.07-15.11,1.67-22.59.3-3.74.61-7.46.92-11.17,1.46-17.34,3.27-34.82,5.38-52.37,1.41-11.7,2.96-23.43,4.65-35.18-1.68,11.74-3.23,23.48-4.65,35.18ZM167.34,177.38h.08c.42,0,.84.03,1.26.07-.45-.04-.9-.07-1.35-.07h.01ZM210.98,595.89c.69,2.44,1.4,4.85,2.12,7.22-.73-2.37-1.44-4.78-2.12-7.22ZM219.41,545.49c-.24-1.53-.47-3.01-.69-4.41s-.41-2.73-.6-3.98c-.28-1.88-.52-3.57-.72-5.05-.73-5.24-1.42-10.49-2.08-15.74.66,5.25,1.35,10.5,2.08,15.74.21,1.48.45,3.17.72,5.05.18,1.25.38,2.58.6,3.98s.44,2.88.69,4.41c.37,2.3.76,4.74,1.19,7.29-.43-2.55-.83-4.99-1.19-7.29ZM249.01,651.06c-.09,0-.18-.01-.27-.01.34,0,.67,0,1.01-.02-.25,0-.49.03-.73.03h0ZM339.15,105.7c.15.16.29.36.42.58-.13-.23-.27-.42-.42-.58-.23-.25-.47-.46-.71-.66.24.2.48.41.71.66ZM335.09,103.83c.21,0,.41.02.62.04-.26-.03-.52-.04-.78-.03h.16ZM319.04,440.88c-1.35,6.38-2.74,12.71-4.16,19,1.42-6.29,2.81-12.62,4.16-19ZM312.1,531.14c-.12.44-.25.9-.37,1.36.13-.46.25-.92.37-1.36,1.53-5.55,3.04-11.15,4.53-16.79-1.49,5.64-3,11.24-4.53,16.79ZM343.33,133.51h0c.5,3.68,1,7.33,1.51,10.96-.51-3.63-1.01-7.28-1.51-10.96ZM398.29,157.59c-.3.85-.58,1.66-.84,2.44.26-.77.54-1.59.84-2.44ZM395.64,165.61c.14-.44.3-.94.48-1.51-.18.57-.34,1.08-.48,1.51-3.57,11.46-6.89,23.41-9.97,35.74,3.08-12.33,6.4-24.28,9.97-35.74ZM367.29,608.2c-.43-1.16-.84-2.36-1.24-3.6.4,1.25.82,2.45,1.24,3.6.43,1.16.86,2.26,1.31,3.32-.45-1.06-.89-2.17-1.31-3.32ZM372.19,618.46c-.95-1.47-1.87-3.15-2.74-5.01.87,1.86,1.78,3.54,2.74,5.01h0ZM376.84,569.81c-.49-3.84-.92-7.69-1.3-11.54.38,3.85.81,7.7,1.3,11.54.3,2.37.63,4.75.99,7.12-.36-2.37-.69-4.74-.99-7.12ZM384.09,607.41c-1.22-4.61-2.32-9.27-3.3-13.96.98,4.69,2.08,9.35,3.3,13.96h0ZM385.6,626.79h-.17.28-.11ZM388.34,605.47l-.11.11s.07-.07.11-.11c.23-.25.48-.59.74-1.01-.26.42-.51.76-.74,1.01ZM397.67,618.88c-.69,1.13-1.36,2.11-2.02,2.92-.49.61-.97,1.13-1.44,1.54h0c.47-.41.95-.93,1.44-1.54.66-.81,1.33-1.8,2.02-2.92.34-.56.69-1.16,1.04-1.79-.35.63-.7,1.23-1.04,1.79ZM430.77,516.06c-4.31,17.74-8.65,34.8-13.33,50.57-.33,1.1-.73,2.42-1.19,3.94-.31,1.01-.64,2.1-1,3.26-.72,2.32-1.54,4.9-2.44,7.65.9-2.75,1.72-5.33,2.44-7.65.36-1.16.7-2.25,1-3.26.46-1.51.86-2.84,1.19-3.94,4.69-15.76,9.03-32.82,13.33-50.57,1.66-6.82,3.31-13.75,4.97-20.74-1.66,6.99-3.32,13.92-4.97,20.74ZM443.38,463.52c-1.74,7.11-3.45,14.21-5.13,21.26,1.68-7.05,3.39-14.15,5.13-21.26,1.74-7.11,3.53-14.24,5.37-21.34-1.84,7.1-3.62,14.23-5.37,21.34ZM456.3,375.3c-2.53,7.02-4.93,14.07-7.22,21.14,2.29-7.07,4.69-14.12,7.22-21.14.19-.53.39-1.09.6-1.67-.21.58-.41,1.14-.6,1.67ZM502.42,286.23c-.98.71-1.99,1.58-3,2.58,1.02-1,2.02-1.87,3-2.58h0ZM523.5,417.75c.18-5.77.55-11.8,1.03-18.01-.48,6.2-.85,12.24-1.03,18.01-.06,2.06-.1,4.12-.11,6.17.01-2.05.05-4.11.11-6.17ZM513.28,282.08h.17-.22.05ZM512.69,298.44c.77,5.5,1.03,10.95,1,16.44.03-5.49-.23-10.94-1-16.44h0ZM524.89,454.6c-.59-6.12-1.03-12.24-1.28-18.38.25,6.14.69,12.26,1.28,18.38ZM525.62,485.06h-.09c.28,0,.57,0,.86-.03-.26.02-.52.04-.77.04h0ZM624.1,222.5c-3.16,6.58-6.21,13.2-9.15,19.87,2.94-6.66,5.98-13.29,9.15-19.87.27-.56.55-1.15.85-1.75-.29.6-.58,1.19-.85,1.75ZM669.02,144.33c.88-1.18,1.76-2.33,2.63-3.44-.87,1.11-1.75,2.26-2.63,3.44ZM699.39,209.26c-.76,6.82-1.63,13.68-2.6,20.57.96-6.89,1.84-13.75,2.6-20.57h0ZM662.6,660.28c-.18,3.52-.24,7.16-.25,10.87,0,3.71.05,7.48.1,11.25-.05-3.77-.1-7.54-.1-11.25s.07-7.35.25-10.87c.55-10.7,1.22-21.57,2.01-32.54-.79,10.98-1.46,21.85-2.01,32.54Z"/>
</svg>