<?xml version="1.0" encoding="UTF-8"?>
<svg id="Layer_1" xmlns="http://www.w3.org/2000/svg" version="1.1" viewBox="0 0 800 800">
  <!-- Generator: Adobe Illustrator 29.5.1, SVG Export Plug-In . SVG Version: 2.1.0 Build 141)  -->
  <defs>
    <style>
      .st0 {
        fill: #fff;
      }
    </style>
  </defs>
  <path class="st0" d="M63.53.23L735.33,0c33.51,3.15,60.76,29.94,64.67,63.3v672.72c-3.2,33.05-30.34,60.34-63.3,63.98H63.98c-33.63-3.42-60.84-31.06-63.98-64.67L.04,64.7C3.11,31.39,30.21,3.71,63.53.23Z"/>
  <path d="M63.53.23L735.33,0c33.51,3.15,60.76,29.94,64.67,63.3v672.72c-3.2,33.05-30.34,60.34-63.3,63.98H63.98c-33.63-3.42-60.84-31.06-63.98-64.67L.04,64.7C3.11,31.39,30.21,3.71,63.53.23ZM68.32,26.92c-23.4,2.09-40.08,19.94-41.63,43.22v659.72c1.57,23.52,18.44,41.51,42.08,43.46,223.18-.74,446.62,1.32,669.64-1.03,19.3-4.48,33.61-21.17,34.91-41.05V68.09c-2.4-23.35-20.14-39.84-43.46-41.4l-661.54.23Z"/>
  <path d="M97.74,60.45l602.69-.23c21.22,1.57,37.51,17.46,39.35,38.66v601.55c-1.38,21.26-17.49,37.55-38.66,39.34H99.56c-21.47-1.39-37.76-17.99-39.34-39.35V99.56c1.52-20.57,17-36.81,37.52-39.12ZM98.39,87.78c-5.84,1.45-10.4,6.34-10.8,12.47v599.5c.54,6.08,4.04,10.13,9.59,12.31l606.11-.21c4.27-1.7,7.11-4.78,8.76-9.03l-.21-606.11c-2.05-5.15-6.43-8.76-12.1-9.12l-601.36.19Z"/>
  <path d="M320.52,273.3c2.03-2.03,5.36-3.64,8.28-3.69,20.99,1.46,44.37-1.85,65.06,0,18.34,1.64,10.62,28.41,14.34,40.4,60.3-65.04,175.77-67.93,231.91,4.18,24.4,31.35,33.76,69.78,36.03,109.04l-.57,251.32c-2.01,5.37-6.6,8.28-12.12,9.09-22.78-1.49-48.02,1.97-70.51.02-7.53-.65-13.33-4.73-14.03-12.66l.06-232.03c-2.16-40.63-14.45-84.92-60.78-91.82-50.45-7.52-90.46,24.96-99.87,73.56-2.6,84.33.86,169.19-1.75,253.49-2.15,5.86-6.97,8.93-13.12,9.46-22.49,1.93-47.71-1.49-70.5-.03-8.06-.81-13.13-6.71-13.38-14.68-1.5-111.66,2.4-223.79-.69-335.3-.42-15.08-1.72-30.18-2.06-45.16-.13-5.68-.6-10.88,3.7-15.18ZM649.42,656.27l.03-219.35c-1.1-34.78-6.17-69.99-25.88-99.35-46.99-69.99-157.72-63.83-205.32,2.34-4.01,5.57-8.84,16.96-14.81,19.4-7.91,3.23-17.07.03-19.89-8.22l-3.74-53.06-1.03-1.71h-33.87l2.09,56.42-.03,303.52h43.11l-.03-224.82c3.95-70.99,64.45-124.04,136.34-110.28,60.09,11.5,79.39,69.38,79.95,123.97l-.71,211.13h43.79Z"/>
  <path d="M226.28,273.3c2.03,2.03,3.64,5.35,3.69,8.28l-.19,391.28c-1.6,6.27-6.18,9.96-12.57,10.7-22.35,2.59-49.45-1.64-72.28-.11-6.77-1.19-11.55-5.38-12.18-12.45l.19-390.6c1.36-5.36,5.39-10.16,11.13-10.77,23.27-2.5,50.86,1.87,74.59,0,2.68.26,5.75,1.79,7.62,3.67ZM203.26,656.27v-358.91l-1.03-1.03h-41.74l-1.03,1.03v358.91h43.79Z"/>
  <path d="M179.18,116.55c74.67-2.15,79.47,108.43,7.99,114.07-81.82,6.46-83.22-111.91-7.99-114.07ZM177.11,143.92c-36.88,4.46-34.43,62.64,5.96,60.01,12.3-.8,25.38-8.91,27.42-21.85,3.56-22.62-9.24-41.08-33.37-38.16Z"/>
</svg>