<?xml version="1.0" encoding="UTF-8"?>
<svg id="Layer_1" xmlns="http://www.w3.org/2000/svg" version="1.1" viewBox="0 0 1200 403">
  <!-- Generator: Adobe Illustrator 29.5.1, SVG Export Plug-In . SVG Version: 2.1.0 Build 141)  -->
  <defs>
    <style>
      .st0 {
        fill: #004c6d;
      }

      .st1 {
        fill: #fff;
      }

      .st2 {
        font-family: Avenir-Light, Avenir;
        font-size: 68.55px;
        font-weight: 300;
      }

      .st2, .st3 {
        display: none;
      }
    </style>
  </defs>
  <g id="Signature_White">
    <path class="st1" d="M1199.08,183.93c-5.88-.95-7.28,3.35-10.71,6.49-9.7,8.9-33.64,27.75-47.19,20.28-6.8-3.75-7.57-11.59-7.05-18.61,10.02-.84,21.79-9.46,27.08-17.77,3.4-5.35,7.65-15.38-.09-19-16.25-7.59-37.24,19.78-37.65,34.51-9.54,9.32-33.78,28.41-47.58,20.88-6.22-3.39-7.73-12.15-7.03-18.62,12.31-.49,31.3-16.5,31.49-29.07.14-9.43-10.13-10.26-17.08-7.58-20.77,7.99-35.9,44.74-16.07,60.6,18.08,14.47,42.08-3.63,56.37-15.32,3.03,17.16,18.49,23.82,34.56,18.93,11.69-3.55,31.07-17.82,39.11-27.08,2.14-2.46,3.9-5.5,1.84-8.65h0ZM1156.68,163.34c-.16,6.41-6.06,11.71-10.88,15.24-.97.71-8.85,5.74-9.27,5.36,3.49-8.79,10.75-17.88,20.15-20.6ZM1091.9,163.34c-1.76,10.26-11.79,16-20.15,20.6,2.7-8.88,10.89-18.4,20.15-20.6Z"/>
    <path class="st1" d="M1112.87,363.8c-38.65-26.58-73.2-58.49-110.28-87.07-5.29-4.08-10.93-8.64-16.4-12.38-2.73-1.86-18.95-11.07-19.45-12.68-.01-5.42,1.01-10.8,1.37-16.18.66-10.06-2.33-15.01,6.48-22.28,6.52-5.39,13.82-9.89,20.38-15.59,33.95-29.49,70.33-67.33,88.71-108.86,14.91-33.68,16.21-79.52-28.64-87.72-45.02-8.23-97.99,34.1-122.86,68.22-22.72,31.18-48.59,79.77-45.67,119.23.65,8.79,3.43,17.26,14.04,15.47,5.92-1,9.77-9.03,3.44-9.93-3.17-.45-5.25,2.58-6.95-1.18-3.83-8.49,1.77-33.56,4.59-42.92,10.63-35.28,42.99-88.99,73.99-109.65.45-.3,3.89-2.86,3.98-1.29-8.02,27.41-13.05,55.68-17.18,83.95-3.92,26.81-8.15,56.83-7.72,83.77.05,3.42-.73,4.36-3.24,6.4-8.33,6.79-25.43,16.87-35.18,21.9-3.82,1.97-14.42,5.42-16.02,8.9-1.1,2.38-1.22,4.77.87,6.7,3.45,3.19,11.04-.22,15.39-.5,5.38-.35,13.2.97,18.56,2.06,2.41.49,15.57,3.72,16.15,5.44.1,24.43-1.44,48.78-.91,73.27.25,11.69.52,25.35,1.47,36.87.58,7.04,2.35,26.28,11.31,27.54,9.98,1.4,4.65-14.38,4.1-19.45-.79-7.32-.75-14.65-1-22-.86-24.87-2.02-54.37-.52-79.07.17-2.74,1.19-5.56.98-8.37.93-.96,7.81,3.34,9.08,4.12,5.64,3.46,11.47,7.99,16.79,11.99,25.02,18.85,48.92,39.85,73.74,59.11,11.57,8.98,26.71,22.02,39.25,28.86,3.32,1.81,4.85,2.51,8.51.58-.11-2.52.45-5.06-1.14-7.23l-.02-.03ZM971.5,178.49c5.21-47.81,13.04-92.78,22.75-139.74.62-3.02,1.22-10.76,2.48-12.81,1.21-1.96,14.86-7.6,17.79-8.64,31.8-11.34,68.59-6.54,63.94,35.57-4.64,42.03-49.49,94.44-79.65,122.69-7.85,7.35-17.83,16.3-26.74,22.18-.67.44-1.18,1.18-2.06,1.06-.09-6.78.76-13.56,1.5-20.3h0ZM952.24,233.06v12.7l-18.71-5.03c6.09-4.41,12.59-8.64,19.66-11.26.46.59-.96,3.05-.96,3.59h.01Z"/>
    <path class="st1" d="M878.37,185.65c-5.24,4.57-11.15,14.83-16.81,20.59-11.29,11.49-39.79,30.54-47.39,5.6-3.82-12.52,1.64-31.5,10.18-41.32.69-.79,4.23-4.66,5.04-3.83.7,9.01,8.74,10.26,8.94-.32.27-14.53-12.9-14.48-21.9-7.11-18.07,14.8-26.03,52.65-5.98,68.76,14.79,11.88,34.66,3.2,47.49-7.19,6.65-5.38,22.56-21.72,26.08-29.06,2.78-5.81-.24-10.83-5.65-6.12h0Z"/>
    <path class="st1" d="M794.6,34.91c-4-4.67-9.29-5.07-14.5-2-13.61,8.02-33.2,46.32-40.39,61.26-20.96,43.56-33.26,90.19-51.06,134.95-2.37,5.96-4.86,12.29-9.72,16.65-1.25-10.11-2.02-20.23-1.7-30.45.71-22.91,6.35-52.44,2.27-74.58-1.58-8.55-7.63-12.62-15.36-7.02-10.43,7.56-24,42.38-28.65,55.26-14.1,39.05-21.55,79.49-33.46,118.98-1.3,4.3-6.47,21.38-8.76,23.84-.69.74-1.6,1.21-2.63,1.2-2.02-7.63-3.51-15.48-4.51-23.32-3.22-25.44-2.61-51.09-1.49-76.59,2.56-58.05,10.12-115.72,24.59-171.92,1.19-4.63,6.49-18.47,4.14-22.13-.76-1.18-3.45-1.93-4.77-1.53-4.36,1.32-9.43,17.04-10.78,21.37-17.72,56.88-25.65,133.29-26.66,192.86-.33,19.41,1.98,72.55,12.1,88.12,3.09,4.76,8.87,7.21,13.67,3.03,4.97-4.33,12.27-27.93,14.43-35.19,14.32-48.15,23.46-115.81,50.51-157.54.81-1.25,6.93-10.64,8.65-8.85.73,5.2.72,10.34.48,15.57-1.19,25.93-8.52,63.51-2.25,88.04,1.67,6.54,6.53,16.13,14.49,10.44,14.12-10.09,27.21-60.77,33.35-78.36,13.64-39.08,32.5-89.26,56.53-122.78,3.52-4.91,7.92-10.15,13.54-12.59,1.87,7.45,1.81,16.02,1.46,23.74-1.67,37.69-11.84,78.77-17.23,116.5-9.6,67.27-13.31,134.81-17.85,202.62.94,4.75-.29,10.73,1.7,15.12,1.02,2.24,4.06,4.6,6.35,2.73,1.06-.87,1.91-3.97,2.05-5.37.97-9.51-.03-21.15.48-31.15,1.8-35.39,5.95-73.88,10.14-109.2,6.79-57.2,19.12-114.61,25.37-171.62,1.37-12.49,3.88-40.22-4.55-50.08h.02Z"/>
    <path class="st1" d="M489.14,191.86c-10.14,8.86-36.71,29.88-48.97,15.82-3.64-4.17-4.3-9.78-3.62-15.14,12.48-1.62,31.78-17.09,31.48-30.38-.09-4.04-3.57-7.35-7.5-7.89-18.74-2.57-37.84,26.1-34.74,43.34-9.05,17.54-16.29,37.74-26.32,54.7-2.57,4.34-6.09,8.84-10.63,11.18-6.61-18.14-5.4-39.61-3.84-58.7,2.14-26.25,6.95-56.07,13.28-81.62,1.6-6.47,4.76-13.93,5.78-20.1.33-2.01.85-5.97-.49-7.65-1.58-1.99-5.27-2.01-7.3-.61-5.99,4.11-10.75,25.62-12.48,33.06-7.29,31.23-11.08,64.02-10.29,96.07.28,11.47.32,39.11,11.25,45.79,9.17,5.61,15.45-4.86,19.65-11.55,9.67-15.4,15.42-33.02,23.32-49.32.87-.64,2.33,2.48,2.88,3.1,19.29,21.83,48.64.1,64.55-15.07,3.73-3.56,8.71-7.25,6.94-12.95-6.24-1.26-8.91,4.39-12.94,7.91h-.01ZM459.37,163.34c-1.5,10.27-11.82,16.09-20.15,20.6,2.83-8.9,10.83-18.28,20.15-20.6Z"/>
    <path class="st1" d="M349.49,171.71c2.21-3.79,7.81-6.8,3.83-11.49-5.85-6.9-14.47,5.63-17.19,10.16-2.32,3.86-4.27,10.19-6.39,13.27-.69,1-2.14,1.34-3.01,2.26-5.59,5.93-10.21,13.73-16.11,19.85-11.38,11.8-40.61,31.42-47.97,5.71-3.56-12.42,1.92-31.22,10.28-40.95.68-.79,4.24-4.66,5.04-3.83-.75,3.1,3.97,9.58,7.08,6.59,1.99-1.92,2.06-8.45,1.51-11.09-1.05-5.07-4.93-8.24-10.2-7.91-13.16.82-22.66,18.1-26.59,29.06-.83,2.33-1.3,6.42-2.31,8.23-1.06,1.9-6.07,6.71-7.87,8.91-7.29,8.95-21.58,26.52-33.48,28.38-9.45,1.49-12.59-15.76-13.08-22.65-1.09-15.32,3.75-26.83,4.73-40.79.18-2.58.06-5.65-2.8-6.67-7.54-2.69-10.1,5.07-11.78,10.8-5.08,17.33-6.75,50.91,7.67,64.22,11.38,10.52,24.76,4.19,34.81-4.56,7.91-6.88,14.85-15.65,22.06-23.25,4.93,30.37,31.04,34.37,54.1,18.32,7.75-5.4,12.56-12.04,19.31-18.09.48-.43.67-.89,1.45-.7-2.63,8.4-3.82,16.8-1.78,25.49,2.31,9.81,10.15,17.05,20.33,11.48,15.28-8.35,22.69-40.02,17.57-55.56-2-6.08-6.47-9.79-9.24-15.22l.03.03ZM348.99,201.43c-.69,9.67-4.67,25.72-14.38,29.96-3.49-9.32-.86-19.34,1.9-28.52,1.98-6.59,4.72-13.28,7.08-19.78.17-.46-.1-1.43.84-1.05,4.34,1.76,4.84,15.43,4.56,19.4h0Z"/>
    <path class="st1" d="M210.8,119.48c-.3-6.26-6.16-15.78-12.81-9.64-2.44,2.25-4.04,7.35-4.04,10.61.02,13.46,17.48,11.95,16.85-.97h0Z"/>
    <path class="st1" d="M160.45,50.42c-.48-3.54-.67-15.14-2.61-17.28-2.49-2.74-6.73-.25-7.07,3.42-.38,4.1.56,10.58.99,14.87,1.5,15.19,4.33,30.32,5.75,45.53,5.71,60.91-7.56,131.25-23.17,190.11-5.2,19.6-11.88,45.3-21.38,63-2.33,4.34-9.09,16.2-14.68,9.7-7.85-9.12-14.23-49.02-16.05-62.09-7.24-52.06-8.56-104.76-12.55-157.11-1-13.08-4.27-48.37-10.94-58.56-3.35-5.13-9.8-6.01-14.01-1.34-5.12,5.68-10.33,27.38-12.44,35.5-14.14,54.46-24.57,113.01-29.31,169.13-2.49,29.44-4.49,60.66-1.44,90.08.29,2.81.32,7.58,3.01,8.97,2.7,1.4,4.89,1.02,5.87-2.01,1.89-5.85-.48-16.34-.75-22.75-1.6-38.41,3.59-85.84,9.22-124.06,6.93-47.1,16.83-94.63,30.16-140.25.66-.52,2.12,4.63,2.25,5.17,3.51,14.16,3.09,31.72,3.99,46.34,2.85,46.52,5.45,93.25,12.55,139.38,2.88,18.71,11.16,69.76,24.86,82.04,4.81,4.31,12.78,4.43,17.77.47,13.93-11.02,25.71-53.92,30.57-71.54,15.19-55.09,27.83-118.05,26.99-175.24-.36-24.76-4.31-47.14-7.6-71.48h.02Z"/>
  </g>
  <text class="st2" transform="translate(140.5 352.29)"><tspan x="0" y="0">CONSULTING</tspan></text>
  <g class="st3">
    <rect x="59.5" y="124" width="1081" height="155"/>
    <path class="st1" d="M987,237.5v-82.25c0-.45,1.06-3.05,1.48-3.52,2.71-3.05,8.5-1.23,8.53,3.01v96.52c-1.03,6.2-7.75,5.86-11,1.47l-66.02-84.73v83.75c0,1.13-2.34,3.7-3.48,4.05-3.25.98-6.55-2.24-6.52-5.55l-.02-93.52c-.04-6.31,5.51-8.75,10.21-4.68l66.81,85.44Z"/>
    <path class="st1" d="M400,237.5v-84.25c0-.14,1.49-1.96,1.81-2.19,2.76-1.95,7.29-.36,7.71,3.17v97.03c-.68,5.63-6.97,6.03-10.28,2.25l-66.74-85.01v83.75c0,.15-1.45,2.41-1.65,2.6-2.54,2.33-7.72.56-7.86-3.08v-97.53c.94-4.73,6.18-5.23,9.51-2.48l66.09,84.91,1.41.84Z"/>
    <path class="st1" d="M233.4,148.65c44.33-4.26,68.73,39.47,53.34,78.34-18.01,45.47-83.57,38.84-95.98-7.48-8.32-31.06,8.2-67.54,42.64-70.85ZM238.9,158.15c-55.21,1.48-53.24,91.51,2.88,89.87,55.06-1.61,51.34-91.33-2.88-89.87Z"/>
    <path class="st1" d="M1084.25,211.5c-4.52-1-4.99-7.92-.39-9.39l34.4-.12c1.73.21,4.29,1.27,4.26,3.24-.92,12.05,1.14,25.7,0,37.55-.44,4.55-5.05,6.33-8.85,8.15-43.16,20.73-90.98-5.07-84.62-55.62,4.98-39.58,40.85-53.61,76.55-43.67,1.86.52,8.64,2.53,9.74,3.52,2.76,2.49.72,8.2-3.16,8.32-5.59-1.21-10.9-3.46-16.58-4.33-36.45-5.63-64.2,18.29-55.97,55.97,7.55,34.56,45.81,39.78,73.36,25.39v-29h-28.75Z"/>
    <path class="st1" d="M554.37,150.1c3.5-.34,5.31,2.55,5.62,5.65,1.95,19.5-1.37,42.15-.01,62.01,1.62,23.68,22.37,34.02,44.12,29.08,14.77-3.36,22.93-14.79,23.92-29.58,1.36-20.28-1.09-42.04.03-62.47.67-3.57,3.41-5.67,6.96-4.04,2.75,1.26,2.82,3.22,3.02,5.98,1.19,16.59.8,40.26,0,57.04-1.54,32.38-21.88,48.33-54.11,43.07-48.32-7.89-30.53-67.72-33.91-101.59.03-2.35,2.02-4.92,4.37-5.15Z"/>
    <path class="st1" d="M444.17,247.83c-3.37-3.5-.18-9.8,5.6-7.85,6.54,2.21,10.88,5.47,18.61,6.89,15.21,2.79,42.98.77,40.07-21.07-3.27-24.51-51.55-16.39-61.2-40.8-7.37-18.65,7.16-34.53,25.5-35.98,9.28-.73,28.84,1.6,36.72,6.77,3.67,2.41,2.18,8.22-1.77,8.72-2.51.32-7.79-2.55-10.6-3.35-12.06-3.46-36.42-5.31-41.36,9.87-4.4,13.54,10.53,20.17,20.75,23.24,19.04,5.73,44.1,9.98,41.93,36.44-2.23,27.18-33.36,29.85-54.44,25.07-4.08-.93-17.18-5.19-19.82-7.93Z"/>
    <path class="st1" d="M124.4,148.65c9.71-.93,26.55.46,34.95,5.76,4.98,3.14,3.65,8.2-1.6,9.53-4.91-1.49-9.51-3.9-14.63-4.8-32.46-5.67-59.21,15.34-56.61,49.11,2.61,33.9,35.47,46.11,64.98,36.5,3.52-1.15,9.02-5.54,11.46.06,3.12,7.18-11.88,10.58-16.85,11.55-36.58,7.17-69.17-13.13-69.62-52.08-.32-27.68,19.83-52.93,47.91-55.63Z"/>
    <path class="st1" d="M790.5,160v91.75c0,1.13-2.35,3.7-3.48,4.05-2.58.78-6.52-1.89-6.52-4.55v-91.25h-37.25c-.53,0-3.32-1.7-3.7-2.3-2.05-3.31.49-7.48,4.24-7.65l85.23.18c6.72,1.4,4.04,9.78.22,9.78h-38.75Z"/>
    <path class="st1" d="M684,246h49.25c.5,0,3.09,1.41,3.54,1.96,2.42,2.98.2,7.69-3.58,7.99l-53.46.05c-2-.23-4.11-1.11-4.96-3.02l-.26-98.71c1.06-6.39,9.48-3.93,9.48-1.03v92.75Z"/>
    <path class="st1" d="M864.87,150.1c4.2-.4,5.41,3.24,5.65,6.63,2.15,29.91-1.67,62.36,0,92.54.04,6.38-5.88,9.36-9.64,3.6l-.38-97.62c.03-2.35,2.02-4.92,4.37-5.15Z"/>
    <path d="M238.9,158.15c54.22-1.46,57.94,88.26,2.88,89.87-56.11,1.64-58.09-88.39-2.88-89.87Z"/>
  </g>
  <g id="Consulting">
    <rect class="st0" x="151" y="280.13" width="415.75" height="61.37"/>
    <g id="Text">
      <path id="G" class="st1" d="M542.55,314.1c-2.18-.36-2.39-3.4-.14-3.75,3.84.15,8.06-.35,11.85-.05.92.07,2.31.24,2.43,1.35-.41,4.56.52,10.01,0,14.46-.16,1.35-2.17,2.28-3.3,2.83-4.49,2.17-10.01,3.03-14.96,2.47-24.71-2.8-23.1-43.14,5.38-41.33,2.35.15,7.58,1.2,9.64,2.25,1.71.87,1.08,3.77-1.33,3.33s-4.65-1.53-7.41-1.79c-13.06-1.24-22,7.97-19.46,21.13,2.58,13.33,17.37,15.72,27.83,9.84v-10.74h-10.54Z"/>
      <path id="N" class="st1" d="M505.53,323.85v-31.87c0-.2.69-.93.95-1.04.97-.4,2.02-.12,2.52.81l.14,37.43c-.33,1.87-2.4,2.25-3.7,1-7.94-10.26-15.76-20.65-23.87-30.79-.39-.49-.79-1.02-1.2-1.49-.11-.12.01-.35-.41-.23v31.87c0,.05-.44.79-.55.89-.92.86-2.35.31-2.92-.67l-.14-37.25c.19-1.96,2.35-2.21,3.68-1.15l24.99,32.18.51.3Z"/>
      <path id="I" class="st1" d="M458.04,330.29c-.19-.2-.31-.5-.41-.76-.45-12.05-.06-24.2-.2-36.29-.1-2.77,3.17-3.55,3.79-.72v36.48c-.15,1.65-1.97,2.53-3.19,1.29Z"/>
      <path id="T" class="st1" d="M430.96,294.42v35.12c0,.59-1.13,1.33-1.71,1.33-.55,0-1.89-.79-1.89-1.33v-35.12h-14.5c-.06,0-.89-.56-.99-.68-.83-.99-.28-2.72,1-2.92l33.23.07c1.11.51,1.41,1.74.75,2.76-.11.17-.78.77-.85.77h-15.04Z"/>
      <path id="L" class="st1" d="M390.8,327.1h18.46c.16,0,1.1.38,1.27.54,1.13,1.01.4,3.09-1.1,3.25h-20.34c-1.51-.16-1.96-1-2.08-2.42v-35.4c.08-1.57,1.01-2.74,2.7-2.16.34.12,1.09.96,1.09,1.25v34.94Z"/>
      <path id="U" class="st1" d="M370.15,291.23c.6-.6,1.84-.58,2.5-.07.47.36.67,1.33.68,1.89.22,7.77.05,16.47-.19,24.2-.78,7.29-4.96,12.74-12.39,13.94-11.07,1.79-20.55-3.41-20.76-15.2-.14-7.7-.03-15.93.08-23.77.46-2.15,3.53-1.89,3.69.3.08,7.95-.21,16.11,0,23.83.27,9.48,9.3,13.26,17.75,10.74,5.16-1.54,7.98-5.87,8.02-11.1.05-7.56.07-15.72-.01-23.13,0-.55.21-1.25.61-1.65Z"/>
      <path id="S" class="st1" d="M310.79,290.32c3.55-.32,7.57.25,10.94,1.38,1.45.49,4.28,1.17,3.68,3.15-.79,2.63-3.83.51-5.58.02-3.83-1.07-10.14-1.64-13.41,1-2.45,1.97-3.03,4.76-1.33,7.46,3.86,6.13,17.7,3.55,21.89,12.18,2.85,5.87.13,12.6-5.89,14.93-5.3,2.06-16.01,1.01-20.7-2.36-1.71-1.23-.95-3.27.96-3.5,2.61,1.17,4.96,2.3,7.82,2.82,5.48.99,15.73.46,15.17-7.44-.77-10.86-22.85-5.79-23.94-18.98-.5-6.11,4.76-10.17,10.39-10.67Z"/>
      <path id="N1" data-name="N" class="st1" d="M283.09,323.85v-31.15c0-2.28,3.48-2.78,3.79-.18v36.48c-.26,2.13-2.58,2.46-3.88.99l-25.3-32.33v31.87c0,.14-.63.87-.81.99-1.1.74-2.58.12-2.8-1.17v-37.03c.24-1.99,3.03-2.03,3.97-.53l25.04,32.05Z"/>
      <path id="O" class="st1" d="M208.76,295.74c5.33-5.67,14.17-7.17,21.31-4.25,19.61,8.03,14.51,42.81-9.76,39.94-16.73-1.98-22.45-24.09-11.56-35.69ZM222.71,293.74c-20.6.12-20.86,32.76-1.14,34.08,22.46,1.51,21.82-34.21,1.14-34.08Z"/>
      <path id="C" class="st1" d="M179.3,290.14c3.37-.28,7.38.09,10.58,1.21,1.65.57,4.39,1.5,3.12,3.68-1.09,1.87-3.22.17-4.69-.29-13.73-4.37-26.23,5.86-23.32,20.31,2.16,10.74,12.65,14.59,22.54,12.05,1.55-.4,4.34-2.09,5.57-1.04,3.33,2.83-5.01,4.9-6.69,5.16-15.12,2.31-26.41-6.56-25.45-22.26.6-9.75,8.65-17.99,18.34-18.81Z"/>
    </g>
  </g>
</svg>