<?xml version="1.0" encoding="UTF-8"?>
<svg xmlns="http://www.w3.org/2000/svg" version="1.1" viewBox="0 0 1200 518">
  <!-- Generator: Adobe Illustrator 29.5.1, SVG Export Plug-In . SVG Version: 2.1.0 Build 141)  -->
  <defs>
    <style>
      .st0 {
        fill: #004c6d;
      }

      .st1 {
        stroke: #fff;
        stroke-miterlimit: 10;
        stroke-width: 4px;
      }

      .st1, .st2 {
        fill: #fff;
      }

      .st3 {
        display: none;
      }
    </style>
  </defs>
  <g id="Layer_2" class="st3">
    <rect class="st0" width="1200" height="517.56"/>
  </g>
  <g id="Layer_1">
    <g id="Signature_White">
      <path class="st2" d="M1199.08,183.6c-5.88-.95-7.28,3.34-10.71,6.48-9.7,8.88-33.64,27.7-47.19,20.24-6.8-3.74-7.57-11.57-7.05-18.58,10.02-.84,21.79-9.44,27.08-17.74,3.4-5.34,7.65-15.35-.09-18.97-16.25-7.58-37.24,19.74-37.65,34.45-9.54,9.3-33.78,28.36-47.58,20.84-6.22-3.38-7.73-12.13-7.03-18.59,12.31-.49,31.3-16.47,31.49-29.02.14-9.41-10.13-10.24-17.08-7.57-20.77,7.98-35.9,44.66-16.07,60.49,18.08,14.44,42.08-3.62,56.37-15.29,3.03,17.13,18.49,23.78,34.56,18.9,11.69-3.54,31.07-17.79,39.11-27.03,2.14-2.46,3.9-5.49,1.84-8.63h0ZM1156.68,163.04c-.16,6.4-6.06,11.69-10.88,15.21-.97.71-8.85,5.73-9.27,5.35,3.49-8.77,10.75-17.85,20.15-20.56ZM1091.9,163.04c-1.76,10.24-11.79,15.97-20.15,20.56,2.7-8.86,10.89-18.37,20.15-20.56Z"/>
      <path class="st2" d="M1112.87,363.14c-38.65-26.53-73.2-58.38-110.28-86.91-5.29-4.07-10.93-8.62-16.4-12.36-2.73-1.86-18.95-11.05-19.45-12.66-.01-5.41,1.01-10.78,1.37-16.15.66-10.04-2.33-14.98,6.48-22.24,6.52-5.38,13.82-9.87,20.38-15.56,33.95-29.44,70.33-67.21,88.71-108.66,14.91-33.62,16.21-79.38-28.64-87.56-45.02-8.22-97.99,34.04-122.86,68.1-22.72,31.12-48.59,79.63-45.67,119.02.65,8.77,3.43,17.23,14.04,15.44,5.92-1,9.77-9.01,3.44-9.91-3.17-.45-5.25,2.58-6.95-1.18-3.83-8.47,1.77-33.5,4.59-42.84,10.63-35.22,42.99-88.83,73.99-109.45.45-.3,3.89-2.85,3.98-1.29-8.02,27.36-13.05,55.58-17.18,83.8-3.92,26.76-8.15,56.73-7.72,83.62.05,3.41-.73,4.35-3.24,6.39-8.33,6.78-25.43,16.84-35.18,21.86-3.82,1.97-14.42,5.41-16.02,8.88-1.1,2.38-1.22,4.76.87,6.69,3.45,3.18,11.04-.22,15.39-.5,5.38-.35,13.2.97,18.56,2.06,2.41.49,15.57,3.71,16.15,5.43.1,24.39-1.44,48.69-.91,73.14.25,11.67.52,25.3,1.47,36.8.58,7.03,2.35,26.23,11.31,27.49,9.98,1.4,4.65-14.35,4.1-19.41-.79-7.31-.75-14.62-1-21.96-.86-24.83-2.02-54.27-.52-78.93.17-2.74,1.19-5.55.98-8.35.93-.96,7.81,3.33,9.08,4.11,5.64,3.45,11.47,7.98,16.79,11.97,25.02,18.82,48.92,39.78,73.74,59,11.57,8.96,26.71,21.98,39.25,28.81,3.32,1.81,4.85,2.51,8.51.58-.11-2.52.45-5.05-1.14-7.22l-.02-.03ZM971.5,178.17c5.21-47.72,13.04-92.61,22.75-139.49.62-3.01,1.22-10.74,2.48-12.79,1.21-1.96,14.86-7.59,17.79-8.62,31.8-11.32,68.59-6.53,63.94,35.51-4.64,41.95-49.49,94.27-79.65,122.47-7.85,7.34-17.83,16.27-26.74,22.14-.67.44-1.18,1.18-2.06,1.06-.09-6.77.76-13.54,1.5-20.26h0ZM952.24,232.64v12.68l-18.71-5.02c6.09-4.4,12.59-8.62,19.66-11.24.46.59-.96,3.04-.96,3.58h.01Z"/>
      <path class="st2" d="M878.37,185.31c-5.24,4.56-11.15,14.8-16.81,20.55-11.29,11.47-39.79,30.48-47.39,5.59-3.82-12.5,1.64-31.44,10.18-41.25.69-.79,4.23-4.65,5.04-3.82.7,8.99,8.74,10.24,8.94-.32.27-14.5-12.9-14.45-21.9-7.1-18.07,14.77-26.03,52.56-5.98,68.64,14.79,11.86,34.66,3.19,47.49-7.18,6.65-5.37,22.56-21.68,26.08-29.01,2.78-5.8-.24-10.81-5.65-6.11h0Z"/>
      <path class="st2" d="M794.6,34.85c-4-4.66-9.29-5.06-14.5-2-13.61,8.01-33.2,46.24-40.39,61.15-20.96,43.48-33.26,90.03-51.06,134.71-2.37,5.95-4.86,12.27-9.72,16.62-1.25-10.09-2.02-20.19-1.7-30.4.71-22.87,6.35-52.35,2.27-74.45-1.58-8.53-7.63-12.6-15.36-7.01-10.43,7.55-24,42.3-28.65,55.16-14.1,38.98-21.55,79.35-33.46,118.77-1.3,4.29-6.47,21.34-8.76,23.8-.69.74-1.6,1.21-2.63,1.2-2.02-7.62-3.51-15.45-4.51-23.28-3.22-25.39-2.61-51-1.49-76.45,2.56-57.95,10.12-115.51,24.59-171.61,1.19-4.62,6.49-18.44,4.14-22.09-.76-1.18-3.45-1.93-4.77-1.53-4.36,1.32-9.43,17.01-10.78,21.33-17.72,56.78-25.65,133.05-26.66,192.51-.33,19.38,1.98,72.42,12.1,87.96,3.09,4.75,8.87,7.2,13.67,3.02,4.97-4.32,12.27-27.88,14.43-35.13,14.32-48.06,23.46-115.6,50.51-157.26.81-1.25,6.93-10.62,8.65-8.83.73,5.19.72,10.32.48,15.54-1.19,25.88-8.52,63.4-2.25,87.88,1.67,6.53,6.53,16.1,14.49,10.42,14.12-10.07,27.21-60.66,33.35-78.22,13.64-39.01,32.5-89.1,56.53-122.56,3.52-4.9,7.92-10.13,13.54-12.57,1.87,7.44,1.81,15.99,1.46,23.7-1.67,37.62-11.84,78.63-17.23,116.29-9.6,67.15-13.31,134.57-17.85,202.25.94,4.74-.29,10.71,1.7,15.09,1.02,2.24,4.06,4.59,6.35,2.73,1.06-.87,1.91-3.96,2.05-5.36.97-9.49-.03-21.11.48-31.09,1.8-35.33,5.95-73.75,10.14-109,6.79-57.1,19.12-114.4,25.37-171.31,1.37-12.47,3.88-40.15-4.55-49.99h.02Z"/>
      <path class="st2" d="M489.14,191.51c-10.14,8.84-36.71,29.83-48.97,15.79-3.64-4.16-4.3-9.76-3.62-15.11,12.48-1.62,31.78-17.06,31.48-30.33-.09-4.03-3.57-7.34-7.5-7.88-18.74-2.57-37.84,26.05-34.74,43.26-9.05,17.51-16.29,37.67-26.32,54.6-2.57,4.33-6.09,8.82-10.63,11.16-6.61-18.11-5.4-39.54-3.84-58.59,2.14-26.2,6.95-55.97,13.28-81.47,1.6-6.46,4.76-13.9,5.78-20.06.33-2.01.85-5.96-.49-7.64-1.58-1.99-5.27-2.01-7.3-.61-5.99,4.1-10.75,25.57-12.48,33-7.29,31.17-11.08,63.9-10.29,95.9.28,11.45.32,39.04,11.25,45.71,9.17,5.6,15.45-4.85,19.65-11.53,9.67-15.37,15.42-32.96,23.32-49.23.87-.64,2.33,2.48,2.88,3.09,19.29,21.79,48.64.1,64.55-15.04,3.73-3.55,8.71-7.24,6.94-12.93-6.24-1.26-8.91,4.38-12.94,7.9h-.01ZM459.37,163.04c-1.5,10.25-11.82,16.06-20.15,20.56,2.83-8.88,10.83-18.25,20.15-20.56Z"/>
      <path class="st2" d="M349.49,171.4c2.21-3.78,7.81-6.79,3.83-11.47-5.85-6.89-14.47,5.62-17.19,10.14-2.32,3.85-4.27,10.17-6.39,13.25-.69,1-2.14,1.34-3.01,2.26-5.59,5.92-10.21,13.71-16.11,19.81-11.38,11.78-40.61,31.36-47.97,5.7-3.56-12.4,1.92-31.16,10.28-40.88.68-.79,4.24-4.65,5.04-3.82-.75,3.09,3.97,9.56,7.08,6.58,1.99-1.92,2.06-8.43,1.51-11.07-1.05-5.06-4.93-8.23-10.2-7.9-13.16.82-22.66,18.07-26.59,29.01-.83,2.33-1.3,6.41-2.31,8.22-1.06,1.9-6.07,6.7-7.87,8.89-7.29,8.93-21.58,26.47-33.48,28.33-9.45,1.49-12.59-15.73-13.08-22.61-1.09-15.29,3.75-26.78,4.73-40.72.18-2.58.06-5.64-2.8-6.66-7.54-2.69-10.1,5.06-11.78,10.78-5.08,17.3-6.75,50.82,7.67,64.1,11.38,10.5,24.76,4.18,34.81-4.55,7.91-6.87,14.85-15.62,22.06-23.21,4.93,30.32,31.04,34.31,54.1,18.29,7.75-5.39,12.56-12.02,19.31-18.06.48-.43.67-.89,1.45-.7-2.63,8.38-3.82,16.77-1.78,25.44,2.31,9.79,10.15,17.02,20.33,11.46,15.28-8.33,22.69-39.95,17.57-55.46-2-6.07-6.47-9.77-9.24-15.19l.03.03ZM348.99,201.07c-.69,9.65-4.67,25.67-14.38,29.91-3.49-9.3-.86-19.31,1.9-28.47,1.98-6.58,4.72-13.26,7.08-19.74.17-.46-.1-1.43.84-1.05,4.34,1.76,4.84,15.4,4.56,19.37h0Z"/>
      <path class="st2" d="M210.8,119.26c-.3-6.25-6.16-15.75-12.81-9.62-2.44,2.25-4.04,7.34-4.04,10.59.02,13.44,17.48,11.93,16.85-.97h0Z"/>
      <path class="st2" d="M160.45,50.33c-.48-3.53-.67-15.11-2.61-17.25-2.49-2.74-6.73-.25-7.07,3.41-.38,4.09.56,10.56.99,14.84,1.5,15.16,4.33,30.27,5.75,45.45,5.71,60.8-7.56,131.01-23.17,189.77-5.2,19.56-11.88,45.22-21.38,62.89-2.33,4.33-9.09,16.17-14.68,9.68-7.85-9.1-14.23-48.93-16.05-61.98-7.24-51.97-8.56-104.57-12.55-156.83-1-13.06-4.27-48.28-10.94-58.45-3.35-5.12-9.8-6-14.01-1.34-5.12,5.67-10.33,27.33-12.44,35.44-14.14,54.36-24.57,112.81-29.31,168.83-2.49,29.39-4.49,60.55-1.44,89.92.29,2.8.32,7.57,3.01,8.95,2.7,1.4,4.89,1.02,5.87-2.01,1.89-5.84-.48-16.31-.75-22.71-1.6-38.34,3.59-85.69,9.22-123.84,6.93-47.02,16.83-94.46,30.16-140,.66-.52,2.12,4.62,2.25,5.16,3.51,14.13,3.09,31.66,3.99,46.26,2.85,46.44,5.45,93.08,12.55,139.13,2.88,18.68,11.16,69.63,24.86,81.89,4.81,4.3,12.78,4.42,17.77.47,13.93-11,25.71-53.82,30.57-71.41,15.19-54.99,27.83-117.84,26.99-174.92-.36-24.72-4.31-47.06-7.6-71.35h.02Z"/>
    </g>
    <g class="st3">
      <path class="st1" d="M90.9,544.08c-4.01,0-7.51-.62-10.52-1.86-3.01-1.24-5.5-2.94-7.48-5.11-1.98-2.17-3.46-4.71-4.44-7.64-.98-2.93-1.47-6.08-1.47-9.47,0-2.81.49-5.64,1.47-8.5.98-2.86,2.46-5.44,4.44-7.75,1.98-2.31,4.47-4.19,7.48-5.64,3.01-1.45,6.51-2.18,10.52-2.18,1.57,0,3.02.04,4.33.11,1.31.07,2.56.19,3.76.36,1.19.17,2.36.38,3.51.64,1.15.26,2.34.56,3.58.89.05,1.29.21,2.86.5,4.72.29,1.86.67,3.74,1.15,5.64-.38.19-.76.29-1.15.29s-.73-.05-1.04-.14c-.31-.09-.51-.36-.61-.79-.86-3.14-2.22-5.38-4.08-6.72-1.86-1.33-4.56-2-8.09-2-2.96,0-5.57.48-7.84,1.43-2.27.95-4.18,2.29-5.73,4-1.55,1.71-2.72,3.78-3.51,6.18-.79,2.41-1.18,5.08-1.18,8.04,0,3.29.5,6.31,1.5,9.07,1,2.76,2.35,5.14,4.04,7.14,1.69,2,3.67,3.55,5.94,4.64,2.27,1.1,4.69,1.64,7.26,1.64,2.05,0,3.78-.2,5.19-.61,1.41-.4,2.58-.99,3.51-1.75s1.72-1.7,2.36-2.82c.64-1.12,1.25-2.39,1.82-3.82.33-.71.91-1.07,1.72-1.07.24,0,.49.04.75.11.26.07.46.15.61.25-.57,1.67-1.15,3.5-1.72,5.5s-1.05,4-1.43,6c-2.34.38-4.72.68-7.16.89-2.43.21-5.11.32-8.02.32Z"/>
      <path class="st1" d="M178.22,520c0-3.29.6-6.38,1.79-9.29,1.19-2.9,2.81-5.45,4.87-7.64,2.05-2.19,4.44-3.93,7.16-5.22,2.72-1.29,5.58-1.93,8.59-1.93,4.15,0,7.78.66,10.88,1.96,3.1,1.31,5.66,3.07,7.69,5.29,2.03,2.21,3.54,4.78,4.54,7.68,1,2.9,1.5,5.95,1.5,9.14,0,3.76-.62,7.13-1.86,10.11-1.24,2.98-2.95,5.5-5.12,7.57-2.17,2.07-4.72,3.66-7.66,4.75s-6.07,1.64-9.41,1.64-6.49-.57-9.3-1.71c-2.82-1.14-5.24-2.77-7.26-4.89-2.03-2.12-3.6-4.65-4.72-7.61-1.12-2.95-1.68-6.24-1.68-9.86ZM202.84,540.65c2.24,0,4.29-.43,6.15-1.29s3.46-2.05,4.8-3.57c1.34-1.52,2.37-3.33,3.11-5.43.74-2.1,1.11-4.38,1.11-6.86,0-3.43-.36-6.61-1.07-9.54-.72-2.93-1.8-5.48-3.26-7.64-1.46-2.17-3.29-3.87-5.51-5.11-2.22-1.24-4.81-1.86-7.77-1.86-1.96,0-3.83.37-5.62,1.11-1.79.74-3.36,1.81-4.72,3.21-1.36,1.4-2.45,3.13-3.26,5.18-.81,2.05-1.22,4.41-1.22,7.07,0,3.52.38,6.8,1.15,9.82.76,3.03,1.87,5.64,3.33,7.86,1.45,2.21,3.26,3.94,5.4,5.18,2.15,1.24,4.6,1.86,7.37,1.86Z"/>
      <path class="st1" d="M333.3,531.86v-29.86c0-1.05-.38-1.79-1.15-2.21-.76-.43-2.05-.76-3.86-1-.53-.05-.79-.45-.79-1.21,0-.29.05-.67.14-1.14,1.19.1,2.41.18,3.65.25,1.24.07,2.41.11,3.51.11s2.15-.04,3.29-.11,2.27-.15,3.36-.25c.1.48.14.86.14,1.14,0,.76-.24,1.17-.72,1.21-1.62.24-2.73.57-3.33,1-.6.43-.89,1.12-.89,2.07v42.08c-.1.05-.26.08-.5.11-.24.02-.43.04-.57.04-.33,0-.64-.08-.93-.25-.29-.17-.62-.51-1-1.04l-29.06-38.22v33.65c0,.95.33,1.62,1,2,.67.38,1.96.74,3.86,1.07.48.1.72.48.72,1.14,0,.29-.05.67-.14,1.14-1.19-.1-2.4-.18-3.61-.25-1.22-.07-2.35-.11-3.4-.11-.95,0-2.08.04-3.36.11s-2.46.15-3.51.25c-.1-.48-.14-.86-.14-1.14,0-.67.26-1.05.79-1.14,1.72-.33,2.87-.69,3.47-1.07.6-.38.89-1.05.89-2v-36.72c0-.76-.28-1.35-.82-1.75-.55-.4-1.68-.73-3.4-.96-.53-.09-.79-.5-.79-1.21,0-.24.02-.45.07-.64,0-.14.02-.31.07-.5.95.1,1.86.17,2.72.21.76.05,1.57.08,2.43.11.86.02,1.62.04,2.29.04,1.38,0,2.3.05,2.76.14.45.1.82.33,1.11.71l25.69,34.22Z"/>
      <path class="st1" d="M442.16,508c-.48.1-.84.14-1.07.14-.62,0-1.07-.12-1.36-.36-.29-.24-.5-.5-.64-.79-1.24-2.72-2.72-4.69-4.44-5.93-1.72-1.24-4.06-1.86-7.01-1.86-1.15,0-2.23.15-3.26.46-1.03.31-1.92.76-2.68,1.36-.76.6-1.37,1.32-1.83,2.18-.45.86-.68,1.81-.68,2.86,0,2.24.94,4.07,2.83,5.5,1.88,1.43,4.66,2.88,8.34,4.36,4.58,1.81,7.96,3.82,10.13,6.04,2.17,2.22,3.26,4.94,3.26,8.18,0,1.95-.3,3.78-.89,5.47-.6,1.69-1.53,3.17-2.79,4.43-1.26,1.26-2.9,2.25-4.9,2.96-2,.71-4.41,1.07-7.23,1.07-2.96,0-5.64-.31-8.05-.93-2.41-.62-4.45-1.43-6.12-2.43-.14-2-.36-3.93-.64-5.79-.29-1.86-.62-3.72-1-5.57.33-.14.74-.22,1.22-.22.57,0,1.01.13,1.32.39.31.26.58.68.82,1.25,1.19,3.43,2.73,5.95,4.62,7.57,1.88,1.62,4.52,2.43,7.91,2.43,1.53,0,2.86-.22,4.01-.64s2.1-1.02,2.86-1.79c.76-.76,1.34-1.62,1.72-2.57.38-.95.57-1.98.57-3.07,0-2.48-.85-4.43-2.54-5.86-1.69-1.43-4.12-2.72-7.26-3.86-2.05-.76-3.91-1.56-5.58-2.39-1.67-.83-3.1-1.8-4.29-2.89-1.19-1.1-2.11-2.37-2.75-3.82-.64-1.45-.97-3.18-.97-5.18,0-1.76.32-3.42.97-4.97.64-1.55,1.57-2.89,2.79-4.04,1.22-1.14,2.68-2.05,4.4-2.72,1.72-.67,3.65-1,5.8-1s4.39.21,6.44.64c2.05.43,4.37,1.14,6.94,2.14.09,1.43.23,2.96.39,4.61.17,1.64.39,3.18.68,4.61Z"/>
      <path class="st1" d="M558.67,525.86c0,2.72-.31,5.18-.93,7.39-.62,2.21-1.66,4.13-3.11,5.75-1.46,1.62-3.38,2.87-5.76,3.75-2.39.88-5.37,1.32-8.95,1.32-4.1,0-7.42-.51-9.95-1.54-2.53-1.02-4.47-2.37-5.83-4.04-1.36-1.67-2.27-3.58-2.72-5.75-.45-2.17-.68-4.37-.68-6.61v-24.29c0-.95-.33-1.64-1-2.07-.67-.43-1.93-.76-3.79-1-.48-.05-.72-.45-.72-1.21,0-.29.05-.67.14-1.14,1.43.1,2.9.18,4.4.25s2.95.11,4.33.11c1.24,0,2.69-.04,4.37-.11,1.67-.07,3.22-.15,4.65-.25.09.48.14.86.14,1.14,0,.76-.24,1.17-.72,1.21-1.81.24-3.11.57-3.9,1-.79.43-1.18,1.12-1.18,2.07v22.72c0,4.95.99,8.75,2.97,11.39,1.98,2.64,5.33,3.97,10.06,3.97,2.67,0,4.94-.3,6.8-.89,1.86-.6,3.39-1.51,4.58-2.75,1.19-1.24,2.05-2.84,2.58-4.82.52-1.98.79-4.35.79-7.11v-22.5c0-.95-.36-1.64-1.07-2.07-.72-.43-2-.76-3.86-1-.53-.05-.79-.45-.79-1.21,0-.29.05-.67.14-1.14,1.38.1,2.73.18,4.04.25,1.31.07,2.44.11,3.4.11,1.15,0,2.3-.04,3.47-.11,1.17-.07,2.33-.15,3.47-.25.1.48.14.86.14,1.14,0,.24-.07.49-.21.75-.14.26-.33.42-.57.46-1.77.19-2.99.51-3.69.96-.69.45-1.04,1.16-1.04,2.11v24Z"/>
      <path class="st1" d="M646.91,538.07c0,.81.36,1.38,1.07,1.71.71.33,1.69.5,2.93.5h7.8c1.38,0,2.58-.18,3.58-.54,1-.36,1.86-.87,2.58-1.54.72-.67,1.35-1.49,1.9-2.46.55-.98,1.04-2.08,1.47-3.32.14-.38.43-.57.86-.57.24,0,.49.06.75.18.26.12.54.25.82.39-.33,1.43-.66,2.94-.97,4.54-.31,1.6-.59,3.39-.82,5.39-.05.53-.19.86-.43,1-.24.14-.53.21-.86.21-.81,0-1.83-.06-3.04-.18-1.22-.12-2.28-.18-3.18-.18h-17.89c-1.1,0-2.48.04-4.15.11s-3.27.15-4.8.25c-.1-.48-.14-.86-.14-1.14,0-.67.24-1.05.72-1.14,1.96-.33,3.29-.7,4.01-1.11.72-.4,1.07-1.04,1.07-1.89v-36.44c0-.95-.33-1.63-1-2.04-.67-.4-1.96-.75-3.87-1.04-.24-.05-.42-.18-.54-.39-.12-.22-.18-.46-.18-.75,0-.33.05-.74.14-1.21,1.62.1,3.22.18,4.8.25s2.91.11,4.01.11c1.62,0,3.34-.04,5.15-.11s3.44-.15,4.87-.25c.09.48.14.86.14,1.14,0,.81-.26,1.24-.79,1.29-2.05.24-3.57.58-4.54,1.04-.98.45-1.47,1.27-1.47,2.46v35.72Z"/>
      <path class="st1" d="M757.7,499.71v38.15c0,1.1.45,1.87,1.36,2.32.91.45,2.43.8,4.58,1.04.52,0,.79.38.79,1.14,0,.33-.05.74-.14,1.21-1.53-.1-3.14-.18-4.83-.25s-3.4-.11-5.12-.11-3.38.04-5.12.11c-1.74.07-3.38.15-4.9.25-.1-.48-.14-.88-.14-1.21,0-.67.24-1.05.72-1.14,2.15-.29,3.7-.64,4.65-1.07.95-.43,1.43-1.19,1.43-2.29v-38.15h-7.37c-1.43,0-2.64.14-3.61.43-.98.29-1.83.71-2.54,1.29-.72.57-1.34,1.31-1.86,2.22-.53.91-1.07,1.95-1.65,3.14-.1.24-.25.4-.47.5-.21.1-.42.14-.61.14-.53,0-.98-.14-1.36-.43.48-1.71.83-3.24,1.07-4.57.24-1.33.45-2.44.64-3.32.19-.88.39-1.56.61-2.04.22-.48.56-.71,1.04-.71.33,0,.81.02,1.43.07.62.05,1.28.1,1.97.14.69.05,1.4.1,2.11.14.72.05,1.38.07,2,.07h23.9c.57,0,1.22-.02,1.93-.07.72-.05,1.43-.09,2.15-.14.72-.05,1.37-.09,1.97-.14.6-.05,1.08-.07,1.47-.07.48,0,.82.25,1.04.75.21.5.42,1.2.61,2.11.19.91.39,2.02.61,3.36s.58,2.81,1.11,4.43c-.24.1-.46.19-.68.29-.21.1-.46.14-.75.14-.19,0-.41-.05-.64-.14-.24-.09-.41-.26-.5-.5-.53-1.19-1.05-2.24-1.57-3.14-.53-.9-1.13-1.64-1.83-2.22-.69-.57-1.53-1-2.51-1.29s-2.18-.43-3.61-.43h-7.37Z"/>
      <path class="st1" d="M857.32,538.22c0,.95.33,1.61,1,1.96s1.91.73,3.72,1.11c.48.1.72.48.72,1.14,0,.29-.05.67-.14,1.14-1.48-.1-2.96-.18-4.44-.25-1.48-.07-2.89-.11-4.22-.11s-2.71.04-4.26.11c-1.55.07-3.02.15-4.4.25-.1-.48-.14-.86-.14-1.14,0-.67.24-1.05.72-1.14,1.81-.33,3.05-.69,3.72-1.07.67-.38,1-1.05,1-2v-36.36c0-.95-.33-1.63-1-2.04-.67-.4-1.91-.75-3.72-1.04-.29-.05-.48-.19-.57-.43-.1-.24-.14-.5-.14-.79s.05-.67.14-1.14c1.43.1,2.92.18,4.47.25,1.55.07,2.95.11,4.19.11s2.56-.04,4.12-.11c1.55-.07,3.06-.15,4.54-.25.09.48.14.86.14,1.14,0,.71-.24,1.12-.72,1.21-1.81.29-3.05.63-3.72,1.04-.67.4-1,1.08-1,2.04v36.36Z"/>
      <path class="st1" d="M970.83,531.86v-29.86c0-1.05-.38-1.79-1.15-2.21-.76-.43-2.05-.76-3.87-1-.53-.05-.79-.45-.79-1.21,0-.29.05-.67.14-1.14,1.19.1,2.41.18,3.65.25s2.41.11,3.51.11,2.15-.04,3.29-.11c1.15-.07,2.27-.15,3.36-.25.09.48.14.86.14,1.14,0,.76-.24,1.17-.72,1.21-1.62.24-2.73.57-3.33,1-.6.43-.89,1.12-.89,2.07v42.08c-.1.05-.26.08-.5.11-.24.02-.43.04-.57.04-.33,0-.64-.08-.93-.25-.29-.17-.62-.51-1-1.04l-29.06-38.22v33.65c0,.95.33,1.62,1,2,.67.38,1.96.74,3.86,1.07.48.1.72.48.72,1.14,0,.29-.05.67-.14,1.14-1.19-.1-2.4-.18-3.61-.25s-2.35-.11-3.4-.11c-.96,0-2.08.04-3.36.11-1.29.07-2.46.15-3.51.25-.1-.48-.14-.86-.14-1.14,0-.67.26-1.05.79-1.14,1.72-.33,2.87-.69,3.47-1.07.6-.38.89-1.05.89-2v-36.72c0-.76-.28-1.35-.82-1.75-.55-.4-1.68-.73-3.4-.96-.53-.09-.79-.5-.79-1.21,0-.24.02-.45.07-.64,0-.14.02-.31.07-.5.95.1,1.86.17,2.72.21.76.05,1.57.08,2.43.11.86.02,1.62.04,2.29.04,1.38,0,2.3.05,2.75.14.45.1.82.33,1.11.71l25.69,34.22Z"/>
      <path class="st1" d="M1087.7,542.86c-2.15.38-4.34.68-6.58.89-2.24.21-4.87.32-7.87.32-4.1,0-7.67-.62-10.7-1.86-3.03-1.24-5.55-2.93-7.55-5.07-2-2.14-3.5-4.68-4.47-7.61-.98-2.93-1.47-6.11-1.47-9.54,0-2.86.49-5.71,1.47-8.57.98-2.86,2.46-5.43,4.44-7.72,1.98-2.29,4.47-4.15,7.48-5.61,3.01-1.45,6.51-2.18,10.52-2.18,1.43,0,2.8.04,4.12.11s2.61.2,3.9.39c1.29.19,2.59.42,3.9.68,1.31.26,2.73.58,4.26.96.09,1.67.27,3.39.54,5.18.26,1.79.61,3.54,1.04,5.25-.1.1-.29.17-.57.22-.29.05-.53.07-.72.07-.76,0-1.24-.31-1.43-.93-.86-3.19-2.32-5.48-4.37-6.86-2.05-1.38-4.99-2.07-8.8-2.07-3.05,0-5.73.5-8.02,1.5-2.29,1-4.19,2.37-5.69,4.11-1.5,1.74-2.64,3.81-3.4,6.22-.76,2.41-1.15,5.01-1.15,7.82,0,3.29.49,6.31,1.47,9.07.98,2.76,2.31,5.14,4.01,7.14,1.69,2,3.7,3.55,6.01,4.64,2.31,1.1,4.83,1.64,7.55,1.64,1.38,0,2.78-.09,4.19-.29,1.41-.19,2.59-.43,3.54-.71v-10.93c0-1.29-.38-2.18-1.15-2.68-.76-.5-2.05-.87-3.86-1.11-.38-.05-.64-.22-.79-.5-.14-.29-.21-.57-.21-.86,0-.38.05-.76.14-1.14,1.38.1,2.91.18,4.58.25,1.67.07,3.12.11,4.36.11s2.66-.04,4.26-.11c1.6-.07,2.99-.15,4.19-.25.09.48.14.86.14,1.14,0,.48-.08.8-.25.96s-.37.28-.61.32c-1.53.19-2.59.51-3.18.96-.6.45-.9,1.16-.9,2.11v12.72c0,.43-.12.79-.36,1.07s-.91.53-2,.71Z"/>
    </g>
    <g class="st3">
      <path class="st1" d="M108.83,496.57v9.46c-4.62-3.86-9.41-5.79-14.36-5.79-5.45,0-10.04,1.95-13.77,5.86-3.76,3.89-5.63,8.64-5.63,14.26s1.88,10.24,5.63,14.06c3.75,3.82,8.36,5.72,13.81,5.72,2.82,0,5.21-.46,7.18-1.37,1.1-.46,2.24-1.07,3.42-1.85,1.18-.78,2.42-1.71,3.73-2.81v9.63c-4.58,2.58-9.39,3.87-14.42,3.87-7.58,0-14.05-2.64-19.4-7.92-5.34-5.33-8-11.75-8-19.27,0-6.74,2.23-12.75,6.7-18.03,5.49-6.47,12.6-9.7,21.33-9.7,4.76,0,9.36,1.29,13.81,3.87Z"/>
      <path class="st1" d="M179.24,519.95c0-7.45,2.74-13.85,8.21-19.2,5.45-5.35,12-8.02,19.64-8.02s14.03,2.7,19.44,8.09c5.43,5.39,8.14,11.87,8.14,19.44s-2.72,14.07-8.17,19.37c-5.47,5.33-12.08,7.99-19.82,7.99-6.85,0-12.99-2.37-18.44-7.1-6-5.23-9-12.09-9-20.57ZM187.31,520.05c0,5.85,1.97,10.66,5.91,14.43,3.92,3.77,8.44,5.66,13.57,5.66,5.56,0,10.26-1.92,14.08-5.76,3.82-3.89,5.74-8.62,5.74-14.19s-1.89-10.38-5.67-14.19c-3.75-3.84-8.4-5.76-13.94-5.76s-10.18,1.92-13.98,5.76c-3.8,3.79-5.7,8.48-5.7,14.06Z"/>
      <path class="st1" d="M308.03,546.65v-56.53l38.67,40.38v-36.78h8v56.15l-38.67-40.28v37.06h-8Z"/>
      <path class="st1" d="M460.69,501.61l-6.49,3.84c-1.21-2.1-2.37-3.47-3.47-4.11-1.15-.73-2.62-1.1-4.43-1.1-2.22,0-4.06.63-5.53,1.89-1.47,1.23-2.2,2.79-2.2,4.66,0,2.58,1.92,4.66,5.77,6.24l5.29,2.16c4.3,1.74,7.45,3.86,9.44,6.36,1.99,2.5,2.99,5.57,2.99,9.2,0,4.87-1.63,8.89-4.88,12.07-3.27,3.2-7.34,4.8-12.19,4.8-4.6,0-8.4-1.36-11.4-4.08-2.95-2.72-4.8-6.55-5.53-11.48l8.1-1.78c.37,3.11,1.01,5.26,1.92,6.44,1.65,2.29,4.05,3.43,7.21,3.43,2.5,0,4.57-.83,6.22-2.5,1.65-1.67,2.47-3.78,2.47-6.34,0-1.03-.14-1.97-.43-2.83-.29-.86-.73-1.65-1.34-2.37-.61-.72-1.39-1.39-2.35-2.02-.96-.63-2.11-1.23-3.43-1.8l-5.12-2.13c-7.26-3.06-10.89-7.54-10.89-13.44,0-3.98,1.52-7.3,4.57-9.98,3.04-2.7,6.83-4.05,11.37-4.05,6.11,0,10.89,2.97,14.32,8.91Z"/>
      <path class="st1" d="M543.01,493.72v31.88c0,4.55.74,7.87,2.23,9.98,2.22,3.04,5.35,4.56,9.38,4.56s7.19-1.52,9.41-4.56c1.49-2.03,2.23-5.36,2.23-9.98v-31.88h8v34.08c0,5.58-1.74,10.17-5.22,13.78-3.91,4.02-8.72,6.03-14.42,6.03s-10.5-2.01-14.39-6.03c-3.48-3.61-5.22-8.2-5.22-13.78v-34.08h8Z"/>
      <path class="st1" d="M658.27,493.72v45.42h15.59v7.51h-23.59v-52.93h8Z"/>
      <path class="st1" d="M755.95,501.23v45.42h-8v-45.42h-12.19v-7.51h32.35v7.51h-12.16Z"/>
      <path class="st1" d="M846.55,493.72v52.93h-8v-52.93h8Z"/>
      <path class="st1" d="M922.59,546.65v-56.53l38.67,40.38v-36.78h8v56.15l-38.67-40.28v37.06h-8Z"/>
      <path class="st1" d="M1073.09,519.09h21.91v1.75c0,3.98-.47,7.5-1.41,10.56-.92,2.83-2.46,5.48-4.64,7.95-4.92,5.53-11.18,8.3-18.79,8.3s-13.77-2.67-19.06-8.02c-5.29-5.37-7.93-11.82-7.93-19.33s2.69-14.19,8.07-19.54c5.38-5.37,11.93-8.06,19.64-8.06,4.14,0,8.01.85,11.61,2.54,3.43,1.69,6.81,4.43,10.13,8.23l-5.7,5.45c-4.35-5.78-9.65-8.67-15.9-8.67-5.61,0-10.31,1.93-14.12,5.79-3.8,3.79-5.7,8.55-5.7,14.26s2.12,10.75,6.35,14.57c3.96,3.54,8.25,5.31,12.88,5.31,3.94,0,7.47-1.33,10.61-3.98,3.14-2.67,4.89-5.87,5.25-9.6h-13.22v-7.51Z"/>
    </g>
    <g class="st3">
      <path class="st1" d="M90.85,544.86c-.44-.07-.95-.22-1.38-.15-.44,0-.73.29-1.16.29-.95.15-2.04-.58-2.98-.73-1.82-.36-3.49-1.02-5.1-1.82-.8-.36-1.6-.73-2.33-1.16-.8-.58-1.46-1.38-2.26-1.96-.66-.36-1.02-1.09-1.46-1.67-.66-.8-1.46-1.31-2.18-2.04-1.31-1.31-2.04-2.98-2.84-4.65-.44-.94-.73-1.82-.95-2.76-.22-1.02-.73-1.96-1.09-2.98-.22-.87-.07-1.96,0-2.91l.22-3.05c0-.44.22-.87.29-1.24.15-.58.15-1.09.07-1.6,0-.51-.15-.94-.07-1.38,0-.51.22-.94.36-1.45.36-.87.36-1.82.66-2.69.15-.44.29-.73.51-1.09.29-.44.36-.8.44-1.24.29-.8.73-1.45,1.24-2.03.22-.29.51-.51.8-.73.44-.36.58-.58.8-1.02.36-.94,1.02-1.67,1.6-2.4.58-.73,1.02-1.6,1.67-2.25.66-.65,1.46-1.02,2.11-1.67.66-.65,1.31-1.38,2.04-2.04.51.07.73.07,1.16-.22.29-.22.66-.36.95-.44,1.02-.44,1.89-.65,2.91-.73.51-.07,1.09,0,1.6-.07.36-.15.58-.36.95-.58.66-.36,1.89-.44,2.69-.36.44,0,.8.22,1.24.15.44,0,.87-.07,1.31-.07,1.09.07,2.26.22,3.28.65.8.36,1.53.65,2.48.94.51.07.95.22,1.46.44.44.15,1.02.22,1.46.44.36.15.51.29.95.36.36.07.73.15,1.02.36.87.58.95,1.38,1.38,2.25.36.73,1.02,1.09,1.53,1.74.36.36.36.73.44,1.24.07.58.22,1.09.36,1.6.29.87.22,1.82.22,2.69.07,1.16-.07,1.96-1.09,2.54-.8.44-1.53.44-2.4.36-1.16,0-1.67-.15-2.18-1.16-.44-.8-1.02-1.38-1.24-2.25-.29-.8-.44-1.96-1.02-2.62-1.46-1.45-3.71-1.38-5.61-1.96-1.89-.51-4-.15-5.82.22l-2.91.65c-.44.15-.87.22-1.16.44-.29.29-.58.65-.95.94-1.31,1.09-2.62,2.25-3.71,3.56-.58.65-1.02,1.38-1.46,2.18-.44.73-1.02,1.45-1.46,2.18-.51.8-.87,1.74-1.16,2.62-.36,1.02-.44,2.03-.8,2.98-.29.94-.29,1.89-.36,2.83,0,1.09,0,2.11.07,3.2.15.87.36,1.74.8,2.62.44.87,1.02,1.67,1.38,2.62.22.8.36,1.6.73,2.25.58,1.02,1.46,1.89,2.18,2.76.51.65,1.31,1.09,2.04,1.53.44.22.95.44,1.38.73.44.22.73.58,1.24.73.87.36,1.75.65,2.62.8,1.16.22,2.4.51,3.49.44.44,0,.87-.15,1.31-.15.51-.07.87.07,1.38,0,.36,0,.8-.15,1.24-.22.51-.07.95-.22,1.38-.51,1.53-.94,3.13-1.67,4.22-3.2.15-.29.44-.58.58-.87.29-.44.29-.87.51-1.31.36-.73.8-1.67,1.67-1.74.73-.15,1.6-.51,2.26-.22.73.29,1.46.65,2.04,1.16.58.51.87,1.16,1.02,1.96.15.8.36,1.96.07,2.76-.15.44-.44.65-.66,1.02-.22.36-.22.73-.36,1.09-.29.8-.87,1.38-1.24,2.03-.51.65-1.31.36-1.89,1.02-.58.65-1.16,1.09-1.97,1.53-.73.51-1.53.36-2.26.73-.87.44-1.6.94-2.48,1.31-.87.36-1.67.65-2.69.65s-2.04-.15-3.13-.22Z"/>
      <path class="st1" d="M198.24,543.19c-.44-.51-.8-.8-1.24-1.16-.51-.29-1.09-.44-1.6-.65-.44-.22-.8-.65-1.24-.73-.51-.22-.95-.36-1.38-.65l-1.89-1.96c-.66-.58-1.38-1.09-2.04-1.74-.44-.36-.87-.8-1.31-1.09-.44-.44-.44-1.09-.8-1.53-.66-1.24-1.16-2.18-1.53-3.49-.22-.65-.44-1.09-.73-1.67-.22-.51-.36-1.09-.58-1.74-.22-.51-.29-1.16-.29-1.82s-.22-1.09-.22-1.67c-.22-1.31-.15-2.69-.15-4.14,0-.65-.07-1.16-.22-1.82-.07-.65.22-1.09.44-1.67.22-.65.15-1.09,0-1.74,0-.51.22-1.16.36-1.74.29-1.16.73-2.47,1.16-3.78.22-.58.44-1.02.8-1.45.29-.51.51-1.09.87-1.6.66-1.02,1.6-1.74,2.4-2.62.87-.8,1.38-1.67,2.48-2.18.44-.36.8-.65,1.09-1.09.44-.58.58-.65,1.24-.87.51-.15.87-.58,1.31-.8.51-.29.95-.29,1.53-.44.51-.07.87-.29,1.31-.51.51-.44,1.09-.58,1.75-.58.51.15.95-.22,1.6-.29.66-.15,1.24.07,1.89.29,1.09.44,1.97.87,2.84,1.67.22.07.44.29.51.51.22.15.22.36.44.58.44.29,1.31-.15,1.89-.22,1.38-.22,2.69-.15,4.15-.15.73,0,1.16,0,1.82.36.58.29,1.02.65,1.53.87.44.22,1.02.29,1.31.73.36.36.44,1.02.87,1.31.8.87,1.67,1.24,2.18,2.18.58,1.02,1.02,2.11,1.31,3.2.36,1.31.58,2.47,1.02,3.71.44,1.16.44,2.4.44,3.56,0,.44,0,1.09.07,1.53,0,.65.44,1.31.44,1.96s-.07,1.31-.22,1.96c-.07.58-.44,1.09-.44,1.67v1.82c0,.8-.22,1.45-.29,2.18-.22,1.24-.58,2.4-.87,3.63-.44,1.09-1.24,2.04-1.46,3.27-.22.51-.44.94-.73,1.38-.36.44-.58.87-.87,1.45l-1.02,1.31c-.22.44-.51.94-.87,1.38-.73,1.02-1.82,1.31-2.48,2.33-.36.29-.58.73-1.02.94-.44.36-.95.44-1.38.8-.44.29-.87.29-1.46.51-.51.22-1.09.51-1.75.58-2.47.36-4.88,1.53-7.5.87-1.24-.29-2.55-.22-3.49-.94ZM205.3,536.79c.66-.22,1.31-.65,2.11-.87.73-.22,1.38-.51,2.04-.94.8-.58,1.24-1.31,1.75-1.89.44-.29.8-.65,1.09-.94.36-.36.58-.8.8-1.09.51-.87,1.09-1.67,1.53-2.54.44-.87.66-1.82.95-2.83.44-1.74.58-3.49,1.02-5.23.22-.94-.22-1.6-.44-2.62-.22-.87.44-1.74.44-2.69.07-.87-.36-1.53-.44-2.33-.15-.44,0-.73-.15-1.16,0-.44-.22-.8-.29-1.09-.36-.8-.44-1.53-.66-2.18-.22-.87-.8-1.31-1.31-1.89-.66-.44-1.09-1.16-1.75-1.6-.58-.44-1.46-.36-2.18-.36-.8.15-1.46.44-2.18.65-.87.22-1.53.44-2.18,1.02-1.09.65-2.4.22-3.06-.65-.44-.65-.66-1.24-1.31-1.45-.87-.29-1.67.15-2.55.44-1.38.58-2.69,1.53-3.71,2.62-.51.58-1.16,1.09-1.53,1.67-.22.29-.29.73-.44,1.09-.22.44-.44.73-.66,1.09-.44.65-.66,1.31-.87,2.03-.22.87-.66,1.53-.95,2.33-.58,1.82-.44,3.71-.58,5.52,0,.87-.07,1.67.22,2.54.22.87.36,1.82.58,2.69.29.8.87,1.45.95,2.18.22.87.44,1.31,1.09,2.11.58.51.87,1.31,1.31,1.82.58.65,1.46,1.02,1.97,1.45,1.46,1.09,2.77,2.18,4.51,2.69.73.36,1.53.65,2.4.65.73.15,1.75,0,2.48-.22Z"/>
      <path class="st1" d="M305.11,545.3c-.36-.15-.87-.07-1.24-.36-.29-.29-.51-.8-.8-1.24-.15-.44-.51-.94-.51-1.45,0-.58.29-1.09.36-1.6.07-.58-.22-1.09-.22-1.67-.07-.65-.07-1.24-.07-1.89,0-1.24-.07-2.47-.15-3.71-.07-1.24,0-2.47-.15-3.71-.22-1.24.07-2.47.07-3.78-.07-.58-.22-1.16-.29-1.82-.07-.58.15-1.16.29-1.74.22-1.24-.29-2.4-.22-3.63.07-.58.22-1.24.15-1.82.07-.58-.07-1.16.07-1.82.15-.65,0-1.09,0-1.74-.15-.58-.07-1.24-.15-1.89,0-1.16.29-2.25.22-3.42-.07-.58-.22-1.24-.22-1.82.07-.65.22-1.24.22-1.89,0-1.16.07-2.47-.36-3.63-.51-1.09.15-1.96,1.02-2.69.73-.58,1.82-1.45,2.69-1.16.58.15.95.15,1.6.07.58-.07,1.02.15,1.53.36,1.02.51,1.89,1.09,2.48,2.03.44.8,1.16,1.45,1.24,2.47,0,.51,0,1.02.15,1.53.22.51.44,1.02.73,1.53.51,1.02,1.09,2.04,1.67,3.05.58.94.95,1.96,1.6,2.83.66.94,1.24,1.89,1.67,2.91.51,1.02,1.38,1.74,1.97,2.69l1.6,2.83c.22.51.29,1.02.58,1.45.15.44.51.87.73,1.31.36.44.51.87.66,1.38l.87,1.53c.15.44.29.94.51,1.31.29.44.73.73,1.02,1.09.51.87.8,1.82,1.31,2.69.51.8.95,1.45,1.75,2.11.29.22.66,1.02,1.02,1.09.44.22.58-.65.66-1.02.15-1.16.07-2.47.15-3.63.07-.65.07-1.24.07-1.82s-.07-1.16,0-1.67c.07-.65.29-1.24.22-1.89,0-.65,0-1.31-.07-2.04.07-2.47.22-4.94-.07-7.48,0-1.24.22-2.47.29-3.71.07-1.24.07-2.4-.07-3.63-.07-1.16.07-2.4.15-3.63.07-1.24.07-2.54.36-3.78.15-1.16,1.16-2.11,2.11-2.69.29-.29.87-.44,1.24-.58.58-.07,1.02.22,1.38.58.8.58,1.67.87,2.04,1.89.15.44.44.8.51,1.31.07.51-.07,1.31-.29,1.82-.36,1.16-.15,2.33-.36,3.49-.29,1.09.15,2.04,0,3.05-.15.65-.29,1.02-.15,1.6.07.65-.07,1.24,0,1.89-.07,1.16-.29,2.47-.15,3.63.36,2.33.22,4.8.29,7.19.07,2.33-.44,4.72-.15,7.05.07.58.15,1.16.07,1.74-.07.29-.29.51-.22.73,0,.36.15.65.15.94.07,1.16-.07,2.47.15,3.63.22.94.66,1.96.66,2.98,0,.58-.07,1.16-.07,1.74,0,.51,0,1.16-.15,1.6-.22,1.09-1.31,1.53-2.26,1.74-.36.15-.73.36-1.16.51-.58.15-1.09.07-1.6.22-1.02.36-2.26.36-3.2.07-.51-.15-.8-.44-1.24-.65-.51-.22-1.16-.22-1.6-.44s-.36-.51-.51-.94c-.15-.58-.58-1.02-.87-1.53-.58-.94-1.38-1.74-2.11-2.62-.29-.44-.51-.8-.73-1.31-.15-.58-.29-1.09-.58-1.53-.29-.36-.66-.73-.95-1.16-.29-.44-.44-.94-.73-1.38-.58-.87-1.31-1.67-1.82-2.62-.51-.94-.95-1.82-1.31-2.83-.44-1.09-1.24-1.82-1.67-2.91-.36-1.02-.73-1.96-1.31-2.91-.58-.87-1.24-1.67-1.6-2.69-.36-1.09-1.16-1.96-1.53-3.05-.44-1.02-1.02-1.89-1.67-2.76-.36-.58-1.24-2.04-1.46-.58-.22,1.31-.22,2.54-.15,3.78.07.58.07,1.09.15,1.67,0,.58.22,1.24.29,1.82,0,.65-.15,1.16-.15,1.74,0,.29.07.51.07.8.07.29,0,.51,0,.8-.07.58.15,1.16.07,1.74-.07.65.07,1.31.07,1.96,0,.58-.22,1.09-.07,1.6,0,.58.36,1.09.36,1.67.15,1.24.07,2.4.15,3.63,0,.51,0,1.09.22,1.6.22.44.51.8.58,1.38.07.44-.07.94-.29,1.38-.15.65-.15,1.16-.15,1.74,0,1.16.58,2.18,0,3.34-.44,1.02-1.16,1.67-2.18,1.89-.58.15-1.16.44-1.75.36-.51-.07-.95-.44-1.46-.65Z"/>
      <path class="st1" d="M430.99,545.15c-.8-.22-1.75-.51-2.62-.51-.58,0-1.02,0-1.53-.22-.44-.15-.87-.15-1.46-.36-.66-.29-1.38-.94-1.82-1.53-.66-.65-.87-1.16-1.75-1.6-.36-.22-.66-.36-1.02-.73-.29-.22-.44-.51-.87-.87-.66-.44-1.16-.44-1.38-1.38-.22-.8-.8-1.09-1.02-1.89-.44-.94-.95-1.96-1.31-2.91-.29-.8-.51-1.45-.29-2.33.07-.44.22-.65.44-.94.29-.36.51-.8.73-1.09.66-.8,1.75-.36,2.55,0,.73.22,1.53.07,2.18.73.51.44.73,1.09.95,1.74.44.87,1.31,1.45,1.75,2.33.87,1.31,1.97,2.83,3.28,3.56.8.44,1.75.8,2.55.87.44.15.87,0,1.16-.07.58-.22.87-.22,1.46-.22.51,0,.95.07,1.38.07s.8-.22,1.24-.44c.95-.44,1.6-.94,2.26-1.96.36-.65,1.09-1.31,1.46-1.96.29-.73.22-1.74,0-2.47-.22-.87-.44-1.89-1.02-2.54-.51-.73-1.16-.73-1.82-1.09-.8-.29-1.24-1.16-1.89-1.6-.73-.58-1.6-.65-2.4-1.24-.66-.44-1.16-.94-1.97-1.38-.29-.15-.66-.36-.95-.58-.36-.22-.66-.65-1.02-.94-.73-.65-1.6-1.24-2.47-1.74-.66-.44-1.67-.65-2.18-1.24-.22-.29-.36-.65-.58-.94-.29-.22-.66-.36-.87-.58-.66-.73-1.09-1.53-1.38-2.4-.22-.73-.8-1.38-.87-2.25-.15-1.02-.36-1.74-.8-2.62-.44-1.02-.22-1.74.22-2.76.15-.29.36-.65.44-1.09.22-.51,0-.94,0-1.53,0-.87.66-1.6,1.09-2.4.22-.29.22-.73.44-1.16.22-.36.66-.36,1.02-.58.73-.29,1.16-.94,1.75-1.38.51-.58,1.31-.87,2.18-1.02.95-.07,1.53-.07,2.4-.65.73-.44,1.82-.73,2.62-.73.87,0,1.75,0,2.62.29.87.22,1.82.65,2.84,1.02.29.07.73.22,1.16.29.44.22.8.15,1.24.22.44.15.73.36,1.16.58.44.22.87.29,1.46.51.73.36,1.16,1.09,1.75,1.67.66.65,1.31,1.31,1.6,2.18.66,1.38,2.11,3.56.8,5.01-.58.65-1.24,1.31-2.11,1.53-.73.07-1.38-.15-2.04-.65-.66-.58-.87-1.45-1.46-1.96-.66-.65-1.38-1.24-1.97-1.89l-.73-.73-1.02-.58c-.29-.22-.51-.51-.87-.65-.44-.29-.87-.22-1.53-.29-.95,0-1.6-.44-2.69-.22-.36.22-.8.29-1.24.44-.44,0-.73-.15-1.16.22-.58.29-.87,1.09-1.31,1.6-.44.8-1.46,1.31-1.67,2.18-.22.87.22,1.67.22,2.54-.07.29-.22.73-.07,1.09.22.44.44.73.66,1.16.22.87.66,1.67,1.31,2.18.66.65,1.53.87,2.18,1.45.73.44,1.53.87,2.4,1.16.87.44,1.53,1.24,2.26,1.67.36.22.8.29,1.09.51.36.22.44.58.8.8.29.07.73.22,1.09.29.44.15.73.44,1.16.8.66.65,1.53,1.16,2.33,1.74.73.44,1.31.73,1.75,1.53.51.73,1.09,1.53,1.53,2.25.51.8.51,1.89.87,2.83.29.87.66,1.67.73,2.54.15.87,0,1.6-.07,2.4,0,1.82-.66,3.34-1.46,5.09-.29.8-.87,1.09-1.53,1.67-.87.65-1.75,1.31-2.48,2.11-.8.65-1.24.65-2.11.87-.44,0-.73.22-1.09.44-.44.22-.73.51-1.16.51-.44.15-1.02,0-1.46,0-.44.15-.87.36-1.31.36-.95.22-1.82.22-2.69-.15Z"/>
      <path class="st1" d="M545.95,545.22c-.44-.15-.73-.22-1.16-.15-.44.15-.66.07-1.09,0-.44-.07-.8.15-1.24.15s-1.02-.29-1.46-.44c-.8-.29-1.46.07-2.18-.07-.95-.07-1.16-.73-1.82-1.24-.66-.51-1.38-.36-2.11-.58-.8-.29-1.67-.94-2.33-1.45-.66-.44-1.16-1.16-1.67-1.74-.51-.58-1.09-1.09-1.53-1.74-.44-.58-.8-1.24-1.09-1.82-.36-.87-.51-1.74-.87-2.62-.44-1.09-.8-2.18-1.16-3.34-.15-.8-.44-1.6-.66-2.4-.15-.94-.07-1.89-.07-2.83-.22-.87.07-1.82-.07-2.76l-.36-2.76c-.15-3.05-.07-3.92-.22-4.72l-.44-2.83-.22-1.38c-.15-.51-.07-.8,0-1.38.15-.94-.29-1.82-.22-2.76.15-.94.07-1.89,0-2.83-.15-1.02,0-1.96.07-2.91.15-1.45,1.02-3.63,2.84-3.56.73.07,1.53.29,2.11.73.36.29.66.58.95.87.36.44.36.73.44,1.31.07.87.15,1.6.07,2.54-.07.87-.29,1.82-.07,2.62.07.44.29.8.22,1.24-.07.36-.36.65-.44,1.02-.22.87.07,1.89.07,2.83,0,1.74.58,3.56,1.02,5.23.29.8,0,3.71.44,4.51.44.94.22,1.89.22,2.91-.07,1.82.15,3.56.44,5.3.15.87.66,1.53.8,2.4.07.36.07.73.29,1.09.22.36.44.58.58,1.02.51,1.67,1.09,2.76,2.55,3.85.58.44,1.16,1.02,1.97,1.16.44.07.73,0,1.09.15.51.15.95.15,1.38.15.44.07.8.15,1.16.15.44.07.66-.07,1.09-.15.95-.15,2.04.07,2.98.22.66.07,1.67-.44,2.26-.8.29-.22.51-.51.73-.8.22-.29.51-.44.87-.58.73-.44.95-1.31,1.38-2.04.44-.8,1.09-1.53,1.31-2.4.29-.87.51-1.82.66-2.76.15-.8,0-1.67.22-2.54.22-.87.44-1.82.36-2.69-.07-.44-.22-.8-.22-1.24-.07-.51,0-1.02.07-1.6.15-.87-.07-1.74-.15-2.62-.07-3.85.15-4.72,0-5.67,0-.44-.22-.8-.36-1.16-.15-.51-.07-.87,0-1.31l.22-1.31c.07-.51-.15-1.02-.22-1.53-.07-.87.15-1.67-.15-2.54-.22-.87-.66-1.67-.58-2.62.07-.94.29-1.82.66-2.69.22-.44.36-.87.58-1.31.29-.36.51-.51.95-.73.58-.29,1.09-.8,1.89-.51.36.07.66.44.95.65.44.29.95.51,1.31.87,1.31,1.16,1.67,2.83,1.53,4.58-.07.87-.36,1.53-.29,2.4.07.44.15.94.07,1.38-.07.51-.29.94-.36,1.53-.15.87.29,1.67.36,2.54.07.44.15.94.07,1.38-.07.44-.36.8-.36,1.24,0,.36.29.8.29,1.24.07.44.07,3.78.07,4.21-.07,1.02-.07,1.96.15,2.98.36,1.82-.51,3.78-.51,5.6,0,.87,0,1.82-.15,2.76-.07.36-.22.73-.36,1.16-.07.44,0,.87-.15,1.31-.29.8-.51,1.6-.8,2.4-.22.36-.44.73-.58,1.16-.15.51-.15.94-.44,1.45-.36.8-.87,1.24-1.53,1.82-.58.51-.95,1.24-1.46,1.82-.22.29-.44.65-.73.87-.36.29-.73.51-1.09.73-.29.22-.66.36-1.02.58-.44.22-.8.58-1.24.8-.29.22-.73.22-1.09.44-.36.15-.73.51-1.09.65-.8.44-1.53.15-2.33-.07Z"/>
      <path class="st1" d="M642.64,545.08c-1.09-.29-1.89-1.31-1.82-2.47,0-.51.15-.94-.07-1.38-.22-.58-.58-.87-.66-1.53-.07-1.24-.07-2.54-.07-3.85,0-.51.15-1.02.07-1.6,0-.58,0-1.16.15-1.67.22-1.31,0-2.69,0-4-.07-2.4.29-7.63.29-10.03,0-1.16-.44-2.33-.44-3.49,0-1.31-.15-2.54-.07-3.78.07-1.31.07-2.62.22-3.92.07-1.31,0-2.62,0-3.92,0-1.24.29-2.47.15-3.71-.07-.58-.29-1.24-.07-1.82.15-.51.51-1.09.95-1.53.87-.73,2.04-.8,3.06-.29.44.22.95.51,1.38.8.51.29.58.87.73,1.45.29,1.24.07,2.47.15,3.71.22.51.07,1.09,0,1.6-.07.29,0,.58,0,.87s-.15.58-.22.87c-.29,1.31-.07,2.69-.07,4,.07.58,0,1.09.15,1.67.15.58.15,1.16.15,1.82-.07.58-.15,1.09,0,1.67.15.58.36,1.09.29,1.74-.07.58-.15,1.16-.15,1.82.07.65.22,4.14.22,4.8s-.22,1.24-.29,1.89c0,.65.07,1.31.22,1.96.22,1.16.15,2.47.22,3.63.07,1.38.29,2.69.44,4.07.15,1.02.15,2.11.95,2.91.73.8,1.75.73,2.69.58,1.38-.15,2.69-.36,4.08-.29,1.31,0,2.55-.29,3.93-.36,1.02,0,2.18.22,3.2.51,1.24.36,2.33.07,3.57-.07,1.02-.15,2.33-.44,3.35.15.73.51,1.38,1.45,1.53,2.33.15,1.02.29,2.47-.36,3.34-.29.44-.8.65-1.24.94-.44.29-1.02.87-1.53.87-.22,0-.44-.22-.65-.22-.29-.07-.58-.07-.87-.07-.66,0-1.31,0-1.97-.07-1.24-.15-2.4-.36-3.64-.29-1.24.15-2.47-.22-3.64-.29-.58-.07-1.09.22-1.6.29-.66.07-1.31.07-1.97.07-.58-.07-1.16-.07-1.82-.15-.58,0-1.02.15-1.6.29-.58.15-1.16.15-1.75.22-.65.07-1.24.36-1.89.44-1.24.15-2.47-.15-3.64-.51Z"/>
      <path class="st1" d="M755.7,543.33c-.44-.58-.87-.87-1.31-1.45-.36-.44-.58-1.16-.66-1.74-.36-1.24.29-2.54.44-3.85.22-1.38-.15-2.69-.15-4.21-.07-1.31.15-2.76.15-4.07,0-.65-.15-1.38-.22-2.04-.15-.8.07-1.31.22-2.11,0-.65-.15-1.31,0-1.96,0-.65.07-1.31,0-1.96-.15-.65,0-1.16,0-1.82s-.15-1.31-.15-1.96v-1.89c0-.73,0-1.53-.07-2.18,0-.51-.58-1.09-.58-1.6-.07-.65-.07-1.45,0-2.11,0-.73.22-1.16,0-1.96-.07-.65-.51-1.09-.87-1.6-.22-.44-.44-1.02-.87-1.31-.51-.44-1.16-.36-1.75-.36-1.31,0-2.47.58-3.71.8-1.09.07-2.04.07-3.06-.15-1.31-.07-1.82-.87-2.4-2.03-.44-1.24-.51-2.54,0-3.71.44-1.09,1.46-1.67,2.62-1.89,1.31-.29,2.4,0,3.64.44.51.15.95.58,1.53.65.66.15,1.38-.07,2.18,0,.66.15,1.31.22,1.97.22.73-.07,1.38-.07,2.18-.07.65,0,1.38,0,2.18.22.66.07,1.16.22,1.97.22,1.31,0,2.48-.36,3.93-.36.65-.07,1.31-.07,2.04-.07.65-.15,1.02-.22,1.53-.58.44-.29,1.02-.51,1.46-.65.66-.07,1.09.44,1.6.36.36,0,.58-.22.87-.15.36,0,.58.15.8.22.51.22.87.65,1.38.87.58.15,1.24.15,1.53.58.36.44.44,1.16.66,1.74.22.51.15.94-.07,1.53-.22.51-.44,1.31-1.02,1.74-.44.29-.95.73-1.6.87h-1.67c-.51,0-1.09.07-1.75,0-.65-.15-1.31-.36-2.04-.36-.66,0-1.24.15-1.89.15-.73,0-1.53.07-2.18.07-.51-.07-1.09-.44-1.53,0-.29.44-.51,1.31-.66,1.89-.22.51-.22,1.09-.29,1.6-.22.8-.22,1.45-.15,2.11,0,.65-.07,1.16-.07,1.82-.15.65.22,1.31.22,1.96.22,1.45-.22,2.76-.15,4.07.22,1.38,0,2.91.22,4.36.15.51,0,1.09-.07,1.74,0,.73.07,1.38.22,2.18,0,.51.22,1.16.07,1.82,0,.36-.07.58-.07.8-.15.44,0,.87.07,1.31.36,1.31,0,2.47.22,3.78.15,1.45.15,2.98.15,4.29-.15.65.07,1.09.22,1.74.07.51.29,1.45.22,1.96,0,.58-.44,1.09-.8,1.53-.44.58-.87.65-1.31,1.02-1.16.65-2.48.65-3.35-.44Z"/>
      <path class="st1" d="M853.63,544.86c-.36-.29-.58-.44-1.02-.58s-.65-.44-1.02-.73c-.29-.29-.73-.36-.95-.65-.29-.29-.36-.58-.51-.94-.15-.36-.36-.65-.51-1.02-.44-.87.22-1.74.29-2.62,0-.51-.15-.94-.15-1.45-.07-.36,0-.8,0-1.16.15-1.02.07-1.96-.07-2.91-.15-.51.07-6.1.07-6.1,0-.87,0-1.74.07-2.69l.29-4.22c.07-.87-.22-1.74-.15-2.62.07-.94.15-2.04,0-2.98-.07-.87-.15-1.53,0-2.4.22-.94-.07-1.82,0-2.76v-2.4c-.07-.36-.29-.73-.36-1.09-.07-.44,0-.87.07-1.38.07-1.74-.29-3.42-.22-5.16.07-.8.73-1.82,1.31-2.33.58-.44,1.75-.8,2.47-.58.36.07.66.22,1.09.22.36,0,.8-.07,1.16.15.51.29,1.09,1.38,1.31,2.04.15.73.22,1.53.29,2.33,0,.44,0,.8-.15,1.31-.15.44,0,.73-.07,1.16,0,.36-.15.73-.22,1.09-.07.44-.15.94-.15,1.38s-.07.87-.07,1.31c.07.44.22.8.29,1.24.07,1.89-.15,3.78-.22,5.67-.07.94-.07,1.89.15,2.91.07.36.07.73.15,1.09.07.51-.15,1.02-.07,1.53,0,.87.15,3.2.07,4.14,0,1.02-.15,2.04-.15,3.05-.07.94-.07,1.82-.07,2.69.07.94.44,1.82.36,2.69,0,.8-.22,1.67,0,2.4.22.73.58,1.45.8,2.25.22.73.15,1.53.36,2.33.22.87-.15,1.67-.15,2.54-.07.73-.15,1.74-.66,2.25-.58.58-1.75.8-2.47,1.09-.58.22-.73.22-1.24-.07Z"/>
      <path class="st1" d="M942.23,545.3c-.36-.15-.87-.07-1.24-.36-.29-.29-.51-.8-.8-1.24-.15-.44-.51-.94-.51-1.45,0-.58.29-1.09.36-1.6.07-.58-.22-1.09-.22-1.67-.07-.65-.07-1.24-.07-1.89,0-1.24-.07-2.47-.15-3.71s0-2.47-.15-3.71c-.22-1.24.07-2.47.07-3.78-.07-.58-.22-1.16-.29-1.82-.07-.58.15-1.16.29-1.74.22-1.24-.29-2.4-.22-3.63.07-.58.22-1.24.15-1.82.07-.58-.07-1.16.07-1.82.15-.65,0-1.09,0-1.74-.15-.58-.07-1.24-.15-1.89,0-1.16.29-2.25.22-3.42-.07-.58-.22-1.24-.22-1.82.07-.65.22-1.24.22-1.89,0-1.16.07-2.47-.36-3.63-.51-1.09.15-1.96,1.02-2.69.73-.58,1.82-1.45,2.69-1.16.58.15.95.15,1.6.07.58-.07,1.02.15,1.53.36,1.02.51,1.89,1.09,2.48,2.03.44.8,1.16,1.45,1.24,2.47,0,.51,0,1.02.15,1.53.22.51.44,1.02.73,1.53.51,1.02,1.09,2.04,1.68,3.05.58.94.95,1.96,1.6,2.83.65.94,1.24,1.89,1.67,2.91.51,1.02,1.38,1.74,1.97,2.69l1.6,2.83c.22.51.29,1.02.58,1.45.15.44.51.87.73,1.31.36.44.51.87.65,1.38l.87,1.53c.15.44.29.94.51,1.31.29.44.73.73,1.02,1.09.51.87.8,1.82,1.31,2.69.51.8.95,1.45,1.75,2.11.29.22.66,1.02,1.02,1.09.44.22.58-.65.66-1.02.15-1.16.07-2.47.15-3.63.07-.65.07-1.24.07-1.82s-.07-1.16,0-1.67c.07-.65.29-1.24.22-1.89,0-.65,0-1.31-.07-2.04.07-2.47.22-4.94-.07-7.48,0-1.24.22-2.47.29-3.71.07-1.24.07-2.4-.07-3.63-.07-1.16.07-2.4.15-3.63.07-1.24.07-2.54.36-3.78.15-1.16,1.16-2.11,2.11-2.69.29-.29.87-.44,1.24-.58.58-.07,1.02.22,1.38.58.8.58,1.68.87,2.04,1.89.15.44.44.8.51,1.31.07.51-.07,1.31-.29,1.82-.36,1.16-.15,2.33-.36,3.49-.29,1.09.15,2.04,0,3.05-.15.65-.29,1.02-.15,1.6.07.65-.07,1.24,0,1.89-.07,1.16-.29,2.47-.15,3.63.36,2.33.22,4.8.29,7.19.07,2.33-.44,4.72-.15,7.05.07.58.15,1.16.07,1.74-.07.29-.29.51-.22.73,0,.36.15.65.15.94.07,1.16-.07,2.47.15,3.63.22.94.66,1.96.66,2.98,0,.58-.07,1.16-.07,1.74,0,.51,0,1.16-.15,1.6-.22,1.09-1.31,1.53-2.26,1.74-.36.15-.73.36-1.16.51-.58.15-1.09.07-1.6.22-1.02.36-2.26.36-3.2.07-.51-.15-.8-.44-1.24-.65-.51-.22-1.16-.22-1.6-.44s-.36-.51-.51-.94c-.15-.58-.58-1.02-.87-1.53-.58-.94-1.38-1.74-2.11-2.62-.29-.44-.51-.8-.73-1.31-.15-.58-.29-1.09-.58-1.53-.29-.36-.66-.73-.95-1.16s-.44-.94-.73-1.38c-.58-.87-1.31-1.67-1.82-2.62-.51-.94-.95-1.82-1.31-2.83-.44-1.09-1.24-1.82-1.67-2.91-.36-1.02-.73-1.96-1.31-2.91-.58-.87-1.24-1.67-1.6-2.69-.36-1.09-1.16-1.96-1.53-3.05-.44-1.02-1.02-1.89-1.68-2.76-.36-.58-1.24-2.04-1.46-.58-.22,1.31-.22,2.54-.15,3.78.07.58.07,1.09.15,1.67,0,.58.22,1.24.29,1.82,0,.65-.15,1.16-.15,1.74,0,.29.07.51.07.8.07.29,0,.51,0,.8-.07.58.15,1.16.07,1.74-.07.65.07,1.31.07,1.96,0,.58-.22,1.09-.07,1.6,0,.58.36,1.09.36,1.67.15,1.24.07,2.4.15,3.63,0,.51,0,1.09.22,1.6.22.44.51.8.58,1.38.07.44-.07.94-.29,1.38-.15.65-.15,1.16-.15,1.74,0,1.16.58,2.18,0,3.34-.44,1.02-1.16,1.67-2.18,1.89-.58.15-1.16.44-1.75.36-.51-.07-.95-.44-1.46-.65Z"/>
      <path class="st1" d="M1077.57,542.24c-.58,0-1.09.07-1.6,0-.66,0-1.31-.15-1.89-.22-.58-.15-1.16-.22-1.75-.22-.44,0-.95.15-1.46.07-.51,0-.95-.22-1.38-.44-.58-.22-1.24-.36-1.82-.58-.44-.15-.95-.22-1.31-.51-.44-.29-.66-.51-1.09-.65-.51-.07-.8-.29-1.24-.58-.44-.36-.8-.87-1.24-1.16-.22-.07-.44-.07-.66-.15l-.44-.51c-.29-.36-.66-.65-.95-1.02-.73-.87-1.38-1.89-2.11-2.76-.66-.87-1.38-1.74-2.11-2.62-.8-.87-.95-1.67-1.24-2.83-.29-1.09-.87-2.11-1.09-3.2-.29-1.09.36-2.4.36-3.56.07-1.09.07-2.03.22-3.12.15-1.16,0-2.33.36-3.42.07-.44.44-.87.58-1.31.15-.44.15-1.02.29-1.45.36-1.09.8-2.11,1.24-3.12.36-.94.73-1.89,1.31-2.76.51-.8,1.24-1.6,1.82-2.4.51-.73.95-1.45,1.6-2.03.8-.8,1.6-1.45,2.55-2.04.36-.29.8-.73,1.24-.94.36-.22.73-.36,1.09-.65.44-.29.8-.36,1.31-.51.58-.15,1.09-.51,1.67-.8.87-.51,1.82-.65,2.84-.94.51-.15,1.02-.15,1.53-.29.22-.07.36-.22.58-.22.36-.07.65,0,.95.07,1.09.15,2.26,0,3.28.22.51.15.87.22,1.38.22.58.07,1.09.29,1.67.58.95.36,2.04.73,2.84,1.45.8.65,1.89.87,2.84,1.31,1.02.44,1.38.94,1.82,1.96.29.87,1.02,1.67.95,2.76-.07.8-.58,1.67-1.16,2.25-.36.36-.87.36-1.31.44-.51.15-1.02.44-1.6.29-.87-.22-1.82-.65-2.69-1.09l-1.09-.73c-.22-.07-.36-.07-.51-.15-.29-.22-.44-.58-.66-.87-.73-.8-1.75-1.16-2.69-1.45-.51-.22-.95-.44-1.53-.36-.66.07-1.16.36-1.82.44-1.02.07-1.97.36-2.98.73-.44.15-.87.22-1.31.36-.58.15-1.09.51-1.53.8-1.75,1.16-3.35,2.69-4.66,4.22-.29.36-.65.73-.8,1.16-.22.51-.29.94-.58,1.38-.58,1.09-1.09,2.83-1.46,3.92l-.66,1.6c-.15.44-.22.94-.36,1.45-.22.44-.07.87-.07,1.38,0,.15.15,1.53,0,1.53,0,2.04-.22,6.18,1.31,7.92.65.8,1.16,1.6,1.75,2.47.22.44.44.73.87.94.51.29.8.58,1.24.94.65.58,1.53,1.02,2.33,1.45.44.22.65.58,1.02.8.51.44.95.36,1.53.36,1.02,0,2.11.22,3.2.22s2.4.22,3.49-.22c.87-.44,1.97-.36,2.91-.73.95-.36,2.18-1.24,2.84-1.96.8-.73,1.38-1.45,1.89-2.47.15-.36.36-.8.58-1.24.51-.36.73-.58.87-1.16.44-1.31,2.04-5.81-.15-6.4-.95-.29-2.33-.44-3.2-.15-1.09.36-2.4.36-3.57.36-1.09,0-1.97.15-2.99.44-1.16.36-2.47.44-3.64.15-.44-.15-1.24-.15-1.6-.44-.36-.22-.44-1.02-.66-1.38-.44-1.02-1.02-2.11-.58-3.34.29-.65,1.24-1.96,1.89-2.33.51-.22.95,0,1.38.15.66.15.95.22,1.6.15.44-.07.95.15,1.38.15.58.07,1.02.15,1.6,0,1.02-.15,2.18-.44,3.2-.51,1.16-.15,2.33-.15,3.42-.22,1.24-.15,2.33-.15,3.57.07.95.29,2.99-.36,3.71.36.65.65,1.53.29,2.04,1.09,1.09,1.89.51,2.98.66,5.09.07,1.09-.07,4.72-.66,5.38-.36.94-.87,1.96-1.16,2.91-.07.44-.29.87-.58,1.31-.15.36-.44.65-.95,1.16-.22.36-.29.87-.51,1.24-.36.44-.29.58-.66,1.09-.22.36-.95.8-1.16,1.24-.22.29-.58.65-.87.94-.66.8-1.02,1.89-1.97,2.25-.95.36-1.75.94-2.62,1.45-1.02.58-2.18.65-3.2,1.09-.51.22-.95.36-1.46.51-.51.07-1.09-.07-1.6-.07Z"/>
    </g>
    <g class="st3">
      <path class="st1" d="M67,519.9c0-16.41,13.43-29.27,30.08-29.27,7.47,0,13.91,2.6,18.16,5.54v8.27c-4.52-4.38-11.37-7.25-18.23-7.25-12.95,0-22.68,10.05-22.68,22.71s9.73,22.71,22.68,22.71c6.99,0,13.7-2.94,18.23-7.25v8.34c-4.38,2.94-10.69,5.47-18.23,5.47-16.58,0-30.01-12.86-30.01-29.27Z"/>
      <path class="st1" d="M181.98,519.9c0-16.14,13.36-29.27,29.46-29.27s29.53,13.13,29.53,29.27-13.36,29.27-29.53,29.27-29.46-13.06-29.46-29.27ZM233.64,519.9c0-12.72-9.73-22.71-22.2-22.71s-22.13,9.99-22.13,22.71,9.73,22.78,22.13,22.78,22.2-9.99,22.2-22.78Z"/>
      <path class="st1" d="M312.23,548.08v-57.66l39.94,42.75c-.07-6.15-.21-11.9-.21-18.33v-23.12h6.92v57.86l-39.88-42.88c.07,6.16.21,12.24.21,18.4v22.98h-6.99Z"/>
      <path class="st1" d="M429.47,543.49v-8c4.73,3.63,10.83,7.11,17.88,7.11,6.37,0,11.1-3.56,11.1-9.44s-4.32-8.48-12.2-11.01c-7.88-2.53-16.31-6.22-16.31-16.89,0-9.78,8.84-14.71,17.47-14.71,7.61,0,13.02,2.39,16.24,4.04v8.14c-5.21-3.63-10.55-5.61-16.24-5.61s-10.14,2.67-10.14,8.14,4.04,7.93,11.92,10.46c7.88,2.6,16.58,6.22,16.58,17.44,0,10.26-9.39,16-18.43,16-7.81,0-14.05-3.15-17.88-5.68Z"/>
      <path class="st1" d="M535.2,526.33v-34.61h7.13v34.61c0,11.01,5.69,16.28,14.66,16.28s14.87-5.2,14.87-16.28v-34.61h6.99v34.68c0,14.71-9.18,22.78-21.99,22.78s-21.65-8-21.65-22.84Z"/>
      <path class="st1" d="M651.41,548.08v-56.36h7.13v49.79h23.77v6.57h-30.9Z"/>
      <path class="st1" d="M753.36,548.08v-49.79h-16.79v-6.57h40.77v6.57h-16.85v49.79h-7.13Z"/>
      <path class="st1" d="M845.66,548.08v-56.36h7.13v56.36h-7.13Z"/>
      <path class="st1" d="M926.24,548.08v-57.66l39.94,42.75c-.07-6.15-.2-11.9-.2-18.33v-23.12h6.92v57.86l-39.88-42.88c.07,6.16.2,12.24.2,18.4v22.98h-6.99Z"/>
      <path class="st1" d="M1044.16,519.9c0-16.14,13.22-29.27,30.22-29.27,8.15,0,14.94,2.67,19.53,6.15v8.28c-5.34-4.72-11.78-7.87-19.53-7.87-13.29,0-22.88,9.99-22.88,22.71s9.59,22.78,22.88,22.78c5.75,0,10.41-1.71,13.7-3.76v-12.11h-12.81v-6.29h19.73v22.02c-3.91,2.87-11.1,6.63-20.62,6.63-16.99,0-30.22-13.06-30.22-29.27Z"/>
    </g>
    <g class="st3">
      <path class="st1" d="M112.3,537.34c-.86,1.29-1.93,2.51-3.19,3.66-1.27,1.15-2.72,2.14-4.34,2.97-1.63.84-3.39,1.49-5.28,1.97-1.89.48-3.89.72-5.99.72-3.78,0-7.29-.67-10.52-2.01-3.23-1.34-6.03-3.19-8.4-5.55s-4.22-5.17-5.56-8.42c-1.34-3.25-2.01-6.81-2.01-10.68s.67-7.43,2.01-10.68c1.34-3.25,3.19-6.06,5.56-8.42s5.17-4.22,8.4-5.55c3.23-1.34,6.74-2.01,10.52-2.01,3.16,0,6.32.62,9.48,1.86,3.16,1.24,5.86,3.3,8.11,6.16l-4.52,3.37c-.53-.81-1.25-1.62-2.15-2.44-.91-.81-1.95-1.53-3.12-2.15-1.17-.62-2.43-1.12-3.77-1.5-1.34-.38-2.68-.57-4.02-.57-3.26,0-6.17.6-8.76,1.79-2.58,1.19-4.77,2.8-6.57,4.8-1.8,2.01-3.17,4.34-4.13,6.99-.96,2.65-1.44,5.44-1.44,8.35s.48,5.7,1.44,8.35c.96,2.65,2.33,4.98,4.13,6.99,1.79,2.01,3.98,3.61,6.57,4.8,2.58,1.19,5.5,1.79,8.76,1.79,1.34,0,2.67-.12,3.98-.36,1.32-.24,2.61-.64,3.88-1.22,1.27-.57,2.46-1.35,3.59-2.33,1.12-.98,2.17-2.21,3.12-3.69l4.24,3.01Z"/>
      <path class="st1" d="M235.14,520c0,3.87-.67,7.43-2.01,10.68-1.34,3.25-3.19,6.06-5.56,8.42-2.37,2.36-5.17,4.22-8.4,5.55-3.23,1.34-6.74,2.01-10.52,2.01s-7.29-.67-10.52-2.01c-3.23-1.34-6.03-3.19-8.4-5.55s-4.22-5.17-5.56-8.42c-1.34-3.25-2.01-6.81-2.01-10.68s.67-7.43,2.01-10.68c1.34-3.25,3.19-6.06,5.56-8.42s5.17-4.22,8.4-5.55c3.23-1.34,6.74-2.01,10.52-2.01s7.29.67,10.52,2.01c3.23,1.34,6.03,3.19,8.4,5.55,2.37,2.36,4.22,5.17,5.56,8.42,1.34,3.25,2.01,6.81,2.01,10.68ZM229.54,520c0-2.91-.48-5.7-1.44-8.35-.96-2.65-2.33-4.98-4.13-6.99-1.79-2.01-3.98-3.61-6.57-4.8-2.58-1.19-5.5-1.79-8.76-1.79s-6.17.6-8.76,1.79c-2.58,1.19-4.77,2.8-6.57,4.8-1.8,2.01-3.17,4.34-4.13,6.99-.96,2.65-1.44,5.44-1.44,8.35s.48,5.7,1.44,8.35c.96,2.65,2.33,4.98,4.13,6.99,1.79,2.01,3.98,3.61,6.57,4.8,2.58,1.19,5.5,1.79,8.76,1.79s6.17-.6,8.76-1.79c2.58-1.19,4.77-2.8,6.57-4.8,1.8-2.01,3.17-4.34,4.13-6.99.96-2.65,1.44-5.44,1.44-8.35Z"/>
      <path class="st1" d="M346.85,537.63h.14v-43h5.17v50.74h-6.46l-30.3-43.43h-.14v43.43h-5.17v-50.74h6.46l30.3,43Z"/>
      <path class="st1" d="M454.61,503.01c-2.25-3.3-5.53-4.95-9.84-4.95-1.34,0-2.66.18-3.95.54-1.29.36-2.45.91-3.48,1.65-1.03.74-1.86,1.7-2.48,2.87-.62,1.17-.93,2.54-.93,4.12,0,2.29.65,4.07,1.94,5.34,1.29,1.27,2.9,2.31,4.81,3.12,1.91.81,4.01,1.54,6.28,2.19,2.27.65,4.37,1.51,6.28,2.58,1.91,1.07,3.52,2.5,4.81,4.26,1.29,1.77,1.94,4.18,1.94,7.24,0,2.29-.49,4.36-1.47,6.2-.98,1.84-2.27,3.38-3.88,4.62-1.6,1.24-3.4,2.2-5.38,2.87-1.99.67-3.98,1-6,1-3.11,0-6.07-.59-8.87-1.76-2.8-1.17-5.18-3.09-7.14-5.77l4.74-3.37c1.1,1.86,2.62,3.36,4.58,4.48,1.96,1.12,4.27,1.68,6.94,1.68,1.29,0,2.58-.2,3.86-.61,1.29-.41,2.45-1,3.47-1.79,1.03-.79,1.87-1.76,2.54-2.9.67-1.15,1-2.46,1-3.94,0-1.77-.37-3.24-1.11-4.41-.74-1.17-1.72-2.15-2.94-2.94-1.22-.79-2.61-1.45-4.16-1.97-1.56-.53-3.16-1.05-4.81-1.58-1.65-.52-3.26-1.12-4.81-1.79-1.56-.67-2.94-1.52-4.16-2.54-1.22-1.03-2.2-2.32-2.94-3.87-.74-1.55-1.11-3.5-1.11-5.84s.47-4.56,1.4-6.38c.93-1.81,2.18-3.32,3.73-4.51,1.55-1.19,3.31-2.08,5.28-2.65,1.96-.57,3.97-.86,6.03-.86,2.87,0,5.48.45,7.83,1.36,2.34.91,4.52,2.51,6.53,4.8l-4.52,3.51Z"/>
      <path class="st1" d="M571.42,526.45c0,2.1-.25,4.34-.75,6.7-.5,2.36-1.45,4.55-2.84,6.56-1.39,2.01-3.29,3.67-5.71,4.98-2.42,1.31-5.52,1.97-9.3,1.97s-6.94-.66-9.33-1.97c-2.39-1.31-4.28-2.97-5.67-4.98-1.39-2.01-2.33-4.19-2.84-6.56-.5-2.36-.75-4.6-.75-6.7v-31.82h5.17v31.25c0,2.44.24,4.53.72,6.27.48,1.74,1.11,3.21,1.9,4.41.79,1.2,1.67,2.14,2.66,2.83.98.69,1.96,1.23,2.94,1.61.98.38,1.93.63,2.84.75.91.12,1.7.18,2.37.18.62,0,1.4-.06,2.33-.18s1.89-.37,2.87-.75c.98-.38,1.96-.92,2.94-1.61.98-.69,1.87-1.64,2.66-2.83.79-1.19,1.42-2.66,1.9-4.41.48-1.74.72-3.83.72-6.27v-31.25h5.17v31.82Z"/>
      <path class="st1" d="M654.12,540.64h23.69v4.73h-28.86v-50.74h5.17v46.01Z"/>
      <path class="st1" d="M759.15,545.37h-5.17v-46.01h-17.01v-4.73h39.2v4.73h-17.02v46.01Z"/>
      <path class="st1" d="M853.85,545.37h-5.17v-50.74h5.17v50.74Z"/>
      <path class="st1" d="M969,537.63h.14v-43h5.17v50.74h-6.46l-30.3-43.43h-.14v43.43h-5.17v-50.74h6.46l30.3,43Z"/>
      <path class="st1" d="M1090.26,503.95c-1.72-1.82-3.78-3.25-6.17-4.3-2.39-1.05-5.17-1.58-8.33-1.58s-6.17.6-8.76,1.79c-2.58,1.19-4.77,2.8-6.57,4.8s-3.17,4.34-4.13,6.99c-.96,2.65-1.44,5.44-1.44,8.35s.48,5.7,1.44,8.35c.96,2.65,2.33,4.98,4.13,6.99s3.98,3.61,6.57,4.8c2.58,1.19,5.5,1.79,8.76,1.79,2.63,0,5.16-.32,7.57-.97,2.42-.65,4.58-1.52,6.5-2.62v-16.98h-12.13v-4.73h17.3v24.87c-2.87,1.67-6.02,2.95-9.44,3.83-3.42.88-6.69,1.33-9.8,1.33-3.78,0-7.29-.67-10.52-2.01-3.23-1.34-6.03-3.19-8.4-5.55-2.37-2.36-4.23-5.17-5.56-8.42-1.34-3.25-2.01-6.81-2.01-10.68s.67-7.43,2.01-10.68c1.34-3.25,3.19-6.06,5.56-8.42,2.37-2.36,5.17-4.22,8.4-5.55,3.23-1.34,6.74-2.01,10.52-2.01,4.07,0,7.57.56,10.52,1.68,2.94,1.12,5.56,2.83,7.86,5.12l-3.88,3.8Z"/>
    </g>
    <g>
      <path class="st2" d="M93.5,466.74c-11.05,0-19.08-8.07-19.08-19.18s8.02-19.18,19.08-19.18c4.83,0,9.69,1.25,14.45,3.72l2.92,1.51v-9.59l-1.01-.58c-1.67-.95-7.79-4.06-16.36-4.06-16.25,0-28.5,12.11-28.5,28.18s12.25,28.17,28.5,28.17c9.01,0,15.07-3.06,16.71-3.99l1.01-.58v-9.53l-2.89,1.44c-4.87,2.43-9.86,3.66-14.83,3.66Z"/>
      <path class="st2" d="M206.86,419.38c-15.59,0-27.8,12.38-27.8,28.18s12.21,28.17,27.8,28.17,27.8-12.11,27.8-28.17-12.21-28.18-27.8-28.18ZM225.16,447.56c0,11.11-7.7,19.18-18.3,19.18s-18.37-8.07-18.37-19.18,7.73-19.18,18.37-19.18,18.3,8.07,18.3,19.18Z"/>
      <polygon class="st2" points="341.12 454.88 310.87 420.07 310.2 419.38 307.29 419.38 307.29 474.89 316.64 474.89 316.64 440.24 346.9 475.05 347.56 475.74 350.48 475.74 350.48 420.23 341.12 420.23 341.12 454.88"/>
      <path class="st2" d="M442.35,443.5c-9.46-3.44-10.24-6.3-10.24-9.17,0-4.21,4.62-6.09,9.21-6.09,4.05,0,8.55,1.37,11.21,2.74l2.91,1.49v-9.77l-1.18-.53c-1.87-.83-6.9-2.78-13.15-2.78-10.94,0-18.28,6.09-18.28,15.16,0,8.2,4.51,13.15,15.57,17.08,8.82,3.12,10.37,5.44,10.37,9.16,0,4.5-5.23,6.09-9.7,6.09-5.6,0-10.69-2.08-13.22-3.32l-2.88-1.41v9.84l1.17.53c4.41,2.01,10.09,3.21,15.21,3.21,11.36,0,18.71-6,18.71-15.3,0-8.09-4.55-13-15.7-16.94Z"/>
      <path class="st2" d="M561.48,455.16c0,7.36-4.26,11.58-11.67,11.58s-11.6-4.22-11.6-11.58v-34.93h-9.36v35.21c0,12.52,8.03,20.29,20.96,20.29s21.03-7.78,21.03-20.29v-35.21h-9.36v34.93Z"/>
      <polygon class="st2" points="655.5 420.23 646.14 420.23 646.14 474.89 677.85 474.89 677.85 466.39 655.5 466.39 655.5 420.23"/>
      <polygon class="st2" points="737.44 428.73 753.01 428.73 753.01 474.89 762.37 474.89 762.37 428.73 778.02 428.73 778.02 420.23 737.44 420.23 737.44 428.73"/>
      <rect class="st2" x="848.39" y="420.23" width="9.36" height="54.66"/>
      <polygon class="st2" points="968.09 454.88 937.83 420.07 937.16 419.38 934.25 419.38 934.25 474.89 943.61 474.89 943.61 440.24 973.86 475.05 974.53 475.74 977.44 475.74 977.44 420.23 968.09 420.23 968.09 454.88"/>
      <path class="st2" d="M1087.78,448.8v16.48c-2.62.93-6.15,1.53-9.21,1.53-11.05,0-19.08-8.1-19.08-19.25s7.9-19.18,19.22-19.18c4.88,0,9.76,1.25,14.52,3.72l2.92,1.51v-9.69l-1.05-.57c-2.74-1.48-8.49-3.97-16.32-3.97-16.37,0-28.71,12.11-28.71,28.18s12.25,28.17,28.5,28.17c6.07,0,12.56-1.54,17.37-4.11l1.06-.57v-22.27h-9.22Z"/>
    </g>
    <g id="Consulting_2" class="st3">
      <path id="G" class="st1" d="M1068.67,525.07c-3.55-.6-3.88-5.66-.22-6.24,6.23.25,13.08-.58,19.24-.08,1.49.12,3.75.39,3.95,2.25-.67,7.58.85,16.65,0,24.05-.26,2.25-3.53,3.79-5.37,4.7-7.28,3.61-16.26,5.05-24.29,4.11-40.12-4.67-37.51-71.76,8.73-68.74,3.81.25,12.3,2,15.65,3.75,2.77,1.44,1.75,6.28-2.16,5.54s-7.55-2.55-12.04-2.98c-21.2-2.06-35.73,13.26-31.59,35.15,4.19,22.18,28.21,26.14,45.2,16.36v-17.87h-17.11Z"/>
      <path id="N" class="st1" d="M976.47,541.29v-53.01c0-.34,1.13-1.55,1.54-1.72,1.57-.66,3.28-.2,4.09,1.35l.23,62.25c-.53,3.11-3.9,3.74-6.01,1.66-12.9-17.07-25.59-34.35-38.75-51.21-.64-.82-1.28-1.7-1.95-2.48-.17-.2.02-.57-.67-.38v53.01c0,.09-.72,1.32-.89,1.49-1.49,1.42-3.81.52-4.74-1.11l-.23-61.95c.31-3.27,3.81-3.67,5.98-1.92l40.58,53.53.82.5Z"/>
      <path id="I" class="st1" d="M856.18,552c-.32-.33-.51-.83-.66-1.27-.73-20.05-.09-40.26-.32-60.36-.16-4.61,5.15-5.9,6.16-1.2v60.68c-.25,2.74-3.2,4.2-5.17,2.14Z"/>
      <path id="T" class="st1" d="M769.02,492.33v58.42c0,.98-1.84,2.21-2.78,2.21-.89,0-3.07-1.32-3.07-2.21v-58.42h-23.54c-.1,0-1.44-.92-1.61-1.13-1.35-1.65-.45-4.52,1.63-4.86l53.96.12c1.8.85,2.29,2.89,1.22,4.59-.18.29-1.26,1.28-1.38,1.28h-24.42Z"/>
      <path id="L" class="st1" d="M660.62,546.7h29.98c.26,0,1.78.64,2.06.89,1.84,1.68.65,5.13-1.78,5.4l-33.03.02c-2.46-.29-3.18-1.68-3.37-4.04l.02-58.87c.11-2.61,1.63-4.55,4.37-3.59.56.19,1.77,1.6,1.77,2.09v58.12Z"/>
      <path id="U" class="st1" d="M583.9,487.03c.98-.99,2.99-.96,4.07-.11.76.59,1.08,2.2,1.11,3.15.36,12.92.08,27.39-.31,40.25-1.27,12.13-8.05,21.2-20.12,23.19-17.97,2.97-33.37-5.68-33.71-25.28-.22-12.81-.04-26.49.14-39.53.75-3.57,5.73-3.15,5.99.5.12,13.23-.34,26.79.01,39.63.44,15.78,15.11,22.06,28.82,17.86,8.38-2.56,12.96-9.76,13.02-18.46.09-12.58.12-26.15-.02-38.47-.01-.92.34-2.08.99-2.74Z"/>
      <path id="S" class="st1" d="M444.33,485.52c5.77-.52,12.29.41,17.76,2.3,2.35.81,6.95,1.94,5.98,5.24-1.29,4.37-6.21.85-9.06.03-6.22-1.78-16.46-2.72-21.78,1.66-3.98,3.27-4.92,7.91-2.15,12.41,6.28,10.2,28.73,5.9,35.55,20.26,4.63,9.77.2,20.95-9.57,24.84-8.6,3.42-26,1.68-33.61-3.92-2.78-2.05-1.55-5.43,1.57-5.82,4.23,1.95,8.06,3.83,12.69,4.69,8.91,1.65,25.54.77,24.63-12.38-1.25-18.06-37.11-9.63-38.87-31.56-.82-10.17,7.73-16.91,16.87-17.74Z"/>
      <path id="N1" data-name="N" class="st1" d="M356.17,541.29v-51.81c0-3.79,5.65-4.62,6.15-.31v60.68c-.42,3.55-4.19,4.09-6.3,1.65l-41.09-53.77v53.01c0,.24-1.02,1.45-1.31,1.65-1.78,1.23-4.19.19-4.55-1.94v-61.59c.38-3.31,4.92-3.38,6.44-.89l40.66,53.3Z"/>
      <path id="O" class="st1" d="M192.3,494.54c8.65-9.43,23.01-11.93,34.61-7.07,31.84,13.35,23.56,71.21-15.84,66.43-27.16-3.29-36.45-40.07-18.77-59.36ZM214.95,491.2c-33.45.2-33.87,54.48-1.85,56.69,36.47,2.52,35.44-56.9,1.85-56.69Z"/>
      <path id="C" class="st1" d="M101.28,485.22c5.47-.47,11.98.16,17.17,2.01,2.67.95,7.13,2.5,5.07,6.12-1.77,3.1-5.23.29-7.62-.49-22.29-7.26-42.59,9.74-37.87,33.79,3.51,17.86,20.54,24.26,36.6,20.04,2.52-.66,7.05-3.48,9.05-1.74,5.41,4.72-8.13,8.16-10.86,8.58-24.55,3.84-42.88-10.91-41.32-37.02.97-16.22,14.05-29.93,29.79-31.28Z"/>
    </g>
    <g id="lines">
      <path id="underline" class="st2" d="M925.45,512.44c.5,3.68-4.79,1.98-7.36,2.09-19.6.8-39.52-.47-59.04-.01-183.38,4.28-363.26,3.88-547.4-.07-25-.54-50.25,1.45-75.13-.97,46.03-4.55,92.31-2.31,138.56-3.1,155.83-2.67,313.13-4.4,468.93.03,27.21.77,54.3-.5,81.44,2.04Z"/>
    </g>
  </g>
</svg>