<?xml version="1.0" encoding="UTF-8"?>
<svg id="Layer_1" xmlns="http://www.w3.org/2000/svg" version="1.1" viewBox="0 0 1200 403">
  <!-- Generator: Adobe Illustrator 29.5.1, SVG Export Plug-In . SVG Version: 2.1.0 Build 141)  -->
  <defs>
    <style>
      .st0 {
        fill: #fff;
      }
    </style>
  </defs>
  <g id="Signature_White">
    <path class="st0" d="M1199.08,183.93c-5.88-.95-7.28,3.35-10.71,6.49-9.7,8.9-33.64,27.75-47.19,20.28-6.8-3.75-7.57-11.59-7.05-18.61,10.02-.84,21.79-9.46,27.08-17.77,3.4-5.35,7.65-15.38-.09-19-16.25-7.59-37.24,19.78-37.65,34.51-9.54,9.32-33.78,28.41-47.58,20.88-6.22-3.39-7.73-12.15-7.03-18.62,12.31-.49,31.3-16.5,31.49-29.07.14-9.43-10.13-10.26-17.08-7.58-20.77,7.99-35.9,44.74-16.07,60.6,18.08,14.47,42.08-3.63,56.37-15.32,3.03,17.16,18.49,23.82,34.56,18.93,11.69-3.55,31.07-17.82,39.11-27.08,2.14-2.46,3.9-5.5,1.84-8.65ZM1156.68,163.34c-.16,6.41-6.06,11.71-10.88,15.24-.97.71-8.85,5.74-9.27,5.36,3.49-8.79,10.75-17.88,20.15-20.6ZM1091.9,163.34c-1.76,10.26-11.79,16-20.15,20.6,2.7-8.88,10.89-18.4,20.15-20.6Z"/>
    <path class="st0" d="M1112.87,363.8c-38.65-26.58-73.2-58.49-110.28-87.07-5.29-4.08-10.93-8.64-16.4-12.38-2.73-1.86-18.95-11.07-19.45-12.68-.01-5.42,1.01-10.8,1.37-16.18.66-10.06-2.33-15.01,6.48-22.28,6.52-5.39,13.82-9.89,20.38-15.59,33.95-29.49,70.33-67.33,88.71-108.86,14.91-33.68,16.21-79.52-28.64-87.72-45.02-8.23-97.99,34.1-122.86,68.22-22.72,31.18-48.59,79.77-45.67,119.23.65,8.79,3.43,17.26,14.04,15.47,5.92-1,9.77-9.03,3.44-9.93-3.17-.45-5.25,2.58-6.95-1.18-3.83-8.49,1.77-33.56,4.59-42.92,10.63-35.28,42.99-88.99,73.99-109.65.45-.3,3.89-2.86,3.98-1.29-8.02,27.41-13.05,55.68-17.18,83.95-3.92,26.81-8.15,56.83-7.72,83.77.05,3.42-.73,4.36-3.24,6.4-8.33,6.79-25.43,16.87-35.18,21.9-3.82,1.97-14.42,5.42-16.02,8.9-1.1,2.38-1.22,4.77.87,6.7,3.45,3.19,11.04-.22,15.39-.5,5.38-.35,13.2.97,18.56,2.06,2.41.49,15.57,3.72,16.15,5.44.1,24.43-1.44,48.78-.91,73.27.25,11.69.52,25.35,1.47,36.87.58,7.04,2.35,26.28,11.31,27.54,9.98,1.4,4.65-14.38,4.1-19.45-.79-7.32-.75-14.65-1-22-.86-24.87-2.02-54.37-.52-79.07.17-2.74,1.19-5.56.98-8.37.93-.96,7.81,3.34,9.08,4.12,5.64,3.46,11.47,7.99,16.79,11.99,25.02,18.85,48.92,39.85,73.74,59.11,11.57,8.98,26.71,22.02,39.25,28.86,3.32,1.81,4.85,2.51,8.51.58-.11-2.52.45-5.06-1.14-7.23ZM971.5,178.49c5.21-47.81,13.04-92.78,22.75-139.74.62-3.02,1.22-10.76,2.48-12.81,1.21-1.96,14.86-7.6,17.79-8.64,31.8-11.34,68.59-6.54,63.94,35.57-4.64,42.03-49.49,94.44-79.65,122.69-7.85,7.35-17.83,16.3-26.74,22.18-.67.44-1.18,1.18-2.06,1.06-.09-6.78.76-13.56,1.5-20.3ZM952.24,233.06v12.7l-18.71-5.03c6.09-4.41,12.59-8.64,19.66-11.26.46.59-.96,3.05-.96,3.59Z"/>
    <path class="st0" d="M878.37,185.65c-5.24,4.57-11.15,14.83-16.81,20.59-11.29,11.49-39.79,30.54-47.39,5.6-3.82-12.52,1.64-31.5,10.18-41.32.69-.79,4.23-4.66,5.04-3.83.7,9.01,8.74,10.26,8.94-.32.27-14.53-12.9-14.48-21.9-7.11-18.07,14.8-26.03,52.65-5.98,68.76,14.79,11.88,34.66,3.2,47.49-7.19,6.65-5.38,22.56-21.72,26.08-29.06,2.78-5.81-.24-10.83-5.65-6.12Z"/>
    <path class="st0" d="M794.6,34.91c-4-4.67-9.29-5.07-14.5-2-13.61,8.02-33.2,46.32-40.39,61.26-20.96,43.56-33.26,90.19-51.06,134.95-2.37,5.96-4.86,12.29-9.72,16.65-1.25-10.11-2.02-20.23-1.7-30.45.71-22.91,6.35-52.44,2.27-74.58-1.58-8.55-7.63-12.62-15.36-7.02-10.43,7.56-24,42.38-28.65,55.26-14.1,39.05-21.55,79.49-33.46,118.98-1.3,4.3-6.47,21.38-8.76,23.84-.69.74-1.6,1.21-2.63,1.2-2.02-7.63-3.51-15.48-4.51-23.32-3.22-25.44-2.61-51.09-1.49-76.59,2.56-58.05,10.12-115.72,24.59-171.92,1.19-4.63,6.49-18.47,4.14-22.13-.76-1.18-3.45-1.93-4.77-1.53-4.36,1.32-9.43,17.04-10.78,21.37-17.72,56.88-25.65,133.29-26.66,192.86-.33,19.41,1.98,72.55,12.1,88.12,3.09,4.76,8.87,7.21,13.67,3.03,4.97-4.33,12.27-27.93,14.43-35.19,14.32-48.15,23.46-115.81,50.51-157.54.81-1.25,6.93-10.64,8.65-8.85.73,5.2.72,10.34.48,15.57-1.19,25.93-8.52,63.51-2.25,88.04,1.67,6.54,6.53,16.13,14.49,10.44,14.12-10.09,27.21-60.77,33.35-78.36,13.64-39.08,32.5-89.26,56.53-122.78,3.52-4.91,7.92-10.15,13.54-12.59,1.87,7.45,1.81,16.02,1.46,23.74-1.67,37.69-11.84,78.77-17.23,116.5-9.6,67.27-13.31,134.81-17.85,202.62.94,4.75-.29,10.73,1.7,15.12,1.02,2.24,4.06,4.6,6.35,2.73,1.06-.87,1.91-3.97,2.05-5.37.97-9.51-.03-21.15.48-31.15,1.8-35.39,5.95-73.88,10.14-109.2,6.79-57.2,19.12-114.61,25.37-171.62,1.37-12.49,3.88-40.22-4.55-50.08Z"/>
    <path class="st0" d="M489.14,191.86c-10.14,8.86-36.71,29.88-48.97,15.82-3.64-4.17-4.3-9.78-3.62-15.14,12.48-1.62,31.78-17.09,31.48-30.38-.09-4.04-3.57-7.35-7.5-7.89-18.74-2.57-37.84,26.1-34.74,43.34-9.05,17.54-16.29,37.74-26.32,54.7-2.57,4.34-6.09,8.84-10.63,11.18-6.61-18.14-5.4-39.61-3.84-58.7,2.14-26.25,6.95-56.07,13.28-81.62,1.6-6.47,4.76-13.93,5.78-20.1.33-2.01.85-5.97-.49-7.65-1.58-1.99-5.27-2.01-7.3-.61-5.99,4.11-10.75,25.62-12.48,33.06-7.29,31.23-11.08,64.02-10.29,96.07.28,11.47.32,39.11,11.25,45.79,9.17,5.61,15.45-4.86,19.65-11.55,9.67-15.4,15.42-33.02,23.32-49.32.87-.64,2.33,2.48,2.88,3.1,19.29,21.83,48.64.1,64.55-15.07,3.73-3.56,8.71-7.25,6.94-12.95-6.24-1.26-8.91,4.39-12.94,7.91ZM459.37,163.34c-1.5,10.27-11.82,16.09-20.15,20.6,2.83-8.9,10.83-18.28,20.15-20.6Z"/>
    <path class="st0" d="M349.49,171.71c2.21-3.79,7.81-6.8,3.83-11.49-5.85-6.9-14.47,5.63-17.19,10.16-2.32,3.86-4.27,10.19-6.39,13.27-.69,1-2.14,1.34-3.01,2.26-5.59,5.93-10.21,13.73-16.11,19.85-11.38,11.8-40.61,31.42-47.97,5.71-3.56-12.42,1.92-31.22,10.28-40.95.68-.79,4.24-4.66,5.04-3.83-.75,3.1,3.97,9.58,7.08,6.59,1.99-1.92,2.06-8.45,1.51-11.09-1.05-5.07-4.93-8.24-10.2-7.91-13.16.82-22.66,18.1-26.59,29.06-.83,2.33-1.3,6.42-2.31,8.23-1.06,1.9-6.07,6.71-7.87,8.91-7.29,8.95-21.58,26.52-33.48,28.38-9.45,1.49-12.59-15.76-13.08-22.65-1.09-15.32,3.75-26.83,4.73-40.79.18-2.58.06-5.65-2.8-6.67-7.54-2.69-10.1,5.07-11.78,10.8-5.08,17.33-6.75,50.91,7.67,64.22,11.38,10.52,24.76,4.19,34.81-4.56,7.91-6.88,14.85-15.65,22.06-23.25,4.93,30.37,31.04,34.37,54.1,18.32,7.75-5.4,12.56-12.04,19.31-18.09.48-.43.67-.89,1.45-.7-2.63,8.4-3.82,16.8-1.78,25.49,2.31,9.81,10.15,17.05,20.33,11.48,15.28-8.35,22.69-40.02,17.57-55.56-2-6.08-6.47-9.79-9.24-15.22ZM348.99,201.43c-.69,9.67-4.67,25.72-14.38,29.96-3.49-9.32-.86-19.34,1.9-28.52,1.98-6.59,4.72-13.28,7.08-19.78.17-.46-.1-1.43.84-1.05,4.34,1.76,4.84,15.43,4.56,19.4Z"/>
    <path class="st0" d="M210.8,119.48c-.3-6.26-6.16-15.78-12.81-9.64-2.44,2.25-4.04,7.35-4.04,10.61.02,13.46,17.48,11.95,16.85-.97Z"/>
    <path class="st0" d="M160.45,50.42c-.48-3.54-.67-15.14-2.61-17.28-2.49-2.74-6.73-.25-7.07,3.42-.38,4.1.56,10.58.99,14.87,1.5,15.19,4.33,30.32,5.75,45.53,5.71,60.91-7.56,131.25-23.17,190.11-5.2,19.6-11.88,45.3-21.38,63-2.33,4.34-9.09,16.2-14.68,9.7-7.85-9.12-14.23-49.02-16.05-62.09-7.24-52.06-8.56-104.76-12.55-157.11-1-13.08-4.27-48.37-10.94-58.56-3.35-5.13-9.8-6.01-14.01-1.34-5.12,5.68-10.33,27.38-12.44,35.5-14.14,54.46-24.57,113.01-29.31,169.13-2.49,29.44-4.49,60.66-1.44,90.08.29,2.81.32,7.58,3.01,8.97,2.7,1.4,4.89,1.02,5.87-2.01,1.89-5.85-.48-16.34-.75-22.75-1.6-38.41,3.59-85.84,9.22-124.06,6.93-47.1,16.83-94.63,30.16-140.25.66-.52,2.12,4.63,2.25,5.17,3.51,14.16,3.09,31.72,3.99,46.34,2.85,46.52,5.45,93.25,12.55,139.38,2.88,18.71,11.16,69.76,24.86,82.04,4.81,4.31,12.78,4.43,17.77.47,13.93-11.02,25.71-53.92,30.57-71.54,15.19-55.09,27.83-118.05,26.99-175.24-.36-24.76-4.31-47.14-7.6-71.48Z"/>
  </g>
</svg>