<?xml version="1.0" encoding="UTF-8"?>
<svg id="Layer_1" xmlns="http://www.w3.org/2000/svg" version="1.1" viewBox="0 0 400 132">
  <!-- Generator: Adobe Illustrator 29.5.1, SVG Export Plug-In . SVG Version: 2.1.0 Build 141)  -->
  <defs>
    <style>
      .st0 {
        font-family: Audrielle-No1, 'Audrielle No 1';
        font-size: 105.05px;
      }

      .st0, .st1 {
        display: none;
      }
    </style>
  </defs>
  <g class="st1">
    <path d="M74.3,13.1c0-.13.13-.27.27-.27.67-.4,1.07.4,1.6.13.4-.27.67-.53.67-1.07-.53-.8-.4-2-1.47-2.8-1.2,0-1.87.53-2.4,1.33-1.33,2.13-2.8,4.27-3.74,6.54-1.33,3.07-2.4,6.14-3.47,9.21-.13.53.13,1.2-.13,1.6-2.14,2.8-2,6.14-3.34,8.94-.8,1.6-1.07,3.34-1.2,5.07-.27,4.14-1.6,8.01-1.6,12.14,0,2.4-.67,4.8-.8,7.21-.13,2.4-.4,4.8-.4,7.21,0,3.87.13,7.74.27,11.61,0,1.47.27,2.94.13,4.4-.13,2.27.4,4.54.53,6.81.13,2.27.4,4.54.53,6.81.13,1.2-.27,2.4.13,3.47.8,2.13.13,4.27.4,6.67-1.2-1.07-1.47-2.4-2.67-3.2.13-1.33-1.47-2-1.87-3.2-.4-1.33-1.07-2.67-1.87-3.87-.93-1.6-2.4-2.94-2.4-4.94,0-.4-.13-1.2-.8-1.47-1.33-.67-1.47-1.87-1.73-2.94-.8-2.8-2.4-5.34-3.47-8.01-.67-1.6-1.47-3.2-2.27-4.8-.67-1.2-1.33-2.54-2-3.87,0-.53.13-1.2-.13-1.73-1.07-2-1.87-4-2.8-6-1.73-3.74-3.34-7.47-5.07-11.21-1.2-2.54-2.54-5.2-3.34-8.01-.4-1.47-1.2-2.94-2.4-4-.13-.8,0-1.6-.4-2-.93-1.07-.93-2.4-1.47-3.6-.93-2-1.6-4.14-2.67-6.14-.93-1.73-1.07-3.6-2.14-5.2-1.2-1.73-1.6-3.87-2.67-5.74-.93-1.6-1.87-3.34-4.14-4-.27-.13-.53-.13-.8-.13-.53.27-1.07.53-1.47.67-1.6,2.4-.4,4.67-.67,6.81l-1.47,1.2c-.27,2.54.8,5.07.67,7.61s.53,5.07.67,7.61c0,1.73.27,3.47.53,5.2.27,2.27.67,4.54.8,6.81.13,3.47.8,6.94.67,10.41,0,.27,0,.53.13.8.67,1.07.53,2.14.4,3.2-.13,1.07,0,2,0,2.94.13,1.2.53,2.4.27,3.74-.13.53-.13,1.33,0,2,.53,3.2.8,6.4.93,9.61.13,2.67.13,5.34.13,8.01s0,5.34.13,8.01c.13,3.87-.8,7.74-.53,11.61,0,.4-.13.8-.27,1.2-.53,2.27-1.2,4.54-1.47,6.94-.4.8-.8,1.6-1.2,2.4-.8.13-1.2-.13-1.47-.67-.67-1.07-1.47-2.14-2-3.2-2-4.54-4.27-9.07-4.8-13.88-.53-.27-.8-.8-1.6-.8-1.2.53-.93,1.47-.67,2.4,1.2,3.74,2.4,7.47,3.74,11.21.8,2.4,2,4.67,3.87,6.67.53.53,1.07,1.07,1.33,1.33,1.07.13,1.73.13,2,0,1.2-.93,2.13-1.6,3.07-2.27v-2.13c.4-.53.8-1.07,1.07-1.73.67-2,.4-4.14,1.07-6.14.8-2.14.93-4.4.8-6.67-.13-3.2.93-6.41.13-9.74,0-.27,0-.67.13-.93.67-1.07.4-2.27.27-3.47,0-.8-.4-1.6-.27-2.4.4-1.6-.53-3.2.13-4.8-.8-3.6.13-7.2-.67-10.81-.4-1.87.13-3.87-.13-5.74-.27-1.87.4-3.87-.67-5.74-.13-.13.13-.4.13-.67,0-.53.27-1.2,0-1.73-.67-1.33-.4-2.67-.4-4,0-1.2.27-2.4,0-3.47-.53-2.27-.67-4.67-.67-6.94-.13-5.07-.93-10.01-1.07-14.94v-.4c-.8-2-.27-4.14-.93-6.14-.13-.4-.13-.93.27-1.47.8.93,1.07,2.13,2.27,2.8v2c1.33,2.4,2.27,4.54,3.07,6.67.67,1.73,1.07,3.47,2,5.07,1.33,2.27,2.13,4.67,3.07,7.07.67,1.6.4,3.47,2,4.94.4,2.8,1.73,5.34,2.94,7.87.4.93,1.07,1.87,1.2,2.8.4,2.67,2.4,6.94,3.87,9.07-.13.4-.4.8-.13,1.2.8,1.07,1.47,2.13,2,3.34.93,2.13,1.2,4.54,2.8,6.54-.4,1.47,2,2.27,1.2,3.87,2.27,1.2,2,3.34,2.94,4.94.67.53,1.2,1.07,1.73,1.6-.27,1.33.8,2.53.53,3.74,1.47,1.33,2.54,2.67,3.07,4.4.67,2.14,1.6,4.27,3.6,5.61,1.87,3.6,3.87,6.67,7.61,8.81.8-.13,1.33-.27,2.13-.4.4-.53.8-1.07,1.2-1.6-.4-1.47.4-2.8.53-4.14.27-3.07-.8-6.14-.67-9.21,0-.13-.13-.27-.13-.4-.27-1.6-.8-3.2-.67-4.67.13-1.6-.27-3.2-.13-4.8.27-2.4-.67-4.67-.13-7.07-1.07-1.6-.4-3.34-.4-4.94s-.8-3.34.4-4.8c-.8-1.07-.67-2.14-.67-3.2,0-.8.67-1.6.13-2.4.93-3.07.27-6.27.93-9.34.27-1.07-.13-2.27.13-3.34.67-2.4,1.07-4.94,1.33-7.34.53-3.87,1.47-7.61,2.4-11.34,1.33-5.6,3.34-11.07,6-16.28.93-1.73,1.07-3.74,2-5.47Z"/>
    <path d="M71.63,47.13h.13c.53-.27.93-.53,1.2-.67.67-.8.93-1.6,1.07-2.4-1.2-1.07-1.73-1.2-2.53-.67-.8.53-1.33,2.27-.93,3.2.27.13.67.4,1.07.53Z"/>
    <path d="M125.41,74.88c.13-2.27-.53-4.27-1.33-6.27-.53-1.47-1.47-2.54-2.54-3.47-.53-.53-1.07-1.07-1.2-1.87-.8-.13-1.33-.13-1.73.27h.13c-.8.8-1.6,1.6-1.73,2.67-.02.14-.05.28-.08.42-1.06.97-1.5,2.49-2.59,3.58-.93.93-1.47,2.27-2.4,3.34-1.2,1.47-2.54,2.8-3.47,4.4-1.47,2.4-3.74,4.27-5.47,6.54-1.33,1.73-3.07,3.07-4.67,4.54-1.6,1.6-3.34,2.94-5.6,3.47-.4-.27-.93-.13-1.47-.27-1.33-1.47-1.73-2.27-2-3.34-.4-2.27-.4-4.54-.4-6.8,0-1.33-.13-2.67.4-3.87.53-1.33.13-2.8.67-4.14.8-1.87,1.6-3.74,2.27-5.6.8-2.14,2.4-3.87,4-5.47,1.6-1.6,3.74-1.87,5.6-.8,2,1.07,3.07,2.94,3.6,5.07.27,1.2.53,2.4,1.73,3.07h.4c.53-.27.93-.67,1.2-1.33-.4-3.07-1.87-5.87-2.67-8.54-.67-.53-.93,0-1.47-.13-.27-.13-.67-.4-1.2-.67l.13.53c-2.67-1.47-5.2-1.73-7.87,0-2.8,1.87-4.4,4.54-6,7.21-.53.95-.91,1.97-1.23,3.02-.4-.05-.84.11-1.31.45l.53-.27c-.13.93-.67,1.73-1.07,2.54-.53.93-1.2,1.87-1.6,2.8-.8,2.13-2,4.14-3.07,6.14-.93,1.87-2.27,3.6-3.2,5.6-.4.8-.93,2.13-2.27,2-1.6-1.73-1.6-3.87-1.6-5.87s-.8-4-.13-6.01c-.13-.4-.27-.8-.53-1.33.4-.67.27-1.33.27-2-.13-2.27.27-4.54-.4-6.81.8-1.6-.13-3.07-.13-4.54,0-.67-.4-1.2-.8-1.6-.53-.13-1.07-.13-1.73.53-.53,1.07-.4,2.54-.53,3.87-.27,4.4-.4,8.81-.27,13.21.13,3.07.4,6.14.8,9.21.4,2.4,1.07,4.54,3.74,5.6.67.13,1.6-.13,2.27.27,2.27-1.47,3.07-3.74,4.4-5.74,1.73-2.67,2.67-5.6,3.87-8.41.33-.72.66-1.44.98-2.15-.07.98-.1,1.97-.31,2.95-.27,1.07-.53,2.13-.27,3.34.13.67.4,1.33.27,2.13-.4,2.13.93,3.87,1.6,5.74.8,2,2.8,2.54,4.54,3.2.8-.13,1.6-.27,2.27-.53,1.33-.4,2.8-.53,3.87-1.47,1.87-1.6,3.87-3.07,5.34-4.94,1.47-1.87,3.34-3.34,4.67-5.34,1.47-2.27,3.74-3.87,5.07-6.27.13-.4.53-.67.8-.93.27-.27.67-.53.67-.93.07-.51.35-.9.66-1.25,0,.85-.01,1.76-.13,2.59-.67,3.2-.67,6.27-.53,9.61.13,2.27,1.2,3.87,2.8,5.21,2-.27,3.34-1.47,4.14-3.07.67-1.07,1.33-2.14,2-3.2.13-.27.27-.53.27-.8.27-1.33.53-2.67,1.07-3.87.13-.4.13-1.07.13-1.6.13-1.2-.27-2.4-.13-3.6ZM122.34,80.49c0,.4-.13.93-.4,1.2-.93,1.07-1.07,2.4-1.6,3.74-.67.53-1.07,1.33-2.13,1.73l-.13.27c-.13-2.4-.67-4.54-.13-6.8.13-.53,0-1.2,0-1.87,0-3.34.4-6.54,1.2-9.74,0-.02,0-.03,0-.05.23-.63.36-1.3.31-2.06.79.07,1.17.55,1.42,1.04.8,2,1.6,4,1.73,6.27.13,2.14-.4,4.14-.27,6.27Z"/>
    <path d="M172.37,69.14c-.53.53-1.33.93-1.73,1.73-.8,1.47-1.87,2.8-2.54,4.4-.4.93-1.07,1.33-1.47,1.6-1.87,3.47-4.27,6.14-6,9.34-1.73.8-2.27,2.93-4.14,3.87-.53,0-1.2.13-1.6-.27-1.73-2.54-1.07-5.47-1.73-8.27.53-.93.4-2,.13-3.07.93-.93,0-2.4,1.07-3.47h7.47c.4-.27,1.2-.53,1.73-1.07.13-2.27,0-4.4-.8-6.54-.67-1.73-2-2.94-3.2-4.27-.27-.4-.8-.53-1.33-.53-1.47-.13-2.8.27-4.27,1.33-.13.4-.4.93-.8,1.47l.4-.13c-.8,1.2-1.07,2.67-1.6,4-.13.4.4.93,0,1.6-.93,1.6-.8,3.47-1.2,5.2-.27.93,0,2-.13,2.94-.26,1.15-.26,2.18.1,3.21-.23.19-.36.39-.36.66,0,.67-.13,1.2-.4,1.73-.8,2.53-1.6,5.07-2.4,7.61-1.2,3.74-2.54,7.47-4.27,11.08-.4.93-.67,2-2,2.53-1.33-2.8-2.8-5.47-2.8-8.67-.13-.4-.67-.67-.67-1.2.13-.4.4-.67.13-1.07-.53-1.07,0-2.4-.8-3.34.27-1.6-.27-3.2-.67-4.8-.27-.8.13-1.33.13-2-.4-.53-.93-.93-.67-1.6.4-1.2,0-2.4-.13-3.6-.13-1.33,0-2.67-.4-4-.27-.8-.27-1.73-.27-2.54-.13-1.2-.13-2.54.4-3.6.93-1.73,1.47-3.6,2.54-5.2,1.47-2.27,2.27-4.8,3.47-7.21.8-1.47,1.47-3.07,2.14-4.54,1.2-2.8,2.27-5.74,3.74-8.54.53-1.07.4-2.27,1.07-3.34.53-.8.8-1.73,1.07-2.67.8-2.67,2.13-5.2,2.13-8.14,0-.13.13-.27.27-.4.67-1.47.93-3.07.93-4.67,0-.8.53-1.6.27-2.27-.4-1.07.4-1.73.53-2.4-.27-1.47-.8-2.8-.8-4.14,0-2.4-1.6-3.87-2.94-5.6-.13-.13-.27-.27-.4-.27-1.6-.27-2.8-1.6-4.54-1.6-.27.27-.67.27-1.07.27-1.87.27-3.34,1.33-4.54,2.8-2.27,2.67-3.47,5.87-4.4,9.07-.8,2.54-1.47,5.2-1.87,7.87-.13.93,0,2-.4,2.8-.93,1.73-.53,3.74-1.2,5.6-.4.93-.53,2.13-.4,3.34.13,1.2-.4,2.27-.4,3.34,0,1.87-.67,3.74-.4,5.6,0,.4-.27.93-.4,1.47,0,.53.67,1.07.4,1.6-.67,1.33,0,2.94-.67,4.4-.27.8-.13,1.73.67,2.27-.4,1.2-.27,2.27-.13,3.47.13,1.74.27,3.47.13,5.2,0,.93,0,1.73.13,2.54.13.93.4,1.87.13,2.8-.13.53-.13,1.2,0,1.73.4,2,.4,4,.8,6,.27,1.2.13,2.53.53,3.6.4,1.07.27,2,0,2.93.67.8.93,1.6,1.07,2.67.13,1.33.53,2.8.8,4.14.4,2.27.93,4.4,1.73,6.54.4,1.2,1.47,2.4.93,4,1.47,1.47,2,3.47,3.47,4.8l-.53-.8c.67.13,1.33.67,2.27.67.53-.27,1.2-.53,1.87-.8,1.47-2.14,2.8-4.4,3.74-6.81,1.43-3.81,2.85-7.63,4.18-11.44.75.41.89,1.31,1.15,1.96.67.4,1.2.8,1.73,1.2.53.27,1.07.53,1.6.27,1.07-.4,2.27-.53,3.34-1.33,1.07-.8,1.87-1.73,2.8-2.67,2-2.27,3.87-4.8,5.47-7.47,1.07-1.73,2.4-3.34,2.8-5.2,2-2.13,3.07-4.54,3.74-7.34-.53-.13-.93-.67-1.73-.4ZM156.63,65.81c1.87-.13,2.94.53,3.47,2s1.2,2.94.93,4.8c-2.4-.13-4.67,0-7.07.67.53-2.94,1.07-5.47,2.67-7.47ZM134.88,53l-.13.27c-.13-.27-.27-.67-.4-1.07.8-2.4.93-4.94.67-7.34-.4-2.8.13-5.34.67-8.01.13-.8-.13-1.6,0-2.54.4-2.4.67-4.8,1.2-7.21.27-.93.13-1.87.13-2.8.4-.67.8-1.33.93-2.14.53-2.54,1.47-4.94,2.54-7.21.4-1.07,1.2-1.87,2-2.54.4-.27.93-.53,1.47-.8h3.34c1.6.93,2.4,2.27,2.8,4,.4,1.47.67,2.94.27,4.54-.13.67.27,1.33.13,2.14-.13,1.6-.4,3.07-.93,4.54-.27.93.13,1.87-.4,2.8-.53.8-.53,1.87-.8,2.8-.4,1.07-1.07,2-1.2,3.07-.13,1.2-.53,2.27-1.07,3.34-.27.53-.53,1.07-.67,1.6-.4,2.94-2.14,5.47-3.2,8.27-.93,2.53-2.14,4.94-3.07,7.47-.4,1.2-1.07,2.27-1.6,3.47-.4.8-.8,1.6-1.07,2.4-.27,1.07-.93,1.87-1.6,2.67.4-3.87-.4-7.74,0-11.74Z"/>
    <path d="M274.45,94.5v1.87c-.53.53-.8,1.07-.93,1.73-.4,1.87-1.33,3.6-1.6,5.47-.13.8-.4,1.6-.67,2.4-.53,1.87-1.2,3.74-1.73,5.61-.93,3.47-1.73,7.07-2.67,10.54-.13.67-.27,1.47-.93,2,0-.27-.13-.53,0-.8.53-1.2.4-2.4.4-3.6,0-.4-.13-.8,0-1.2.8-1.87-.13-3.74.4-5.61-1.07-2.13.27-4.14.27-6.27,0-.93.13-1.87-.13-2.67,1.07-2,.8-4.14.8-6.14,0-1.2,0-2.4.67-3.34-.53-1.47,0-2.8.13-4.14s.27-2.67.53-4c.27-1.33-.27-2.8.8-4-1.33-1.33.8-2.94-.4-4.14.4-.67.67-1.2,1.07-1.87-.67-.8.13-1.73.13-2.67,0-1.73.53-3.34.8-4.94.13-1.33,1.07-2.67.27-4,.53-.53.8-1.07.8-1.73,0-.53,0-1.07.13-1.6.67-3.07,1.33-6.14,1.73-9.34.13-.8,0-1.6.13-2.4.27-1.47.53-2.94.27-4.54-.13-.53-.13-1.07,0-1.6.27-.93,0-1.87-.13-2.8-.27-1.2-.53-2.4-.8-3.6-.27-1.47-.93-2.8-1.87-3.87-.93-.93-2-1.33-3.47-.8-.53,1.07-2,1.33-2.67,2.4-1.6,2.4-3.34,4.8-4.67,7.34-1.73,3.47-3.34,6.94-4.8,10.54-.27.67-.67,1.2-.93,1.87-.53,1.6-.93,3.2-1.73,4.67-1.2,2.4-1.87,4.94-2.8,7.34-1.07,3.07-1.87,6.27-2.67,9.47-.4,1.73-.8,3.47-.93,5.2,0,.13-.13.27-.27.4-.27-.4-.4-.8-.53-1.2.27-.8.67-1.6.53-2.4-.4-2.27-.53-4.54-.4-6.8,0-.93-.27-1.87-.8-2.67v-.4c.27-.4.53-.8.8-1.07.13-.8-.4-1.33-.27-2,.4-2.94-.4-5.74-.4-8.67,0-1.07-.13-2.14-.13-3.2,0-2.54-.4-5.07-.53-7.61-.13-1.07-.27-2.27,0-3.34.13-.8-.27-1.33-.67-1.87.4-1.2.27-2.4,0-3.34-.67-2.4-.93-4.94-1.33-7.47-.4-2.67-1.2-5.2-2-7.74-.67-2.4-1.2-4.8-2.4-7.07-.53-.93-1.2-1.87-1.6-3.07-.53-1.6-1.33-3.2-2.27-4.54-1.33-2.27-2.67-4.67-4.67-6.41h-5.2l-2-.4c.13.67-.4,1.07-.8,1.47-.4.53-.93.93-1.33,1.47-1.6,2.4-2.53,5.2-3.87,7.74-1.07,2.14-1.73,4.4-2.4,6.67-.67,2.27-1.07,4.67-1.73,6.94-.27,1.07-.13,2.27-.67,3.07-.67,1.07-.4,2.27-1.07,3.2-1.2-2-2.27-4-4.54-4.94-.67.67-1.6.93-2,1.6-.53,1.6-.93,3.07-1.33,4.54.27.4.27.93.93,1.07,1.47-1.2.53-3.87,2.53-4.8,1.6,2.54,2.4,5.34,3.2,8.01-.13,2-.4,3.74-.8,5.47-.4,2.4-1.2,4.8-.93,7.34,0,.67-.13,1.2-.27,1.87-.27,1.33-.4,2.67-.4,4-.13,3.07-.4,6.14-.13,9.34.13,1.2.4,2.54.13,3.6-.4,1.33.27,2.54,0,3.74-.13.8.67,1.47.4,2.27-.4,1.07-.13,2.14-.13,3.2.27,4.4.67,8.81,1.73,13.21.8,3.2,1.47,6.54,2.53,9.74.53,1.47,1.33,2.8,1.6,4.27.53,2.67,1.87,5.07,2.8,7.61.27.67.4,1.33.8,1.87,1.33,1.87,2.13,4,3.6,5.74,1.2,1.47,2.4,2.4,4.4,2,1.07-.8,1.87-1.87,2.13-3.07.53-2.4.8-4.94.93-7.47.13-3.87,0-7.74-.53-11.61-.13-1.33,0-2.67-.4-3.87-.4-1.07-.27-2,0-2.93-.8-.67-.67-1.6-.67-2.4-.27-3.07-1.2-6-1.87-8.94-.13-.4,0-.8-.13-1.2-.13-.53-.53-1.07-.53-1.6.13-2.67-.93-5.07-1.33-7.61-.4-2.67-1.47-5.2-1.73-7.87-.13-1.47-1.07-2.94-.93-4.54-1.2-2.54-1.2-5.34-2.13-8.01-.8-2.54-1.07-5.34-2.14-7.87-.13-.27-.27-.53-.27-.8-.13-1.07-.53-2-1.07-2.94-.4-.8-.8-1.87-.53-2.8.53-1.73.53-3.6,1.2-5.34.27-.93.4-1.87.4-2.94.8-.93.67-2.27,1.07-3.47.8-2.27,1.6-4.54,2.27-6.81.67-2.67,1.73-5.2,2.67-7.87.53-1.6,1.6-2.94,2.13-4.54.4-1.2,1.2-2.4,2.4-3.2.53.13.93.4,1.2.8,2,2.13,3.6,4.67,4.67,7.34.93,2.27,1.6,4.67,2.4,7.07.13.27.13.67.4.8,1.07.93.93,2.27,1.33,3.47.27.93.27,1.87.53,2.8.93,2.54.93,5.2,1.6,7.74.27,1.07-.13,2.13.13,2.94.53,1.87.13,3.87.67,5.74.4,1.6-.13,3.34.4,4.94.27,1.07-.13,2.27.13,3.34s-.27,2.27.4,3.2c-.53,1.6,0,3.2.13,4.8.13.93.27,1.87,0,2.8-.13.27-.27.53-.13.8.53,1.07.13,2.14.27,3.2.27,1.6-.4,3.34.67,4.54-.4,2.14-.4,4.14,0,6.14.27,1.47.27,2.8-.13,4.14.27,1.07,1.07,2,.67,3.07-.53,1.73-.13,3.34.53,4.94-.4.53-.4,1.2-.4,1.87-.13,2.94.4,5.74.4,8.67,0,1.07.27,2.27.4,3.47,0,.8.4,1.47,1.07,1.87.8,0,1.47-.4,2.13-.67.8-1.2.93-2.54,1.2-3.74.27-1.47.4-2.94.53-4.4.27-2.13.67-4.27,1.07-6.41.4-2,.8-4,1.07-6,.4-2.53.93-5.07,1.73-7.47.53-1.6.8-3.2,1.33-4.8.4-1.6,1.07-3.07,1.6-4.54.4-1.47.67-2.94,1.2-4.27.93-2.27,1.87-4.54,2.8-6.81.67-1.47,1.2-2.94,1.87-4.4.53-1.07,1.2-2,1.6-3.07,1.07-2.54,2.4-4.94,4-7.34.8-1.2,1.47-2.54,2.8-3.2.93.53.93,1.6,1.2,2.54.4,1.33.13,2.8.27,4.27.27,2.8-.13,5.6-.67,8.41-.27,1.73-.67,3.47-.8,5.2-.13,2.27-.8,4.54-1.2,6.81-.4,2.27-1.33,4.4-1.47,6.67,0,1.87-.4,3.6-.8,5.34-.27,1.07-.4,2.13-.13,2.8-.67,3.6-1.73,6.67-1.07,10.27-.13.27-.4.67-.67,1.07-.13.93-.13,1.87.13,2.4-.13,1.73-1.2,2.93-1.07,4.4.13.67.13,1.2-.13,1.87-.13.53,0,1.33-.13,1.73-.27.8.4,1.47.13,2.27-.8,2.27-.4,4.67-.67,7.07,0,.4.27.93.4,1.2-.13,1.07-.53,1.87-.53,2.94s.13,2.27-.13,3.34c-.4,1.47.13,2.94,0,4.4-.13,1.2,0,2.53.13,3.87,0,.67-.13,1.33.27,1.87.4.67.13,1.33,0,2,.4.67.8,1.2.93,1.87.13.67.8,1.07,1.33,1.47,1.87.4,3.2-.27,4.27-1.6.4-2.53,2.13-4.67,1.87-7.47.13-.27.4-.53.67-.93-.13-1.07.27-2.13.67-3.2.27-.8.53-1.6.67-2.53.53-2.53,1.07-5.07,1.87-7.47.27-.93.67-1.87.67-2.8.13-.67.67-.93.67-1.6.13-2.67,1.33-5.2,1.87-7.87.13-1.07.13-1.87-.53-2.53-1.07-.27-1.6.27-2.13,1.07ZM214.14,44.06c0,1.6,1.07,2.67.93,4,1.47,2.67,1.47,5.74,2.53,8.54.53,1.47.8,3.07,1.07,4.54.8,3.47,1.6,6.94,2.4,10.27.8,3.47,1.33,6.94,2.27,10.41.8,2.8,1.07,5.74,1.73,8.54.4,1.6,0,3.47,1.2,4.94-.8,1.6,0,3.07.13,4.54l.13-.27c0,.27.13.53.13.8,0,4.27.8,8.54.53,12.81-.13,1.87-.53,3.6-.93,5.34-.13.67-.4,1.33-1.2,1.6-1.07-.93-2-1.87-2.8-3.2-2.27-3.87-3.74-8.14-5.2-12.28-1.33-3.87-2.4-7.74-3.34-11.74-.93-4-1.6-8.01-1.87-12.14-.13-2.8-.27-5.6-.4-8.41,0-1.2.4-2.27.4-3.47-.13-2.67-.13-5.47.27-8.14.4-3.2.27-6.41.67-9.61.27-2.13.53-4.27.8-6.4,0-.13.27-.27.53-.67Z"/>
    <path d="M375.19,103.57c-.93.27-.93,1.47-1.87,1.87-.53.13-1.07.13-1.6.27-1.07.27-2.13.53-3.2.4-1.87-.27-3.74-.67-5.6-1.2-2.67-.8-5.34-1.6-7.61-3.34-.53-.4-1.07-.67-1.6-.93-1.2-.53-2.4-1.07-3.2-2.27-.13-.27-.53-.53-.8-.53-.8-.13-1.2-.8-1.73-1.33-.53-.4-.93-.93-1.47-1.33-1.73-1.33-3.47-2.67-5.07-4.14-.8-.8-1.6-1.6-2.4-2.4-1.33-1.2-2.8-2.13-4.14-3.2-1.73-1.33-3.47-2.67-5.34-3.6,0-.53.27-.8.53-.93,1.47-.67,2.53-1.87,3.74-3.07,2.27-2.27,4.8-4.27,6.81-6.8.53-.67,1.47-.67,1.87-1.47s1.2-1.2,1.73-1.87c.53-.67.93-1.47,1.87-1.87.13-.13.27-.27.4-.4,2.14-2.67,4-5.6,6.14-8.27,1.6-2.13,2.94-4.54,4.14-6.94,1.07-2,2.14-4.14,3.2-6.14.27-.53.53-.93.53-1.73,0-.67.8-1.33.93-2.13.27-1.33.53-2.67,1.07-3.87.27-.8.27-1.47-.13-2.4.53-.4.8-.93.8-1.47l-.4.8c-.13-1.87,0-3.74-.4-5.47-.53-2.4-1.87-4.27-4.54-5.07-1.33-.4-2.53.27-3.74-.13-.67-.27-1.07.53-1.6.67-2.54.93-4.8,2.27-6.81,4-1.87,1.73-3.74,3.6-5.47,5.47-1.73,1.73-2.8,4-4.67,5.6v.13c-.93,2.67-3.07,4.67-4.27,7.21-1.6,3.2-3.47,6.27-4.67,9.74-.13.4-.4.8-.53,1.2-.4,1.33-1.33,2.4-1.73,3.74-.53,2.14-1.33,4.14-2.13,6.14-.67,1.47-1.2,2.94-1.07,4.67-.67.8-.93,1.73-1.2,2.67s-.53,1.87-.8,2.8c-.4,1.73-.67,3.47-1.33,5.07.4,2.27-1.2,4.14-.93,6.67-.4-.8-.27-1.33-.27-1.73-.13-2.94.27-5.87,0-8.81-.13-1.33,0-2.67,0-4s-.13-2.8.13-4.14-.27-2.54,0-3.87c.13-.67.4-1.33.4-2-.13-2.27-.27-4.54-.13-6.81,0-.67.53-1.33.27-2-.4-.93-.13-1.87-.13-2.8,0-1.07-.27-2,.13-3.07.13-.4.13-1.07,0-1.33-.53-1.2.53-2.54-.13-3.74-.13-.13-.13-.4,0-.53.53-.8.4-1.6.4-2.4-.13-2.8.13-5.6,0-8.41-.13-1.33-.13-2.67.27-4,.27-.8-.13-1.87-.13-2.8.13-2.67.27-5.34.27-8.01,0-1.87-.4-3.6-.13-5.2-.4-.8-.93-.93-1.47-1.07-.4.27-.8.53-1.2.8-.13,1.33-.27,2.67-.53,4-.53,3.6-.27,7.21-.8,10.81-.4,2.27.27,4.67-.4,6.94,0,.13.13.27.13.4.13,1.6.27,3.2-.27,4.8-.13.4-.13.93,0,1.33.53,1.07-.27,2.14.27,3.07-.53,1.6-.27,3.34-.27,4.94,0,1.33-.13,2.67-.13,4,0,1.6-.53,3.2.13,4.8.13.27,0,.53,0,.8-.19,2.38-.25,4.76-.36,7.13-.22-.31-.49-.6-.98-.6-.4.4-.27,1.07-.8,1.47-1.33.93-1.73,2.67-2.94,3.87-.93.93-1.47,2.27-2.4,3.34-1.2,1.47-2.53,2.8-3.47,4.4-1.47,2.4-3.74,4.27-5.47,6.54-1.33,1.73-3.07,3.07-4.67,4.54-1.6,1.6-3.33,2.94-5.6,3.47-.4-.27-.93-.13-1.47-.27-1.33-1.47-1.73-2.27-2-3.34-.4-2.27-.4-4.54-.4-6.8,0-1.33-.13-2.67.4-3.87.53-1.33.13-2.8.67-4.14.8-1.87,1.6-3.74,2.27-5.6.8-2.14,2.4-3.87,4-5.47s3.74-1.87,5.61-.8c2,1.07,3.07,2.94,3.6,5.07.27,1.2.53,2.4,1.73,3.07h.4c.53-.27.93-.67,1.2-1.33-.4-3.07-1.87-5.87-2.67-8.54-.67-.53-.93,0-1.47-.13-.27-.13-.67-.4-1.2-.67l.13.53c-2.67-1.47-5.21-1.73-7.87,0-2.8,1.87-4.4,4.54-6.01,7.21-1.33,2.4-1.73,5.2-2.53,7.87-.67,1.87-.4,3.74-.8,5.6-.27,1.07-.53,2.13-.27,3.34.13.67.4,1.33.27,2.13-.4,2.13.93,3.87,1.6,5.74.8,2,2.8,2.54,4.54,3.2.8-.13,1.6-.27,2.27-.53,1.33-.4,2.8-.53,3.87-1.47,1.87-1.6,3.87-3.07,5.34-4.94s3.34-3.34,4.67-5.34c1.47-2.27,3.74-3.87,5.07-6.27.13-.4.53-.67.8-.93.27-.27.67-.53.67-.93.13-.93.93-1.47,1.47-2.13.79-.99,1.65-1.95,2.22-3.04,0,.88.05,1.76.05,2.64,0,1.33-.13,2.67.13,4,.27,1.47-.53,2.94-.13,4.54.27,1.2-.13,2.4,0,3.47.13,1.47.13,2.93.27,4.4s.53,2.94.4,4.27c-.13,2.4.27,4.67.4,6.94.13,2.13.13,4.27.4,6.41.13,1.47.53,2.8.4,4.27-.13,1.6-.13,3.2.53,4.67.4.13.67.4,1.2.4,1.33-.93,1.73-2.4,1.47-3.87-.4-2.14,0-4.14,0-6.14,0-1.47.4-2.94.4-4.4,0-2.4.67-4.67.67-7.07,0-2.27.53-4.54,1.2-6.67.4-1.33.13-2.67.67-4,.53-1.33.93-2.67.8-4.14,0-.4.13-.8.27-1.2.93-2,.8-4.4,2-6.27,0-2.4,1.33-4.4,2-6.67.53-2,1.2-4,2.14-5.87.67-1.33,1.07-2.8,1.73-4.14.53-1.07,1.2-2.13,1.6-3.34.53-1.6,1.2-3.07,2.13-4.54,1.87-3.07,3.6-6.14,5.74-8.94,2.13-2.94,4.4-5.87,7.21-8.27,1.47-1.33,2.94-2.8,4.94-3.74,1.87-.93,3.6-1.47,5.74-1.2.27.4.67.67.93,1.07.8,1.33.93,2.94,1.47,4.4-.53.93-.27,2.14-.67,3.07-.8,2-.4,4.27-1.73,6.14-.4,3.2-2,5.87-3.47,8.54-1.73,3.07-3.74,6-5.87,8.94-1.07,1.47-2.4,2.8-3.47,4.27-1.2,1.6-2.8,2.8-4,4.4-.8,1.2-1.87,2.27-2.8,3.34-.53.67-1.33,1.07-1.87,1.73-.93,1.07-1.73,2.27-2.94,3.07-1.33.8-2.53,2-3.6,3.2-.8.93-1.6,1.87-2.53,2.53-.8.53-1.33.93-1.33,1.73,0,.53-.53.93-.13,1.6.93.8,2.13,1.33,3.07,2.4,2.13,2.27,4.67,4.14,6.94,6.27h.13l5.6,4.4c1.47,1.2,2.8,2.53,4.54,3.47,1.73.93,3.2,2.4,5.07,3.2,1.73,2.13,4.4,2.67,6.67,3.74,2.13,1.07,4.67,1.6,7.07,2,1.2.27,2.53.8,3.6.4,1.07-.4,1.87-.13,2.4,0,1.6-.27,2.8-.8,4-1.2l.8-.4c1.33-.53,1.2-2,1.87-2.94v-.27c-.4-.4-.8-.93-1.6-.8Z"/>
    <path d="M398.95,69.14c-.53.53-1.33.93-1.73,1.73-.8,1.47-1.87,2.8-2.54,4.4-.4.93-1.07,1.33-1.47,1.6-1.87,3.47-4.27,6.14-6,9.34-1.73.8-2.27,2.93-4.14,3.87-.53,0-1.2.13-1.6-.27-1.73-2.54-1.07-5.47-1.73-8.27.53-.93.4-2,.13-3.07.93-.93,0-2.4,1.07-3.47h7.47c.4-.27,1.2-.53,1.73-1.07.13-2.27,0-4.4-.8-6.54-.67-1.73-2-2.94-3.2-4.27-.27-.4-.8-.53-1.33-.53-1.47-.13-2.8.27-4.27,1.33-.13.4-.4.93-.8,1.47l.4-.13c-.8,1.2-1.07,2.67-1.6,4-.06.17,0,.37.07.59-.34.28-.66.59-.87,1.01-.8,1.47-1.87,2.8-2.54,4.4-.4.93-1.07,1.33-1.47,1.6-1.87,3.47-4.27,6.14-6,9.34-1.73.8-2.27,2.93-4.14,3.87-.53,0-1.2.13-1.6-.27-1.73-2.54-1.07-5.47-1.73-8.27.53-.93.4-2,.13-3.07.93-.93,0-2.4,1.07-3.47h7.47c.4-.27,1.2-.53,1.73-1.07.13-2.27,0-4.4-.8-6.54-.67-1.73-2-2.94-3.2-4.27-.27-.4-.8-.53-1.33-.53-1.47-.13-2.8.27-4.27,1.33-.13.4-.4.93-.8,1.47l.4-.13c-.8,1.2-1.07,2.67-1.6,4-.13.4.4.93,0,1.6-.93,1.6-.8,3.47-1.2,5.2-.27.93,0,2-.13,2.94-.27,1.2-.27,2.27.13,3.34-1.2,2.67.67,5.07.67,7.74.8.4.93,1.33,1.2,2,.67.4,1.2.8,1.73,1.2.53.27,1.07.53,1.6.27,1.07-.4,2.27-.53,3.34-1.33,1.07-.8,1.87-1.73,2.8-2.67,2-2.27,3.87-4.8,5.47-7.47.91-1.47,2-2.85,2.56-4.38.02.45.04.89-.02,1.31-.27,1.2-.27,2.27.13,3.34-1.2,2.67.67,5.07.67,7.74.8.4.93,1.33,1.2,2,.67.4,1.2.8,1.73,1.2.53.27,1.07.53,1.6.27,1.07-.4,2.27-.53,3.34-1.33,1.07-.8,1.87-1.73,2.8-2.67,2-2.27,3.87-4.8,5.47-7.47,1.07-1.73,2.4-3.34,2.8-5.2,2-2.13,3.07-4.54,3.74-7.34-.53-.13-.93-.67-1.73-.4ZM363.72,65.81c1.87-.13,2.94.53,3.47,2,.53,1.47,1.2,2.94.93,4.8-2.4-.13-4.67,0-7.07.67.53-2.94,1.07-5.47,2.67-7.47ZM386.67,67.81c.53,1.47,1.2,2.94.93,4.8-2.4-.13-4.67,0-7.07.67.53-2.94,1.07-5.47,2.67-7.47,1.87-.13,2.94.53,3.47,2Z"/>
  </g>
  <text class="st0" transform="translate(44.87 92.54)"><tspan x="0" y="0">Nicole McRee</tspan></text>
  <g id="Signature">
    <path d="M769.47,79.46c-5.73-.93-7.1,3.27-10.44,6.33-9.45,8.68-32.78,27.07-45.99,19.78-6.63-3.66-7.38-11.3-6.87-18.15,9.77-.82,21.24-9.22,26.39-17.33,3.31-5.21,7.45-15-.09-18.53-15.83-7.41-36.29,19.29-36.69,33.66-9.29,9.09-32.91,27.71-46.36,20.37-6.06-3.31-7.53-11.86-6.85-18.17,12-.47,30.5-16.09,30.69-28.35.14-9.2-9.87-10-16.65-7.39-20.24,7.79-34.98,43.63-15.66,59.11,17.61,14.11,41-3.54,54.93-14.95,2.96,16.74,18.02,23.23,33.68,18.47,11.39-3.47,30.27-17.38,38.11-26.41,2.08-2.4,3.8-5.36,1.79-8.44ZM728.15,59.38c-.15,6.25-5.91,11.42-10.61,14.87-.95.7-8.63,5.6-9.03,5.22,3.4-8.57,10.48-17.44,19.64-20.09ZM665.02,59.38c-1.71,10.01-11.49,15.6-19.63,20.1,2.63-8.66,10.61-17.94,19.63-20.1Z"/>
    <path d="M685.46,254.9c-37.66-25.93-71.33-57.04-107.47-84.93-5.15-3.98-10.65-8.43-15.98-12.07-2.66-1.82-18.47-10.8-18.96-12.37-.01-5.29.99-10.53,1.33-15.79.64-9.82-2.27-14.64,6.31-21.73,6.36-5.25,13.47-9.65,19.86-15.2,33.08-28.76,68.53-65.67,86.44-106.17,14.53-32.85,15.8-77.56-27.91-85.55-43.87-8.02-95.49,33.26-119.72,66.54-22.14,30.42-47.35,77.81-44.51,116.29.63,8.57,3.35,16.83,13.68,15.09,5.77-.98,9.52-8.81,3.35-9.69-3.09-.44-5.12,2.52-6.77-1.15-3.73-8.28,1.73-32.74,4.47-41.86,10.36-34.41,41.89-86.8,72.1-106.95.44-.29,3.79-2.79,3.88-1.26-7.82,26.73-12.72,54.31-16.74,81.88-3.82,26.14-7.95,55.43-7.53,81.71.05,3.34-.72,4.25-3.15,6.24-8.12,6.62-24.78,16.45-34.28,21.36-3.72,1.92-14.05,5.28-15.61,8.68-1.07,2.32-1.19,4.65.84,6.53,3.36,3.11,10.76-.21,15-.49,5.25-.34,12.86.95,18.08,2.01,2.35.48,15.17,3.63,15.74,5.3.1,23.83-1.4,47.58-.88,71.46.25,11.4.5,24.72,1.43,35.96.57,6.87,2.29,25.63,11.02,26.86,9.72,1.37,4.53-14.03,4-18.97-.77-7.14-.73-14.29-.97-21.46-.84-24.25-1.96-53.03-.51-77.12.16-2.67,1.16-5.43.96-8.16.91-.93,7.61,3.26,8.84,4.01,5.5,3.37,11.18,7.79,16.36,11.69,24.38,18.38,47.67,38.87,71.85,57.66,11.28,8.76,26.03,21.48,38.25,28.14,3.23,1.76,4.72,2.45,8.29.57-.11-2.46.44-4.94-1.11-7.05ZM547.7,74.16c5.08-46.63,12.71-90.49,22.17-136.3.61-2.94,1.18-10.49,2.42-12.5,1.17-1.91,14.48-7.41,17.33-8.43,30.99-11.06,66.84-6.37,62.31,34.7-4.52,41-48.23,92.12-77.62,119.67-7.64,7.17-17.38,15.9-26.06,21.63-.65.43-1.15,1.15-2.01,1.03-.09-6.62.74-13.23,1.46-19.8ZM528.94,127.39v12.39l-18.23-4.91c5.94-4.3,12.27-8.43,19.16-10.98.45.57-.93,2.97-.93,3.51Z"/>
    <path d="M456.94,81.14c-5.1,4.46-10.87,14.47-16.38,20.08-11,11.2-38.77,29.79-46.18,5.46-3.72-12.21,1.6-30.72,9.92-40.3.67-.77,4.12-4.54,4.91-3.74.69,8.79,8.51,10.01,8.71-.31.27-14.17-12.57-14.13-21.34-6.94-17.61,14.43-25.37,51.35-5.83,67.07,14.41,11.59,33.78,3.12,46.27-7.01,6.48-5.25,21.98-21.18,25.42-28.35,2.71-5.67-.24-10.57-5.5-5.97Z"/>
    <path d="M375.32-65.89c-3.89-4.56-9.06-4.94-14.13-1.96-13.26,7.82-32.35,45.18-39.36,59.75-20.43,42.48-32.41,87.97-49.75,131.62-2.31,5.81-4.73,11.98-9.47,16.24-1.22-9.86-1.97-19.73-1.66-29.7.7-22.35,6.19-51.15,2.21-72.74-1.54-8.34-7.43-12.31-14.97-6.85-10.17,7.38-23.39,41.34-27.91,53.9-13.74,38.09-21,77.53-32.6,116.05-1.26,4.19-6.31,20.86-8.53,23.25-.67.72-1.56,1.18-2.57,1.17-1.97-7.44-3.42-15.09-4.39-22.75-3.14-24.82-2.54-49.84-1.45-74.7,2.49-56.62,9.86-112.87,23.96-167.68,1.16-4.52,6.33-18.02,4.03-21.59-.74-1.15-3.36-1.88-4.65-1.49-4.24,1.29-9.19,16.62-10.51,20.84-17.27,55.48-24.99,130.01-25.98,188.11-.32,18.93,1.93,70.76,11.79,85.95,3.01,4.64,8.65,7.03,13.32,2.95,4.85-4.23,11.95-27.24,14.06-34.32,13.96-46.96,22.86-112.96,49.22-153.66.79-1.22,6.75-10.38,8.43-8.64.71,5.07.7,10.08.46,15.19-1.16,25.29-8.3,61.94-2.2,85.87,1.63,6.38,6.37,15.74,14.12,10.18,13.76-9.85,26.52-59.28,32.5-76.43,13.29-38.11,31.67-87.06,55.09-119.75,3.43-4.79,7.71-9.9,13.19-12.28,1.83,7.27,1.76,15.63,1.43,23.15-1.63,36.76-11.54,76.83-16.79,113.63-9.36,65.61-12.97,131.49-17.4,197.63.91,4.63-.29,10.46,1.66,14.75.99,2.18,3.96,4.48,6.19,2.66,1.04-.85,1.86-3.88,2-5.24.95-9.27-.03-20.63.47-30.38,1.76-34.52,5.8-72.06,9.88-106.5,6.62-55.79,18.64-111.79,24.72-167.39,1.33-12.18,3.78-39.23-4.43-48.84Z"/>
    <path d="M77.66,87.2c-9.88,8.64-35.77,29.14-47.72,15.43-3.54-4.07-4.19-9.54-3.53-14.77,12.16-1.58,30.97-16.67,30.68-29.63-.09-3.94-3.48-7.17-7.3-7.69-18.26-2.5-36.87,25.45-33.85,42.27C7.11,109.92.06,129.62-9.72,146.16c-2.5,4.24-5.94,8.62-10.36,10.9-6.45-17.69-5.26-38.63-3.75-57.25,2.08-25.61,6.77-54.69,12.94-79.61C-9.33,13.9-6.25,6.62-5.25.6c.32-1.96.83-5.83-.47-7.46-1.54-1.94-5.14-1.96-7.12-.6-5.84,4.01-10.47,24.99-12.17,32.24-7.11,30.47-10.8,62.44-10.03,93.7.27,11.19.32,38.14,10.96,44.67,8.93,5.47,15.05-4.74,19.14-11.27,9.42-15.02,15.02-32.21,22.73-48.1.85-.62,2.27,2.42,2.81,3.03,18.8,21.29,47.4.09,62.9-14.7,3.64-3.47,8.48-7.07,6.76-12.63-6.08-1.23-8.69,4.28-12.61,7.71ZM48.65,59.38c-1.46,10.01-11.52,15.69-19.63,20.1,2.76-8.68,10.55-17.83,19.63-20.1Z"/>
    <path d="M-58.43,67.55c2.15-3.7,7.61-6.63,3.73-11.21-5.7-6.73-14.1,5.49-16.75,9.91-2.26,3.76-4.16,9.94-6.23,12.94-.68.98-2.09,1.31-2.93,2.21-5.44,5.79-9.95,13.39-15.7,19.36-11.09,11.51-39.57,30.64-46.75,5.57-3.47-12.12,1.87-30.45,10.02-39.94.66-.77,4.14-4.55,4.91-3.74-.73,3.03,3.87,9.34,6.9,6.42,1.94-1.87,2-8.24,1.47-10.82-1.02-4.95-4.8-8.03-9.94-7.72-12.82.8-22.09,17.65-25.91,28.35-.81,2.27-1.27,6.26-2.25,8.03-1.03,1.86-5.92,6.54-7.67,8.69-7.1,8.73-21.03,25.86-32.62,27.69-9.21,1.45-12.26-15.38-12.74-22.09-1.07-14.95,3.65-26.17,4.61-39.78.18-2.52.06-5.51-2.73-6.5-7.35-2.63-9.84,4.94-11.48,10.54-4.95,16.9-6.57,49.65,7.47,62.64,11.09,10.26,24.12,4.09,33.92-4.44,7.71-6.71,14.47-15.26,21.5-22.68,4.81,29.62,30.25,33.52,52.72,17.86,7.55-5.26,12.24-11.74,18.82-17.65.46-.42.66-.86,1.42-.68-2.56,8.19-3.72,16.38-1.73,24.86,2.25,9.57,9.89,16.63,19.81,11.2,14.89-8.15,22.11-39.03,17.12-54.19-1.95-5.93-6.3-9.55-9.01-14.84ZM-58.91,96.53c-.67,9.43-4.55,25.08-14.02,29.22-3.41-9.09-.84-18.86,1.85-27.82,1.93-6.42,4.6-12.96,6.9-19.29.16-.45-.09-1.4.82-1.03,4.23,1.71,4.72,15.05,4.44,18.92Z"/>
    <path d="M-193.57,16.6c-.3-6.11-6-15.39-12.49-9.41-2.38,2.19-3.94,7.17-3.93,10.35.02,13.12,17.03,11.66,16.42-.95Z"/>
    <path d="M-242.63-50.75c-.47-3.46-.66-14.77-2.55-16.85-2.43-2.67-6.56-.24-6.89,3.34-.37,4,.55,10.32.96,14.51,1.46,14.82,4.21,29.57,5.61,44.41,5.57,59.41-7.37,128.02-22.58,185.42-5.07,19.11-11.58,44.18-20.83,61.44-2.27,4.23-8.86,15.8-14.31,9.46-7.65-8.9-13.87-47.82-15.64-60.56-7.05-50.77-8.34-102.18-12.23-153.24-.97-12.76-4.16-47.18-10.66-57.12-3.27-5-9.55-5.86-13.65-1.31-4.99,5.54-10.07,26.7-12.12,34.62-13.78,53.11-23.94,110.23-28.56,164.96-2.42,28.72-4.38,59.17-1.4,87.86.28,2.74.31,7.39,2.93,8.75,2.63,1.37,4.76,1,5.72-1.96,1.85-5.7-.47-15.94-.73-22.19-1.56-37.47,3.5-83.73,8.98-121,6.76-45.93,16.4-92.3,29.39-136.79.65-.51,2.06,4.52,2.19,5.05,3.42,13.81,3.01,30.94,3.88,45.19,2.78,45.37,5.31,90.95,12.23,135.94,2.81,18.25,10.87,68.04,24.23,80.01,4.69,4.2,12.45,4.32,17.32.46,13.57-10.75,25.06-52.6,29.79-69.78,14.8-53.74,27.12-115.14,26.3-170.92-.35-24.15-4.2-45.98-7.4-69.72Z"/>
  </g>
</svg>