<?xml version="1.0" encoding="UTF-8"?>
<svg id="Layer_1" xmlns="http://www.w3.org/2000/svg" version="1.1" viewBox="0 0 1000 720">
  <!-- Generator: Adobe Illustrator 29.5.1, SVG Export Plug-In . SVG Version: 2.1.0 Build 141)  -->
  <defs>
    <style>
      .st0 {
        fill: #fff;
      }
    </style>
  </defs>
  <path class="st0" d="M991.08,62.12c-9.5,11.59-35.49,19.05-49.72,25.75-51.84,24.41-138.79,74.03-157.81,130.91-1.3,3.89-5.17,17.48-4.05,20.79.76,2.24,5.04,1.36,6.76,1.59,92.55,12.37,168.15,69.61,199.38,157.94,48.68,137.69-34.05,286.08-176.76,315.83-140.52,29.29-277.6-71.79-287.96-214.79-3.05-42.05.43-87.83,8.51-129.2,37.07-189.92,178.25-306.51,359.2-355.99,19.94-5.45,46.34-12.11,66.62-14.54,35.06-4.2,58.42,34.16,35.83,61.71Z"/>
  <path class="st0" d="M321.2,148.43c-22.95,18.11-48.89,43.99-57.84,72.48-1.97,6.26-3.35,12.67-2.61,19.27l1.41.98c6.83.9,14.67,1.3,21.35,2.52,50.11,9.19,102.45,38.67,136.25,76.74,105.82,119.17,67.7,306.88-75.72,375.6-116.61,55.87-256.3,8.61-316.28-104.6-39.54-74.64-30.8-169.6-10.91-248.91C57.64,179.82,184.46,72.97,340.65,23.31c29.25-9.3,64.91-18.68,95.26-22.9,24.34-3.39,45.97,14.54,44.42,39.58-1.91,30.74-30.96,35.26-53.86,45.76-35.83,16.44-74.35,38.27-105.27,62.68Z"/>
</svg>