<?xml version="1.0" encoding="UTF-8"?>
<svg id="Layer_1" xmlns="http://www.w3.org/2000/svg" version="1.1" viewBox="0 0 800 800">
  <!-- Generator: Adobe Illustrator 29.5.1, SVG Export Plug-In . SVG Version: 2.1.0 Build 141)  -->
  <defs>
    <style>
      .st0 {
        fill: #fff;
      }
    </style>
  </defs>
  <path d="M384.74.3c200.61-7.76,377.72,136.16,409.89,334.04,42.92,263.98-177.56,494.21-442.9,462.78C178.25,776.56,36.01,641.72,6.06,469.73-35.61,230.36,142.61,9.66,384.74.3ZM420.51,341.42l-95.95-138.79c-37.19-.52-74.51-.84-111.61.44l-.67,2.84,143.8,209.9-143.82,169.41c-.78,2.67,1.5,3.4,3.66,3.64,9.76,1.11,21.96-.6,31.92-.32l126.35-146.34,100.47,144.94c30.86,2.03,61.94.48,92.9.99,3.63.06,17.03,2.09,19.34-.14.59-.57.82-1.77.56-2.58l-149.64-218.3,137.92-161.43c.89-2.44.44-3.14-2-3.43-7.15-.86-25.66-.73-32.97,0-.97.1-1.94-.07-2.74.69l-117.52,138.48Z"/>
  <path class="st0" d="M420.51,341.42l117.52-138.48c.79-.76,1.77-.59,2.74-.69,7.31-.72,25.82-.85,32.97,0,2.44.29,2.89.99,2,3.43l-137.92,161.43,149.64,218.3c.27.81.03,2.02-.56,2.58-2.31,2.23-15.71.2-19.34.14-30.97-.51-62.04,1.04-92.9-.99l-100.47-144.94-126.35,146.34c-9.96-.28-22.16,1.42-31.92.32-2.16-.24-4.43-.97-3.66-3.64l143.82-169.41-143.8-209.9.67-2.84c37.1-1.27,74.42-.95,111.61-.44l95.95,138.79ZM491.46,566.23h49.01l-.67-2.42-229.76-329.17c-13.52-.64-27.15.35-40.67-.11-2.78-.1-5.05-.96-8.21-.71-1.02.08-1.98-.54-1.69,1.02l232,331.39Z"/>
  <path d="M491.46,566.23l-232-331.39c-.29-1.56.68-.94,1.69-1.02,3.16-.25,5.43.61,8.21.71,13.53.47,27.15-.53,40.67.11l229.76,329.17.67,2.42h-49.01Z"/>
</svg>